<mxfile host="app.diagrams.net" agent="Mozilla/5.0 (Macintosh; Intel Mac OS X 10.15; rv:136.0) Gecko/20100101 Firefox/136.0" version="26.1.0">
  <diagram name="Page-1" id="OiEdDJexhkBXffJ5KBIJ">
    <mxGraphModel dx="1991" dy="1170" grid="0" gridSize="10" guides="1" tooltips="1" connect="1" arrows="1" fold="1" page="1" pageScale="1" pageWidth="850" pageHeight="1100" math="0" shadow="0">
      <root>
        <mxCell id="0" />
        <mxCell id="1" parent="0" />
        <mxCell id="ViAHHDkNQJJAyb4cHbFf-2" value="DT1" style="swimlane;whiteSpace=wrap;html=1;" parent="1" vertex="1">
          <mxGeometry x="70" y="50" width="608" height="527" as="geometry" />
        </mxCell>
        <mxCell id="ViAHHDkNQJJAyb4cHbFf-66" style="edgeStyle=orthogonalEdgeStyle;rounded=0;orthogonalLoop=1;jettySize=auto;html=1;entryX=0.5;entryY=1;entryDx=0;entryDy=0;" parent="ViAHHDkNQJJAyb4cHbFf-2" source="ViAHHDkNQJJAyb4cHbFf-30" target="ViAHHDkNQJJAyb4cHbFf-64" edge="1">
          <mxGeometry relative="1" as="geometry" />
        </mxCell>
        <mxCell id="ViAHHDkNQJJAyb4cHbFf-30" value="&lt;div&gt;Drawbridge Edge&lt;/div&gt;" style="editableCssRules=.*;html=1;shape=image;verticalLabelPosition=bottom;labelBackgroundColor=#ffffff;verticalAlign=top;aspect=fixed;imageAspect=0;image=data:image/svg+xml,PHN2ZyB4bWxucz0iaHR0cDovL3d3dy53My5vcmcvMjAwMC9zdmciIHhtbG5zOnY9Imh0dHBzOi8vdmVjdGEuaW8vbmFubyIgd2lkdGg9IjE2MCIgaGVpZ2h0PSIyNDAiIHZpZXdCb3g9IjAgMCAxNjAgMjQwIj4mI3hhOwk8c3R5bGUgdHlwZT0idGV4dC9jc3MiPiYjeGE7CS5zdDB7ZmlsbDojNDY2YmIwO30mI3hhOwk8L3N0eWxlPiYjeGE7CTxwYXRoIGNsYXNzPSJzdDAiIGQ9Ik02MCAyNDBMMCAyMTBoMTYwem0wLTE2MEwwIDIwMGw2MC0xMHpNNzAgMHYxOTBsOTAgMTB6Ii8+JiN4YTs8L3N2Zz4=;fontColor=default;" parent="ViAHHDkNQJJAyb4cHbFf-2" vertex="1">
          <mxGeometry x="289.5" y="465" width="26" height="40" as="geometry" />
        </mxCell>
        <mxCell id="ViAHHDkNQJJAyb4cHbFf-36" style="edgeStyle=orthogonalEdgeStyle;rounded=0;orthogonalLoop=1;jettySize=auto;html=1;entryX=0.5;entryY=0;entryDx=0;entryDy=0;exitX=0.5;exitY=1;exitDx=0;exitDy=0;exitPerimeter=0;" parent="ViAHHDkNQJJAyb4cHbFf-2" source="N8-MjwElvkZ1eLH-sIl_-13" target="ViAHHDkNQJJAyb4cHbFf-64" edge="1">
          <mxGeometry relative="1" as="geometry">
            <mxPoint x="304.3100000000004" y="160.00000000000017" as="targetPoint" />
            <mxPoint x="268" y="312" as="sourcePoint" />
          </mxGeometry>
        </mxCell>
        <mxCell id="ViAHHDkNQJJAyb4cHbFf-37" value="&lt;div&gt;GitOps repo&lt;/div&gt;&lt;div&gt;(k8s-deploy, als-infra)&lt;/div&gt;" style="shape=image;html=1;verticalAlign=top;verticalLabelPosition=bottom;labelBackgroundColor=#ffffff;imageAspect=0;aspect=fixed;image=https://cdn4.iconfinder.com/data/icons/ionicons/512/icon-social-github-128.png" parent="ViAHHDkNQJJAyb4cHbFf-2" vertex="1">
          <mxGeometry x="66" y="269.99999999999994" width="50" height="50" as="geometry" />
        </mxCell>
        <mxCell id="ViAHHDkNQJJAyb4cHbFf-38" style="rounded=0;orthogonalLoop=1;jettySize=auto;html=1;entryX=0.07;entryY=0.896;entryDx=0;entryDy=0;entryPerimeter=0;" parent="ViAHHDkNQJJAyb4cHbFf-2" source="ViAHHDkNQJJAyb4cHbFf-37" target="N8-MjwElvkZ1eLH-sIl_-13" edge="1">
          <mxGeometry relative="1" as="geometry">
            <mxPoint x="290.5" y="220" as="targetPoint" />
          </mxGeometry>
        </mxCell>
        <mxCell id="ViAHHDkNQJJAyb4cHbFf-100" value="Webhook" style="edgeLabel;html=1;align=center;verticalAlign=middle;resizable=0;points=[];" parent="ViAHHDkNQJJAyb4cHbFf-38" vertex="1" connectable="0">
          <mxGeometry x="-0.1051" relative="1" as="geometry">
            <mxPoint as="offset" />
          </mxGeometry>
        </mxCell>
        <mxCell id="ViAHHDkNQJJAyb4cHbFf-40" value="CLI" style="rounded=0;orthogonalLoop=1;jettySize=auto;html=1;entryX=0.57;entryY=0.333;entryDx=0;entryDy=0;entryPerimeter=0;" parent="ViAHHDkNQJJAyb4cHbFf-2" source="ViAHHDkNQJJAyb4cHbFf-39" target="N8-MjwElvkZ1eLH-sIl_-13" edge="1">
          <mxGeometry relative="1" as="geometry">
            <mxPoint x="302.5" y="172" as="targetPoint" />
          </mxGeometry>
        </mxCell>
        <mxCell id="N8-MjwElvkZ1eLH-sIl_-11" style="rounded=0;orthogonalLoop=1;jettySize=auto;html=1;" edge="1" parent="ViAHHDkNQJJAyb4cHbFf-2" source="ViAHHDkNQJJAyb4cHbFf-39" target="N8-MjwElvkZ1eLH-sIl_-5">
          <mxGeometry relative="1" as="geometry" />
        </mxCell>
        <mxCell id="N8-MjwElvkZ1eLH-sIl_-12" value="&lt;div&gt;UI&lt;/div&gt;" style="edgeLabel;html=1;align=center;verticalAlign=middle;resizable=0;points=[];" vertex="1" connectable="0" parent="N8-MjwElvkZ1eLH-sIl_-11">
          <mxGeometry x="-0.0221" y="-2" relative="1" as="geometry">
            <mxPoint as="offset" />
          </mxGeometry>
        </mxCell>
        <mxCell id="ViAHHDkNQJJAyb4cHbFf-39" value="Engineer" style="shape=umlActor;verticalLabelPosition=bottom;verticalAlign=top;html=1;outlineConnect=0;" parent="ViAHHDkNQJJAyb4cHbFf-2" vertex="1">
          <mxGeometry x="290" y="37" width="30" height="60" as="geometry" />
        </mxCell>
        <mxCell id="ViAHHDkNQJJAyb4cHbFf-102" style="rounded=0;orthogonalLoop=1;jettySize=auto;html=1;" parent="ViAHHDkNQJJAyb4cHbFf-2" source="ViAHHDkNQJJAyb4cHbFf-64" target="ViAHHDkNQJJAyb4cHbFf-101" edge="1">
          <mxGeometry relative="1" as="geometry" />
        </mxCell>
        <mxCell id="ViAHHDkNQJJAyb4cHbFf-64" value="" style="shape=image;verticalLabelPosition=bottom;labelBackgroundColor=default;verticalAlign=top;aspect=fixed;imageAspect=0;image=data:image/avif,AAAAIGZ0eXBhdmlmAAAAAGF2aWZtaWYxbWlhZk1BMUIAAADybWV0YQAAAAAAAAAoaGRscgAAAAAAAAAAcGljdAAAAAAAAAAAAAAAAGxpYmF2aWYAAAAADnBpdG0AAAAAAAEAAAAeaWxvYwAAAABEAAABAAEAAAABAAABGgAAC/kAAAAoaWluZgAAAAAAAQAAABppbmZlAgAAAAABAABhdjAxQ29sb3IAAAAAamlwcnAAAABLaXBjbwAAABRpc3BlAAAAAAAAAoAAAAFoAAAAEHBpeGkAAAAAAwgICAAAAAxhdjFDgQEMAAAAABNjb2xybmNseAACAAIAAYAAAAAXaXBtYQAAAAAAAAABAAEEAQKDBAAADAFtZGF0EgAKChhmJ/s7BAgIBhAy6BcR4AJJJJFAtF7zt9rQb5l4Or3kxDZJK5HXHm6QZIgRrXCkvXj3XMSJbKDPAJjQYY7hFHGtXu/EVQxWJURb49Ela9UF4Q5oLjqble41bxueuH63U3dzqh9rM/XWxjCV3VD65rSP5BYHzGIDOzlO+KqJINoSn/o0aWnxVV8hqxQ5wBJy2weDO2oTUlp5ArsJOXb+dQgO5WPlEVQTtH3oy4gVd9L7H/xd3zCAZCsk0jFJaHapfg+RKrxk44T/vER4DVBHKG3VfhvbpECUyfFgtXKpDONkP8yp8qqleHJbP9eLh1HJTf/X5k2v5y7OECVMY1MIpkLUNvsWW6kl7W2ej+x3yrkK1LuKKlchSc0aeuklMDBpHKkAK7XSKFf+wi1zmZxE6/NacLpSKFDCYT1VGdTh/P7xrwK9h3Ivi+/snTOWzXyGffsEpMwt/07xVRVDzUb/yzNDKvI9OY1DEInBYX2Z9Ri0orHBDDwApKBdUrd8UZMpJG9gWNekHPMYf2J3ao8LRv4XYUBbVCbGiVSwNilM3TvBkJ0iKI7L+qQjlCwy/5UCiu0I6NGR82MGd7pU2OHEu5AEhAdvxxDYmzyAukzOOJwv3YpAaY5cYSjtu9DXgSnHTl58vlbRnrpwnEJIs9sC2I988q5urFNWGpdPbdIo/vlKLw9QOoCnl1qWZvuyj+xlb+KZjluyhu1jH2up5WUOzfVJ+vAqKzPNtQAOsngQ8z1cWHbQaOYFpQwD3415FxRP4+UAIj7BRyV+DqhXckA12oRCbHCCs/wWVIfvjClfRYk7YJFPT/lqphunkyVbM3HXBRd9BHtZ62tJvauCnhCDIPJBwq+1YoE39HfGLAy19v6fvNcayo5ByO6EHQ/Yk9IQc8+EkT0l1AXYktwapVWKb0IfAgou2eCACOWC8a8XdrZmCUjyWjIDjz27wkuvFaguu/slPmmEkZCR0Z81LP6bC15jMYBjKQXRq8Fevp85LXaVR8KkMSqqpc7GYynBLrvFZt1VgZL8t0dCGf5vkdPsKQjXYzSNTT2s0mMk6czU7FC2xn+wL3i6nqAOlBJ7T+G35IfK0fszYC90qhX0E2JRhw3MjGRPPmcQtgDHuRxGyar5beX+qjRV4CI4+HNex9idPSUPzz+DmYW/3a1P9T05F0K12gBgtHxh5/kP49fmsirmmFcwRDBw3YVboH1nSQuXZw43hdF/2Ae1oEHZOakNBngZEmMubpYUHBYfUZRmG7GZA5tki7i6+Ncds0dF0gRD7UoR1P7LwHziT2KFnrF7lyu+VHqr2yVq0LhOlYSxMnsmo/WiMzw+7CCA/rvwZ9rb/7A306pjl5jGWsm5ANXcmHp12v239J64z8txYgzZOsQEWp/3I4ZbeybYZuPAlTe8ZQHNRNcinLHGJLv0rNmctkALtJDrBfobMvCrBJ/t3EBOyP4/qdscn5+HPBTvu1yvNqlkYPQIB/zqGD/cjsF+pS/kYh3Zksxjl+SCsEpEhBghM/X5f7Iiv4WKAQ0TnQ0W6EHZ1FEdGM9d6d0efemtlGZ419tafdlqUClCeotDLHUrlO7j9mW2wZ6EPExtPHTJ01tXlFPJmebryt820PswRlC+vNQdxQoMg1DMl6naHozfSC/yZVNj1qt/yIrZaUJkM+/icLro8ic+ZIUun7HKfzOXLK/CAZvqctLtoxsZcXAa7yrAIuiCJ1d78m0pCTMdoO8cqMYWmCREKAzs+olxj8PWe+Xib/JF0cAFM1LlF/NcI1BlSk6iW/uePKC3GoOmxvgRmPPCh9Al9whXNBwSLS2izW7WbvhBrp1NouQXnbAnJowIGIENpE8W2mLFR8RlZ/n3mZ9hcPK2cAg5b1EjLa13gOBNQNeF+nUbyQLHq6d5x+hwdFkkz9c+YGdy2Bih3S83R23tBcouegB7bFh+Qhjy4mHzq5JuNXi+JF/yYiIKGCoOSlUOLaSUmrg8NBunQWNxlMD44U8D3+FGfg2JOxNYQnYTY2qS6CtAdnPR6XHH54Lsn7ySJxIVlHuedjS29rlqKuXV0ZvoUGhXApglowqPHnk/d1/bnpsrDqIFyWu5aNI93pIg+kfK3ZdWaidXVBPmUz2ohGOmU7oBXYvnw4HzzuiGtd9VQKmOAqQrsSJla0WB28iuUUdNg1F7dDCHO4IOOdsAF4ws2RpTuqZ0jiBPFXqnwdtlJ1fxjboABBxHNa2YvdulYPSIxm09M4cgi+6ofC5XAfuZCjKtzhceEjntYsreaFKEyxx2tUzCMMCa6A9YdR60vZ73EZNv+3kZPidZ+mjjo1fwdPthlknpGca2s//izFejl81Yb0FftdBrnCczG6GnhxYeUxTKaR0D8FUvIEz7FWHpFs7oGvOArKyeeF2Lpi1i21UVk8rjteQ5LWqjUcTwBsIJU//RAxNuhSipFjNv4MXbDjscuX098CcOkxLuFFJBdUCnyYyNjR1dLUlXZUqvcwSVuTGg980UuPD3iH/P+yGA8eUJ1mZT3pp40cAPwHduhz4FRDoilzJ0/LOOM0cYUlLYa7VhomCPi+HkzP5Tkez15xOLfQ97WXVIfxOllnZqUmX2FJCX/iSYRrC8tMvT9DhwSPgdEB2sm3kOU0rvTOK3+8MZ/qJQ9YApj5jxSUFwxgIvI4sK62GvEOTiZ7D8niWuzFnwi/Sypam2u1HzmlQuS/xXzt+8VtJMkbQCjMeOPClhJAXqGFtjGrAUd+xo1pyqrRY2YLB4T9rggWdrmifaJcpPkjlojeb6v7q9jiS+I+J3rIywgf+4rElFR6QzmrS8VEU2VmUW7tU415SlCWwcWDppv8kVXKJtVewkz2SSWh+EstOG8/rnWxv9xzsbHvbsSy3hWMc4d19DjLKcIE0ZnVXse2PCwkjrU9hnno1NKPqKVmwX/cezqBF5PO1O8Hk2Ky/0Ojt4pPp46M+7K6bGmE37gDK+WOeyvtktEnUQNlmYjVpFfxljp0IabG/jnIZ42tlvpNPk0BhyrbUzvkbLV97kIJV2Vk1DryXapgy2KF3n/CK3++J0Up7H3EiRQADlfLFKPJ0rWc+vMThaC7ALe3h1GORlebQFhLSDcUwr8UCqd2ocDYLIjOs0Nydk2wtr6C3ESPUEF9nVERwCYDVmiW2ZenyL2tThmGQ7NP+fqIU1zlvLKrFJVSIaavnsVzLtTCZ6wGE5bwZ91rOgqmr+rhx8ArQC+aJKGZq9uAaMx39XeljdV2avXuN5uYJSAA3FCoND5kjJOtsjhwRo7TATLOA33a7sLBlzFCjHa9m0Ll7Uj/Vgl8Hl05s5cqw+PbGVpAQmZuu0rElfk/miKqJ5nqJHPNBBePmttC8fAyO5TdeQpqxANW7gCDWGhNuaQXa5SvVIAi+AODVYbaGW7B3laNXySGz8vu5rLlU+0daAe78qwlPXLmfNws37CvErkfym27BkYWhbf3bsaOBQM1WUHpOb5UwSXhsdbow8Wpbf/Yov5Ap1iuWo+7iGIn2yuG/ua5w0Wb9sA7oDw4AqpnN+U1aC8XG8Pa3UHnuyDvwvNRlvuP8AaFF1teJ4g1ZnX4zKgmKLJfuHQBwQLsJSQ4oMhn2jC76WIqoIDVkToCf/35JYyl15WRw4J2XFKEmKHLB7itM9fvDExtc44aFRm1QuLxS413zhG/tMFm/03Pgb6lqdzDeLlp+A/F+jhkSV/eQUanhRshMRHqEuS4AbqhdGGSxf2seQ/n+DA+dQ69ZxsSuoQut7bKspBgOL/JS4nsFdyxlskK9oqwmjC2upVqG+BEKO7Za0vZ1K/OmBaBPhJNlWeKDjyZRKrjvOVDrTR1vORCfEfvhabZqfv45o69OA8PeMxCSD9ahy3ygIbDBd4lqTjBmdlNB7jeL/IXNkvDK6OPO6Fp4C73Q7BiIABS8WrTkkddeMm6BD3/hkHVbKw5JnYKujkASjSU5Yq5T4UKwkYfyVv66gywiNCCOnHFmWoUwf5zG+r5UOLlc3R7ZJidcAcXpUFvHPjtNpAc3kypiiGT9ZwfPf9h7STvloIb0M6bu2anu11btW4hsjQV+CGlxejAJmTFMXrRilbyg=;" parent="ViAHHDkNQJJAyb4cHbFf-2" vertex="1">
          <mxGeometry x="223.24" y="367.83" width="158.52" height="89.17" as="geometry" />
        </mxCell>
        <mxCell id="ViAHHDkNQJJAyb4cHbFf-92" style="rounded=0;orthogonalLoop=1;jettySize=auto;html=1;entryX=0.027;entryY=0.5;entryDx=0;entryDy=0;entryPerimeter=0;exitX=1;exitY=0.5;exitDx=0;exitDy=0;" parent="ViAHHDkNQJJAyb4cHbFf-2" source="ViAHHDkNQJJAyb4cHbFf-64" target="ViAHHDkNQJJAyb4cHbFf-90" edge="1">
          <mxGeometry relative="1" as="geometry">
            <mxPoint x="384" y="412" as="sourcePoint" />
          </mxGeometry>
        </mxCell>
        <mxCell id="ViAHHDkNQJJAyb4cHbFf-90" value="&lt;div&gt;Managed App Builder Worker&lt;/div&gt;&lt;div&gt;(replaces GHA/TC)&lt;/div&gt;" style="aspect=fixed;sketch=0;html=1;dashed=0;whitespace=wrap;verticalLabelPosition=bottom;verticalAlign=top;fillColor=#2875E2;strokeColor=#ffffff;points=[[0.005,0.63,0],[0.1,0.2,0],[0.9,0.2,0],[0.5,0,0],[0.995,0.63,0],[0.72,0.99,0],[0.5,1,0],[0.28,0.99,0]];shape=mxgraph.kubernetes.icon2;prIcon=pod" parent="ViAHHDkNQJJAyb4cHbFf-2" vertex="1">
          <mxGeometry x="486" y="388.41999999999996" width="50" height="48" as="geometry" />
        </mxCell>
        <mxCell id="ViAHHDkNQJJAyb4cHbFf-103" style="rounded=0;orthogonalLoop=1;jettySize=auto;html=1;" parent="ViAHHDkNQJJAyb4cHbFf-2" source="ViAHHDkNQJJAyb4cHbFf-101" target="ViAHHDkNQJJAyb4cHbFf-37" edge="1">
          <mxGeometry relative="1" as="geometry" />
        </mxCell>
        <mxCell id="ViAHHDkNQJJAyb4cHbFf-104" value="&lt;div&gt;Push&lt;/div&gt;" style="edgeLabel;html=1;align=center;verticalAlign=middle;resizable=0;points=[];" parent="ViAHHDkNQJJAyb4cHbFf-103" vertex="1" connectable="0">
          <mxGeometry x="-0.348" y="-2" relative="1" as="geometry">
            <mxPoint as="offset" />
          </mxGeometry>
        </mxCell>
        <mxCell id="ViAHHDkNQJJAyb4cHbFf-101" value="GitOps worker (glorified YAML editor)" style="aspect=fixed;sketch=0;html=1;dashed=0;whitespace=wrap;verticalLabelPosition=bottom;verticalAlign=top;fillColor=#2875E2;strokeColor=#ffffff;points=[[0.005,0.63,0],[0.1,0.2,0],[0.9,0.2,0],[0.5,0,0],[0.995,0.63,0],[0.72,0.99,0],[0.5,1,0],[0.28,0.99,0]];shape=mxgraph.kubernetes.icon2;prIcon=pod" parent="ViAHHDkNQJJAyb4cHbFf-2" vertex="1">
          <mxGeometry x="66" y="388.41999999999996" width="50" height="48" as="geometry" />
        </mxCell>
        <mxCell id="N8-MjwElvkZ1eLH-sIl_-3" style="rounded=0;orthogonalLoop=1;jettySize=auto;html=1;entryX=0.05;entryY=0.5;entryDx=0;entryDy=0;entryPerimeter=0;" edge="1" parent="ViAHHDkNQJJAyb4cHbFf-2" source="N8-MjwElvkZ1eLH-sIl_-2" target="N8-MjwElvkZ1eLH-sIl_-13">
          <mxGeometry relative="1" as="geometry">
            <mxPoint x="278.5" y="196" as="targetPoint" />
          </mxGeometry>
        </mxCell>
        <mxCell id="N8-MjwElvkZ1eLH-sIl_-4" value="Webhook" style="edgeLabel;html=1;align=center;verticalAlign=middle;resizable=0;points=[];" vertex="1" connectable="0" parent="N8-MjwElvkZ1eLH-sIl_-3">
          <mxGeometry x="0.0647" y="1" relative="1" as="geometry">
            <mxPoint as="offset" />
          </mxGeometry>
        </mxCell>
        <mxCell id="N8-MjwElvkZ1eLH-sIl_-2" value="App Repo" style="shape=image;html=1;verticalAlign=top;verticalLabelPosition=bottom;labelBackgroundColor=#ffffff;imageAspect=0;aspect=fixed;image=https://cdn4.iconfinder.com/data/icons/ionicons/512/icon-social-github-128.png" vertex="1" parent="ViAHHDkNQJJAyb4cHbFf-2">
          <mxGeometry x="66" y="121.99999999999993" width="50" height="50" as="geometry" />
        </mxCell>
        <mxCell id="N8-MjwElvkZ1eLH-sIl_-6" style="rounded=0;orthogonalLoop=1;jettySize=auto;html=1;entryX=0.93;entryY=0.479;entryDx=0;entryDy=0;entryPerimeter=0;" edge="1" parent="ViAHHDkNQJJAyb4cHbFf-2" source="N8-MjwElvkZ1eLH-sIl_-5" target="N8-MjwElvkZ1eLH-sIl_-13">
          <mxGeometry relative="1" as="geometry">
            <mxPoint x="326.5" y="208" as="targetPoint" />
          </mxGeometry>
        </mxCell>
        <mxCell id="N8-MjwElvkZ1eLH-sIl_-9" value="SDK" style="edgeLabel;html=1;align=center;verticalAlign=middle;resizable=0;points=[];" vertex="1" connectable="0" parent="N8-MjwElvkZ1eLH-sIl_-6">
          <mxGeometry x="-0.1231" y="-3" relative="1" as="geometry">
            <mxPoint as="offset" />
          </mxGeometry>
        </mxCell>
        <mxCell id="N8-MjwElvkZ1eLH-sIl_-5" value="Backstage&#xa;(aka PaaS frontend)" style="shape=image;verticalLabelPosition=bottom;labelBackgroundColor=default;verticalAlign=top;aspect=fixed;imageAspect=0;image=data:image/png,iVBORw0KGgoAAAANSUhEUgAABYAAAAb6CAYAAAB7ANYUAAAACXBIWXMAAC4jAAAuIwF4pT92AAAgAElEQVR4nOzd3VFcub7wYY3rXHaVfRJocyKAHYGZCMyJAByBOQnI7U5gcASGCDaOYCCCgQg2KIHXVK17vyWPYMDdxnz0h7TW81zv2tVIHuj+tdZfv3379i0AAAD0TezSXghhEkLYm47GJzYYABgiARgAAOidEn8/3/q5voQQ9qej8YXdBgCG5IXdBgAA+mRO/M3ehhDOYpcmNhsAGBIngAEAgN74Sfz90Xk5DWwsBADQewIwAADQC7FL+yGEPx7xsxyVEPzVvwAAoK+MgAAAAJoXu3T4yPib7YYQLko4BgDoJSeAAQCAppX4u/vMn8FYCACglwRgAACgWQuKv7d9CiFMjIUAAPpCAAYAAJq0hPh77aqcBj70LwMAaJ0ADAAANGeJ8fe20xKCz/wLAQBaJQADAADNiF16FULI8fftCl+zsRAAQLMEYAAAoAkl/uZL2jbX8HrzWIi96Wh87F8LANASARgAAKjemuPvbaclBF/4VwMAtEAABgAAqlZR/L3tYwjhwFgIAKB2AjAAAFCtSuPvtctySZyxEABAtQRgAACgSpXH39uMhQAAqvXC1gAAALWJXdoKIZw1EH+zN/m1xi5NKngtAAB3OAEMAABUpcTffPL3ZYM7c1lOA59U8FoAAARgAACgHo3H39u+lPnAxkIAAGtlBAQAAFCFHsXf7K2xEABADZwABgAA1q5n8fdH5+U0sLEQAMDKCcAAAMBa9Tz+3nZUQvDXel4SANB3RkAAAABrE7u0F0L4awDxN9sNIVzELu1X8FoAgIFwAhgAAFiLEn8/D3T1jYUAAFZCAAYAAFZu4PH3NmMhAIClMgICAABYKfH3juuxEHsVvSYAoEecAAYAAFZG/L3XaTkNfFbxawQAGiMAAwAAK1EuP/vDav/SpxDCxFgIAGARBGAAAGDpYpcOy7gDHuaqnAY+tF4AwHMIwAAAwFKJv8+Sx0LsTUfji4Z/BgBgjQRgAABgacTfhfkYQjgwFgIAeCwBGAAAWArxd+Euy1iI4579XADAEgnAAADAwom/S2UsBADwYAIwAACwMLFLr0IIOf6+tapL93E6Gk96/jMCAM8kAAMAAAtR4u9JCGHTiq7MZTkNfDKQnxcAeCQBGAAAeDbxd+2+lPnAxkIAAHe8sBwAAMBziL9VyCM3zmKXjIQAAO5wAhgAAHgy8bdKxkIAADcEYAAA4EnE3+odlbEQX4e+EAAwZEZAAAAAjxa7tBVCuBB/q7ab9yh2aX/oCwEAQ+YEMAAA8Cgl/uaTvy+tXDPOy2lgYyEAYGAEYAAA4MHE3+YZCwEAA2MEBAAA8CDiby9cj4XYG/pCAMBQOAEMAAD8kvjbS6flNPDZ0BcCAPpMAAYAAO4Vu7QdQjgWf3vrUwhhYiwEAPSTERAAAMBPlVEBf4q/vfbeWAgA6C8ngAEAgLlKEPxsdQYlj4XYm47GF0NfCADoCwEYAACYIf4O3scQwoGxEADQPgEYAAC4Q/yluCyXxB1bEABolwAMAADcEH+Zw1gIAGiYAAwAAHwXuzQJIXywGvyEsRAA0CABGAAAyPH3MISwayX4hctyGvjEQgFAGwRgAAAYOPGXJ/hS5gMbCwEAlXthgwAAYLjEX57obQjhrIwNAQAq5gQwAAAMlPjLghgLAQAVE4ABAGCAxF+W4EsJwS6JA4CKCMAAADAgsUuvQgjHIYQ39p0luAohTKaj8YHFBYA6CMAAADAQJf7mx/Q37TlLdl4uiTMWAgDWTAAGAIABEH9Zk6MSgo2FAIA1eWHhAQCg38Rf1ijPmb6IXdq3CQCwHk4AAwBAj4m/VOS0nAY+sykAsDoCMAAA9JT4S6U+lYvijIUAgBUQgAEAoIdil7ZK/H1pf6nQVTkNfGhzAGC5BGAAAOgZ8ZeGGAsBAEsmAAMAQI+IvzTqYwjhwFgIAFg8ARgAAHpC/KVxl+U08LGNBIDFEYABAKAHxF96JI+F2JuOxhc2FQCeTwAGAIDGxS5thxCOxV96xlgIAFgAARgAABoWu7QXQvhsD+mpy3Ia+MQGA8DTCMAAANAo8ZcB+VLmAxsLAQCP9MKCAQBAe8RfBuZtCOEsdmli4wHgcZwABgCAxoi/DJyxEADwCAIwAAA0RPyFG19KCHZJHADcwwgIAABoRHn8XfyFv+WxEBexS/vWAwB+zglgAABoQOzSYQhh117BXOflkjhjIQDgBwIwAABUTvyFBzsqIdhYCAAojIAAAICKib/wKLvGQgDAXU4AAwBApcRfeJbzckncmWUEYMgEYAAAqJD4CwvzKYQwMRYCgKESgAEAoCKxS69CCMchhDf2BRbmqswGPrSkAAyNAAwAAJUo8fckhLBpT2ApTksINhYCgMEQgAEAoALiL6yUsRAADIYADAAAayb+wlpcltPAx5YfgD4TgAEAYI3EX1i7PBZibzoaX9gKAPpIAAYAgDURf6EqH0MIB8ZCANA3AjAAAKxB7NJWib8vrT9Uw1gIAHpHAAYAgBUTf6F6X0oINhYCgOa9sIUAALA64i804W0I4Sx2aWK7AGidE8AAALAi4i806bJcEndi+wBokQAMAAArIP5C84yFAKBJRkAAAMCSxS7tiL/QvOuxEPu2EoCWOAEMAABLFLu0F0L4bI2hV87LaWBjIQCongAMAABLIv5C7x2VEPzVVgNQKyMgAABgCcRfGITdEMKFsRAA1MwJYAAAWDDxFwYpj4XYm47GZ7YfgJoIwAAAsEDiLwzepxDCxFgIAGphBAQAACxI7NKB+AuD976Mhdgb+kIAUAcngAEAYAFilw7LPFCAa6flkjhjIQBYGwEYAACeSfwFfsFYCADWRgAGAIBnEH+BB7osp4GPLRgAqyQAAwDAE4m/wBPksRB709H4wuIBsAoCMAAAPIH4CzzTxxDCgbEQACybAAwAAI8Qu/QqhHASQti0bsAzGQsBwNIJwAAA8EDiL7AkxkIAsDQvLC0AAPya+Ass0ZsQwlns0sQiA7BoTgADAMAviL/ACl2W08AnFh2ARRCAAQDgHuIvsCZfynxgYyEAeBYjIAAA4CdilzbEX2BN3hoLAcAiOAEMAABzxC5tlfj70voAa3ZeTgMbCwHAownAAADwA/EXqNRRCcFfbRAAD2UEBAAA3CL+AhXbDSFcxC7t2yQAHsoJYAAAKMRfoCHGQgDwIAIwAACIv0C7PoUQJsZCAPAzRkAAADB4sUs74i/QqPdlLMSeDQRgHieAAQAYtBJNPg99HYBeOC1jIc5sJwDXBGAAAAZL/AV6ylgIAG4IwAAADJL4C/TcVQhhbzoaH9togGETgAEAGBzxFxiQ0xKCL2w6wDAJwAAADIr4CwzUxxDCgbEQAMMjAAMAMBixSwflxnyAIbosl8QZCwEwIAIwAACDELt0GELYtdsAxkIADMkLuw0AQN+JvwB3vAkhnMUuTSwLQP85AQwAQK+JvwD3uiyngU8sE0A/CcAAAPSW+AvwYF/KfGBjIQB6xggIAAB6SfwFeJS3xkIA9JMTwAAA9Ers0qsQQn6UedPOAjyJsRAAPSIAAwDQG+IvwEIdlbEQXy0rQLuMgAAAoBfEX4CFy2N0LmKX9i0tQLucAAYAoHniL8DSnZfTwMZCADRGAAYAoGniL8BKGQsB0BgjIAAAaFbs0ob4C7BS12Mh9iw7QBucAAYAoEmxS1sl/r60gwBrcVpOA59ZfoB6CcAAADRH/AWoyqcQwsRYCIA6CcAAADRF/AWo0lU5DXxoewDqIgADANAM8RegenksxN50NL6wVQB1EIABAGiC+AvQlI8hhANjIQDW74U9AACgdrFLO+IvQFM+hBDOyu9vANbICWAAAKoWu7QXQvhslwCaZSwEwBo5AQwAQLXEX4BeeBNC+E/s0sR2AqyeE8AAAFRJ/AXopctyGvjE9gKshgAMAEB1xF+A3vsSQtg3FgJg+YyAAACgKuIvwCC8LZfEGQsBsGROAAMAUI3YpcMQwq4dARgUYyEAlkgABgCgCuIvwOAdlbEQX4e+EACLZAQEAABrJ/4CUP4OXMQu7VsMgMVxAhgAgLUSfwGY47ycBjYWAuCZBGAAANZG/AXgF4yFAHgmARgAgJWLXXoVQjgQfwF4gKsSgQ8tFsDjCcAAAKxUib/5kd5NKw/AI5yWEHxm0QAeTgAGAGBlxF8AFuBTCGFiLATAwwjAAACshPgLwAIZCwHwQAIwAABLJ/4CsCTGQgD8ggAMAMBSib8ArMDHfLmosRAAs15YEwAAliV2aUv8BWAFPoQQzmKXdiw2wF1OAAMAsBS34u9LKwzACuWxEHvT0fjCogMIwAAALIH4C0AFjIUABi8IwAAALJr4C0BFLstp4BObAgyVAAwAwMKIvwBU6ksIYd9YCGCIXAIHAMBCiL8AVOxtuSRuYpOAoXECGACAZ4td2stzFsVfABpgLAQwKAIwAADPUuLvZ6sIQGO+lBDskjig14yAAADgycRfABqWx0JcxC7t20Sgz5wABgDgScRfAHrkvFwSZywE0DsCMAAAjyb+woyrEMJ2COFVCOEwhPDaEkGTjkoINhYC6A0jIAAAeBTxF2bkk4Mb09H4rJwe3AohfLRM0KRdYyGAvnECGACAB4tdOiwfjoG/5fi7Pe+0YOzSRjkN/MZaQZNOy2ngM9sHtEwABgDgQcRfmPHT+Htb7NJOCOHAWAho1qcQwsRYCKBVAjAAAL8k/sKMB8Xfa7FLeTZwfqT8g6WEJl2V08CHtg9ojQAMAMC9xF+Y8aj4e1vs0lY5DWwsBLTJWAigOQIwAAA/Jf7CjBx/dp77KHi5TDGH4JeWGJqUL3o8MBYCaIEADADAjPK4+oH4C3ccTUfjvUUtSfnvbBJCeG+ZoUmX5TTwse0DaiYAAwBwR4lSJyGETSsDNxYaf28zFgKal58M2JuOxhe2EqiRAAwAwA3xF+ZaWvy9LXZpv5wINhYC2mQsBFAlARgAgO/EX5hrJfH3mvEr0LzLchr4xFYCtRCAAQAQf2G+lcbf22KXtksI9t8ktOlLmQ9sLASwdgIwAMDAib8w18fpaDxZ99IYCwFNuyojIdb+uwQYNgEYAGDAyuVTh+Iv3PFuOhof1rIk5Uua/HreVvBygMczFgJYKwEYAGCgSvw9cbIQ7qgq/t5WxkLk1/a6nlcFPIKxEMBaCMAAAAMk/sJc1cbf22KX8uPk+/77hSblsRCT6Wh8YPuAVRGAAQAGRvyFuZqIv9dilzbKJXHGQkCbzstpYGMhgKUTgAEABkT8hbmair+3GQsBzTsqIfirrQSW5YWVBQAYBvEXZuRHsf+31fibldOD+b/tjxW8HODxdkMIF7FL+9YOWBYngAEABiB2aa88Li7+wt9y/N2ejsZnfVmPMhYix+w3Fbwc4PHyWIi9Pv1eAuogAAMA9FyJv5/tM9zoXfy9LXZpp3zhYywEtOlTuSjOWAhgIQRgAIAeE39hRq/j77XYpVd5rmgI4UMdrwh4pKsyG7jZETVAPQRgAICeEn9hxiDi721l9veBsRDQrNMSgo2FAJ5MAAYA6CHxF2YMLv7eZg44NM9YCODJXlg6AIB+EX9hRr5YaWvIJ+jKY+QbJSIB7XkfQjgrM74BHsUJYACAHoldypFn157CjfNy8tepucJYCGheHguxNx2NL2wl8BACMABAT4i/MEP8vUfsUr4kbmIsBDTrY/4yx+844FcEYACAHhB/YYb4+wCxS6/KaWC/P6BNl+WSuGP7B/yMAAwA0DjxF2aIv48Uu7RdQvBmUy8cuPalhGBjIYAZAjAAQMPEX5gh/j6DsRDQtKsyEmJiG4HbBGAAgAaVx7Zz/H1r/+DGUTkBJ/4+g98v0LzLckncia0EggAMANCeEmdOPKoNdxxNR+M9S7I4ZSxEDsGv+/IzwcAYCwF8JwADADRE/IW5xN8lil3Kj5PvGwsBTcpjISbT0fjA9sFwCcAAAI0Qf2Eu8XcFYpc2yiVxxkJAm87LaWBjIWCABGAAgAaIvzCX+LtixkJA88xKhwF6YdMBAOom/sJc4u8alNODWyGEj4P74aEfdkMIF7FL+/YThsMJYACAisUu5dBy7LQd3PFuOhofWpL1KmMh8j68GfI6QMPyWIi96Wh8ZhOh3wRgAIBKlfh74uIluEP8rUzs0k6ZD+yLKmjTp3JRnLEQ0FMCMABAhcRfmEv8rVQZVZMfKf8w9LWARl2V2cB+x0IPCcAAAJURf2Eu8bcB5ffXgbEQ0KzTEoKNhYAeEYABACoi/sJc4m9jYpf2Sgj2uwzaZCwE9MgLmwkAUAfxF2Zcib9tKnu2USIS0J73IYSLMuMbaJwTwAAAFSin5T7bC7iR4++2x5DbZywENC+PhdibjsYXthLaJAADAKyZ+AszxN8eil3Kl8RNPOUAzfqYv8wxFgLaIwADAKyR+AszxN8ei116VU4D7w59LaBRl+WSuGMbCO0QgAEA1kT8hRni70DELm2XELw59LWARhkLAQ0RgAEA1kD8hRni7wAZCwFNuyojISa2EeomAAMArFgJHn9Yd7iRHyneEX+HqYyFOAwhvB36WkCjLstp4BMbCHUSgAEAVih26dDsS7jjvJz8danQwJWxEPl35OuhrwU06kuZD2wsBFRGAAYAWBHxF2aIv8yIXcqPk+8bCwFNMhYCKiQAAwCsgPgLM8Rffip2aaNcEmcsBLTpvJwGNhYCKiAAAwAsmfgLM8RfHsRYCGjeUQnBft/DGr2w+AAAyyP+wgzxlwcrpwe3QggfrRo0Kb8HuigX4AJr4gQwAMASuNUe5vpSbooXf3m0MhYi/159Y/WgScZCwJoIwAAAC1bib/5ws2lt4cbRdDTesxw8V+zSTpkPbCwEtOlTCGHiy0BYHQEYAGCBxF+YS/xlocrv2vxI+QcrC026KqeBD20fLJ8ADACwIOIvzCX+sjTGQkDzTksIPrOVsDwCMADAAoi/MJf4y0rELu2VsRAvrTg0yVgIWCIBGADgmcRfmEv8ZaXK7+JJCOG9lYcmXZWLQo9tHyyWAAwA8AyxS1shhGOXEcEdH6ej8cSSsA7l9/KBsRDQrNMSgi9sISyGAAwA8EQlMpx45BjueOdSH2pgLAQ072P+b9hYCHg+ARgA4AnEX5hL/KUqZSxEjsC7dgaadFkuiTMWAp5BAAYAeCTxF+YSf6lW7NJ2CcFmtUObjIWAZxCAAQAeQfyFucRfmhC7tF8uivM7HNpkxjw8gQAMAPBA4i/MJf7SFGMhoHmX5TTwia2EhxGAAQAeoFwm9NlawY2rEMKOD+C0qoyFyF9evLaJ0KQvZT6wsRDwCwIwAMAviL8wI8ff7elofGZpaF3sUn6cfN/THdCk/PfowFgIuJ8ADABwD/EXZoi/9E7s0kYZC/HW7kKTjIWAewjAAAA/If7CDPGXXjMWApp3VMZCfLWV8A8BGABgDvEXZoi/DEYZC/HBjkOT8t+ryXQ0PrB98DcBGADgB7FLeRbkH9YFboi/DE4ZC5FPA7+x+9Ck83Ia2FgIBk8ABgC4JXYpf9jftSZwI3+A3nHLOkMVu7RT5gMbCwFtMhaCwROAAQAK8RdmnJeTvz40M2ixS69yQDIWApp1VSLwoS1kiARgAADxF+YRf+EHxkJA805LCDbSiEERgAGAwRN/YYb4C/coF4XmsRAvrRM06VO5KM7fOQbhhW0GAIZM/IUZ4i/8QnmMfKNEJKA970MIF+XLHOg9J4ABgEEq8xzzB/i3/gXADfEXHil2aaucBjYWAtqUx0LsueyUPhOAAYDBKfH3JISwaffhxtF0NHYSCp7IWAho3sf837AvQekjARgAGBTxF+YSf2EByt+YA6OFoFmX5ZK4Y1tInwjAAMBgiL8wl/gLCxa7tF1CsL830CZjIegVARgAGATxF+YSf2GJYpf2QwgTYyGgWR+no/HE9tE6ARgA6D3xF+YSf2EFjIWA5l2W08AntpJWCcAAQK+V29lPnL6COz5NR+N9SwKrU8ZCHIYQXlt2aNKXMh/YWAiaIwADAL0l/sJc76aj8aGlgfWIXcqPk+/72wRNuson+o2FoDUCMADQS+IvzCX+QgVilzbKWIi39gOaZCwETRGAAYDeEX9hLvEXKmMsBDTvqIyF+GorqZkADAD0ivgLc4m/ULEyFuKDPYIm5bEQk+lofGD7qJUADAD0RjlJdSz+wh3iLzSgjIXI/62+sV/QpPNyGthYCKojAAMAvRC7tBdC+Gw34cZV+SAq/kJDYpd2ynxgYyGgTcZCUB0BGABonvgLM3L83Z6OxmeWBtoTu/QqByRjIaBZxkJQFQEYAGia+AszxF/oCWMhoHmn5TSwv8mslQAMADRL/IUZ4i/0UPl7d2DGPTTrUzkRbCwEa/HCsgMALRJ/YYb4Cz1VZnlvlIgEtOd9COGivH+FlXMCGABoTuzSxFxEuEP8hYGIXdoqp4GNhYA2GQvBygnAAEBTYpfyKahduwY3zkMIez5IwrAYCwHN+5j/GzYWglUQgAGAZoi/MOO8nPz14REGKHbpVYnA/jZCmy7LaeBj+8cyCcAAQBPEX5gh/gLfxS5tlxC8aUWgSaflaZ4L28cyCMAAQPXEX5gh/gIzYpf2QwgTYyGgWcZCsBQCMABQNfEXZoi/wE8ZCwHNuyyngU9sJYsiAAMAVSofYI/dcg53iL/Ag5SxEPlL1NdWDJr0pcwHNhaCZxOAAYDqlPh7YpYh3PGlnAgSf4EHi13KIyH2jYWAJl3lsS7T0fjA9vEcAjAAUBXxF+Y6mo7Ge5YGeIrYpY0yFuKtBYQmnZcvgc9sH08hAAMA1RB/YS7xF1gIYyGgeZ/KiWBPA/EoAjAAUAXxF+YSf4GFK2MhPlhZaNJlmQ18bPt4KAEYAFg78RfmEn+BpSljIQ5dtgrNcjcADyYAAwBrFbu0VeKvy2ngH+IvsBKxSztlPrCxENAel8TxIAIwALA24i/M9X8+yAGrVJ7E2TcWApp1Wk4DX9hC5hGAAYC1EH9hrnfT0fjQ0gDrYCwENM1pYH5KAAYAVk78hbnEX6AKsUt7ZSyEv9PQHqeBmfHCkgAAqyT+wlziL1CN8vsonwb+ZFegOfkE/1ns0r6t45oTwADAysQubYcQjsVfuEP8BapVvrg9MBYCmuQ0MN8JwADASpTHST9bbbhD/AWaYCwENMtsYARgAGD5xF+YkT+MbU9H4zNLA7QidulVicC7Ng2a4zTwgAnAAMBSib8wQ/wFmlZGOuUQvGknoSlOAw+UAAwALI34CzPEX6A3yiVTE2MhoDlfymngr7ZuGARgAGApxF+YIf4CvWMsBDTrqkTgY1vYfwIwALBwsUv5NNAHKws3xF+g18pYiHyp5Ws7DU35VMZCOA3cYwIwALBQsUuHTgHBHeIvMBjlS+B9YyGgKZchhB3vVfrrxdAXAABYHPEXZpyHEDZ8oAKGYjoa5wC8VWaMAm3IJ/f/Kl/g0ENOAAMACyH+wozzcvLXI5XAIBkLAU06LbOBL2xffwjAAMCzib8wQ/wFKNwNAM1xQVzPCMAAwLOIvzBD/AX4QezSRjkN/MbaQDM+TUfjfdvVPgEYAHiS2KVXIYRjH+TgDvEX4B6xSzshhANjIaAZ5+U0sPsMGuYSOADg0Ur8PRF/4Y5T8RfgfuWR8nxJ3EdLBU3YzO/7Y5f2bFe7nAAGAB7lVvzdtHJw42g6GvtgBPAIxkJAc45CCPu+7G6PAAwAPJj4C3OJvwDPUE4W5rEQL60jVM9IiAYZAQEAPIj4C3OJvwDPNB2N8yngfBr4k7WE6l2PhNixVe1wAhgA+CXxF+YSfwEWLHZpq5wGNhYC6vdpOhrv26f6CcAAwL3KB7ETj2XCHeIvwBIZCwHNOHcJbv2MgAAAfkr8hbk+ib8Ay3VrLMSRpYaq5ScEL2KXtm1TvZwABgDmEn9hrnclSgCwIiUsHRhFBdX7v+lofGCb6iMAAwAzxF+YS/wFWKPYpTxrdOL9CVQtn9rfNxKiLgIwAHCH+Atzib8AFSgX0+YThrv2A6qV5wLvTEfjC1tUBwEYALgRu7QTQjgUf+EO8RegMmUsRP7d/NreQJWuSgQ+sT3rJwADAN+V27Y/Ww24Q/wFqFjsUh4Jse/La6iW91IVEIABAPEXZuVTK3vT0fjY2gDULXZpo4yFeGuroEpH09F4z9asjwAMAAMn/sKMHH+3p6PxmaUBaIexEFC18/L+yuVwayAAA8CAib8wQ/wFaFwZC/HBPkJ1LstcYO+zVkwABoCBEn9hhvgL0BNlLEQ+DfzGnkJVjNlaAwEYAAYodinPyXtv7+GG+AvQQ7FLO2U+sLEQUBeXw62QAAwAAxO7lN9o7dp3uCH+AvRY7NKrEMK+sRBQHZfDrYgADAADIv7CjPMyi+7C0gD0m7EQUKUvZSSEy+GWSAAGgIEQf2GG26gBBqjcg5DHQry0/1AF78mW7EWvfzoA4DvxF2b4oAEwUGXuaD4N/Mm/AajCZgjhLHZpy3YshxPAANBz4i/MEH8B+K4EpwNjIaAK7mVYEgEYAHqqXHhyUr5RB/4m/gIww1gIqEaOwPvlpD4LIgADQA+JvzCX+AvAT5X3TweenIIqvBOBF0cABoCeEX9hrqNymkT8BeBesUvbJQR7LwXr9XE6Gk/swfMJwADQI+IvzHU0HY33LA0AjxG7tB9CmBgLAWvlfdwCCMAA0BPiL8zlQwMAT2YsBFTB+7lnEoABoAdilzZCCMfiL9zhwwIAC1HGQuR5pK+tKKzFaQhhxzivpxGAAaBxsUtb5eSvxxPhH+IvAAsXu5RHQux73wVr4ULfJxKAAaBh4i/MJf4CsDTlyas8FuKtVYaVE4GfQAAGgEaJvzDXu+lofGhpAFg2YyFgbUTgRxKAAaBB4i/MJf4CsHJlLMQHKw8rJQI/ggAMAI0Rf2Eu8ReAtSljIfLfoTd2AVbmqkTgM0t+PwEYABoSu7RTPlyIv/AP8ReAKpT3agfGQnWSwo0AACAASURBVMDKiMAP8KL6VwgAfBe7lC+1+rf4C3eIvwBUYzoaH4cQ8tNaH+0KrET+bHRSnpLkJ5wABoAGlPj72V7BHeIvANUyFgJWykngewjAAFA58RdmeIMPQDPKe7kDT3HB0nmP+BNGQABAxcRfmOGNPQBNKU+r5NPAn+wcLJVxED/hBDAAVEr8hRniLwBNK2HqwFgIWCrvGX8gAANAhWKX8geD9/YGbngjD0BvGAsBS3eZL2ScjsZfLbUREABQndilQ/EX7hB/AeiVW2MhjuwsLMXrMg7ileV1AhgAqlLi765dgRv59MaO+AtAX8UubZfTwJs2GRbuvBwkGPRJYAEYACoh/sIMb9gBGIzYpf0QwsRYCFi4wb+nFIABoALiL8wY/Bt1AIanPK5+4H0hLNyg31uaAQwAayb+wgzxF4BByn/7pqNxviDu9zIGCViMzfLlyiA5AQwAa1JOeJyY9wZ3iL8AUMQu5ZEQ+8ZCwMIclS9ZBkUABoA1EH9hLvEXAH4Qu7RRTi6+tTawEIOLwAIwAKyY+AtzfQkh7Im/ADBf7NJ2CCGPDnttieDZ3k1H48OhLKMADAArJP7CXIN8FA8AnqKMhfhg8eDZBhOBBWAAWBHxF+YSfwHgkcpYiByu3lg7eJZ/TUfjs74voQAMACtQ3qQfi79wh/gLAM8Qu7RT5gMbCwFPc1XuoOh1BBaAAWDJYpe2yslftzfDP8RfAFiA8pTZvrEQ8GQ5Am/0+S4KARgAlkj8hbnEXwBYMGMh4FnOy0ngXkbgFxW8BgDoJfEX5voo/gLA4k1H44vpaLydL7YqJxqBh9ssX6D0kgAMAEsg/sJc+abliaUBgOWZjsY5YuXTwJ8sMzzK29ilgz4umREQALBg4i/M9a58IAUAViR2abtcEuciYni43r1vFYABYIHKTcyH4i/cIf4CwBrFLk1cEgeP8q/paHzWlyUTgAFgQWKX8lzTz9YT7hB/AaAC5Sm1A5fEwYPkOdpbebZ2H5ZLAAaABRB/YS7xFwAqE7u0H0KYeGINfuk8hLA9HY2/tr5ULoEDgGcSf2FGPjHxu/gLAPWZjsb5FHA+DXxqe+Bem+XUfPOcAAaAZxB/YcZVOSnRm5lpANBXTgPDg/xf+eKkWQIwADyR+AszxF8AaEzs0ka5xNhsYPi5/HTbSavrIwADwBPELuVvgN9bO7gh/gJAw2KX8kngD/YQ5mr6UjgzgAHgkWKXDsVfuEP8BYDGTUfjHID/VS6+Au7KY1KOW10TJ4AB4BFK/N21ZnBD/AWAnvG0G/zU0XQ03mtteQRgAHgg8Rdm5BNCO60+CgcA/Fzs0nY58eiCOLjr3XQ0PmxpTQRgAHgA8RdmnJeTv18tDQD0U+zSq3JB3FtbDDeaewJOAAaAe5Q3vQfiL9wh/gLAgMQu7YcQ/rDncKOp98MugQOAnyjx90T8hTvEXwAYmOlofFAuiLu09/DdZjko1AQBGADmuBV/N60P3BB/AWCgyuPuWyGEL/4NwHe7sUs7LSyFERAA8APxF+YSfwGA74yEgBt5HvBW7ZciOwEMALeIvzDX0XQ03hJ/AYBgJATc9rJclFg1ARgACvEX5srxd8/SAAC33RoJcWphGLg3sUuTmpfACAgA+Dv+bpVvbsVf+If4CwD8UuxSPhH83koxcP8qX4xURwAGYPBK/D0pj+8AfxN/AYAHi13K7xsOvKdmwC7LPODqxqYZAQHAoIm/MJf4CwA8ynQ0zk/TbZsLzIC9DiFUOQrCCWAABkv8hbk+TUfjfUsDADxFuVfjOM9FtYAM1O/T0fikph9dAAZgkMRfmOtdOb0DAPAssUv5PcWuVWSAqhsFYQQEAIMj/sJc4i8AsDBlnNQ7K8oAVTcKQgAGYFDK5RTiL9wl/gIAC1feX/xvCOHK6jIw72OXtmv5kY2AAGAwSvz9bMfhDvEXAFgqT+AxUNWMgnACGIBBEH9hLvEXAFi66Wh8FkLYCCGcW20GpJpREE4AA9B74i/MyI9h7ou/AMAqxS69KieBNy08A/L7dDQ+WeePKwAD0GviL8zI8Xe7nMQBAFi52KX8JfSulWcgzqej8dY6f1QjIADoLfEXZoi/AMDaTUfj/D79yE4wEJuxS2sdBeEEMAC95FQBzBB/AYCqlCj2wa4wAFflQriLdfyoTgAD0DviL8wQfwGA6kxH4xyA39kZBuBlCOFgXT+mAAxAr4i/MEP8BQCqVS6lFYEZgrexSzvr+DkFYAB6Q/yFGefiLwBQOxGYAVnLKWABGIBeEH9hhvgLADRDBGYgXq/jQjiXwAHQtNilV+VbVPEX/nEdf79aEwCgJbFLeyGEzzaNHlv5hXBOAAPQrBJ/T8RfuEP8BQCa5SQwA5AvhFvpKWAngAFo0q34u2kH4Yb4CwD0gpPADMDv09H4ZBU/phPAADRH/IW5xF8AoDecBGYAVnYKWAAGoCniL8z1RfwFAPpGBKbn3pST7ktnBAQAzRB/Ya6j6Wi8kjeOAADrYBwEPXY5HY03lv3jOQEMQBNil7bEX5gh/gIAveckMD32OnZpf9k/nhPAAFTvVvx9abfghvgLAAxK7FIOwbt2nZ65CiFsLHOcmxPAAFRN/IW5xF8AYHDK+58jO0/P5M+6Sz0F7AQwANUSf2Eu8RcAGLTYpfwZ4c3Q14FeWeopYCeAAaiS+Atz/Z/4CwAQdkII55aBHlnqKWAngAGojvgLc70rF6AAAAxe7NKrEMKFzwz0SD4FvDUdjS8W/SM5AQxAVWKX9sRfmCH+AgDcUh6V3y7RDPogfwaeLOPncAIYgGqU+PvZjsAd4i8AwE/ELuVxEP+2PvTI/yz6FLATwABUQfyFucRfAIB7TEfj43xPgjWiRxZ+54cTwACsnfgLc4m/AAAPFLuU3zftWi96II812ShjThbCCWAA1kr8hRn5Dd+/xF8AgEfZDyGcWzJ64GX597wwTgADsDbiL8zI8Xd7OhqfWRoAgMeJXdoIIZy5UJoeWOgpYCeAAViL8oiW+Av/EH8BAJ6hXJy1Yw3pgYWeAhaAAVg587lghvgLALAA09H4JITw0VrSAwu7DE4ABmClxF+YIf4CACzQdDSehBBOrSmNe13GJj6bAAzAyoi/MEP8BQBYjp3yXgtatpAxEAIwACsh/sKM83Kxg/gLALBg5fIs84Bp3Wbs0vZzfwgBGIClil16Jf7CjPNy8ncht/oCADDLPGB64tmngH/79u2bfwwALEWOvyGE/KZr0wrDDfEXAGCFYpfOfCahcf8zHY0vnvojOAEMwFKIvzCX+AsAsHp75gHTuGedAhaAAVg48RfmEn8BANag3LkwsfY0bO85L10ABmChxF+Y61T8BQBYn+lofFDek0GLXsYuPTkC/5ctB2BRxF+Y62g6Gj/rG3sAABYivyfLp4FfWk4alP/9Hj7lZTsBDMBCxC5tlTdT4i/8Q/wFAKhEuUTLKAha9SZ2aeMpr10ABuDZSvzNJ39fW024If4CAFSmjII4ty806kmXwQnAADzLrfjrMSr4h/gLAFAv79No1ZP+7QrAADyZ+Atzib8AABWbjsZ5dN0ne0SD8mVwO4992QIwAE8i/sJcn8RfAIAm5FnAV7aKBj3688Zv3759s9EAPIr4C3O9m47GT7qVFwCA1YtdyiHts6WnQf89HY2/PvRlOwEMwKOUN0l/ib9wh/gLANCY8v7t1L7RoEeNgRCAAXgw35DDXOIvAEC7JvaOBu0/5iULwAA8iPgLc4m/AAANm47GebTdkT2kMZuxSxsPfckCMAC/JP7CXOIvAEA/OAVMix48BkIABuBe4i/MyLdF/6/4CwDQD9PR+CKE8NF20pi9h75cARiAn4pd2hd/4Y4cf7eno/GxZQEA6JWD8l4PWvHgMRACMABzxS7l041/WB24cR1/zywJAEC/TEfjryUCQ0seNAZCAAZgRom/u1YGboi/AAD95xQwrRGAAXg88RdmiL8AAAPgFDANehO79OpXL1sABuCG+AtzvczfrD/kjRUAAM1zCpjW/PIUsAAMwHfiL9zrQwjhLHbpQY9YAQDQpnIK+ND20ZDtX73U3759+2ZDAQasnGrMb3De+ncAD/IlhLA/HY0vLBcAQP/ELm2EEP5ja2nE1XQ0vvdpRSeAAQasxN8T8Rce5W05DTyxbAAA/VO+6D+ytTTiZezSvaeABWCAgboVfzf9G4BHy3OBP8QuXfzqzRYAAE1yGRwtEYABuEv8hYV5HUL4M3bpuDwqCABAD0xH47MQwqm9pBH33lUiAAMMjPgLS3E9FmLf8gIA9IbL4GjFZvmsP5cADDAg4i8sVR4L8Ufs0pmxEAAA7ZuOxjkAX9lKGvHTzyACMMBAxC5t5ROK4i8s3WYZC3F437fwAAA0wSlgWiEAAwxZib8nZV4psBq7IYQLYyEAAJrmMjha8dMA/Nu3b9/sIkCP3Yq/L+0zrM15CGGvXCYCAEBD8ogvT1LSiP+ejsZff3ypTgAD9Jj4C9XIHxj+il06MBYCAKA5TgHTirmngAVggJ4Sf6FK78tYiD3bAwDQjGNbRSMEYIChEH+havm/y8+xSyflv1UAACpWHqn/Yo9owNzPFwIwQM+Uk4V/ib9QvTfGQgAANMMpYFrwZt5rFIABeqTE38/2FJqSx0KcxS7t2DYAgGoJwDQhdmlmDIQADNAT4i807XUI4d9lLMSGrQQAqIsxEDRkZgyEAAzQA+Iv9EZ+ZOs/sUsTYyEAAKpzYktogAAM0DfiL/TSB2MhAACqYwwELZgJwL99+/bNzgE0KnZpP4Twh/2DXsuPGu5PR+ML2wwAsF6xS2chhE3bQM2mo/Fvt1+eE8AAjYpdOhR/YRDeltPAE9sNALB2xkBQvR8vghOAARpU4u+uvYPBeJnHQsQuXcy71RcAgJURgGnBnYulBWCAxoi/MGivQwh/xi4dxy5tDH0xAADWQACmBQIwQKvEX6C4Hguxb0EAAFZnOhp/DSGcW3IqZwQEQIvEX+AHeSzEH/kiEmMhAABWyilgaucEMEBLYpde5ce9xV/gJzbLWIjD/PvCIgEALJ0ATO1e3359AjBAxUrMOSmPewPcJ39JdGEsBADA0p1ZYmp3+ylBARigUrfi76Y9Ah7o9liILYsGALB409H4IoRwZWmp3M3TgQIwQIXEX+CZ8u+Ov2KXDoyFAABYCqeAqd3NgRABGKAy4i+wQO/LWIg9iwoAsFDmAFO7m4vgBGCAioi/wBLksRCfY5dOjIUAAFiYC0tJ5QRggNqUMHMm/gJL8sZYCACAhRGAqZ0ADFCTEn/zyd/XNgZYsjwWIl8St2OhAQCeZjoaGwFB7W76ggAMsGa34u9LewGsSH4z+O8yFmLDogMAPMmlZaNm10/+CcAAayT+AmuWx0L8J3ZpYiwEAMCjGQNB7b7fASIAA6yJ+AtU5IOxEAAAjyYA0wQBGGANYpe2xV+gMsZCAAA8jgBM7ZwABliH2KW9EMKf4i9QqTflNPDEBgEA3Our5aFyZgADrFqJv58tPFC5/AXVh9ili/LEAgAAs86sCS0QgAFWRPwFGpTHQvwZu3RsLAQAADTn+2EOARhgBcRfoHFvjYUAAJhhBARNEIABlkz8BXrieizEmbEQAAAhTEdjIyBoggAMsETltJz4C/TJZhkLcRi79MrOAgBAtVwCB7BMOY7k03IWGeip3RBCviRu3wYDAECV8uENARhgGUr83bW4QM/lsRB/GAsBAAD1EoABFkz8BQboeizEgbEQAABQFwEYYIHEX2Dg3pexEHtDXwgAAKiFAAywIOIvwHd5LMTn2KWT2KUtSwIA9Ny5DaZ2/2WHAJ6nPO58HEJ4YykBbuTfiX/FLn0KIUymo/FXSwMA9NCGTaV2v3379s0mATxRib8n1zdrAjDXVQhhbzoaH1seAKBPYpeENWr3LyMgAJ5I/AV4sDwW4t9lLIRTMgAAsDqvBGCAJxB/AZ4kj4X4T+zSpPweBQAAlkwABngk8Rfg2T6EEM5il3YsJQAALJcADPAI4i/Awrw2FgIAAJZPAAZ4oNilrRDChfgLsFBvymngiWUFAIDF++3bN5cVAvxKib8n5SIjAJbjMoSwNx2NT6wvAFC72KXtEMKfNorK/e4EMMAviL8AK5PHQvwZu3RsLAQAACyGAAxwD/EXYC3eGgsBAAALcSYAA/yE+AuwVvl374fYpbPyeCUAQG28R6F609H4qwAMMEeJDeIvwPptlrEQh7FLr+wHAAA8jgAM8IPYpb0yyF/8BajHbgjhInZp354AAJXYshG0QAAGuKXE38/WBKBK+Yu5P4yFAAAq4ekkmiAAAxTiL0AzrsdCHBgLAQCs0RuLTwsEYADxF6BV78tYiD07CACski+hacRlEIABxF+AxuWxEJ9jl05il8zhAwBWxfsOWnARBGBg6GKXJuIvQC/kRzD/MhYCAFgRAZhmCMDAYMUuHYYQPvgXANAr12MhdmwrALBEGxaXVgjAwCCV+Ltr9wF6KY+F+HcZC+HDGQCwDE4A04KzIAADQyT+AgxGHgvxnzzux1gIAGDB3lhQGvA1CMDA0Ii/AIOUx/2cGQsBACyCi2dpjQAMDIb4CzBor42FAAAWRACmFUZAAMOQH/vNH/jFXwDK45r5NPDEYgAAT7Rt4WiEERBA/5WZjyfmMwFwS74k7kPs0kXskg9wAMBjOQFMK74H4N++fftmx4BeuhV/N+0wAPf4EkLYn47GFxYJALhP+Zz5/ywSLZiOxr8FJ4CBvhJ/AXiEt8ZCAAAP5OkhWnF1/ToFYKB3xF8AnuB6LMSZsRAAwD12LA6NOLt+mQIw0CviLwDPlP9+/Bm7dFj+pgAA3OaLYlrx9fp1CsBAb8Qu5UH8F+IvAAuwm/+mxC7tW0wAIPzzmfO1xaARTgAD/VL+EJ+UR3gBYBHy35Q/jIUAAArvB2iJE8BAf4i/ACzZ9ViIA2MhAGDQzP+lJU4AA/0g/gKwQu/LWIg9iw4Aw1K+BH5j22nIxfVLFYCBZom/AKxB/pvzOXbppPwdAgCGwelfmjIdjQVgoG1lFqP4C8C65BNAfxkLAQCDIQDTktPbr1UABppTHr39U/wFoALXYyF8KASAnipf9r61vzTk4vZLFYCBppT4+9muAVCR/IXkv8tYiA0bAwC9Y/4/rRGAgTaJvwBULo+F+E/s0sRYCADoFQGY1pzcfr0CMNAE8RdmXIUQLi0LVOlDCOHMWAgAaF95umfTVtIYJ4CBtoi/MCPH33wR4lYI4ZPlgSq9NhYCAHph3zbSmKvpaCwAA+3Ij9GKv3DH9/g7HY3PpqPx1+lonN+Q/uvHW16Barwpp4EntgQAmmT8A605+/H1CsBAtWKXDstjtMDfbuLv7fUoMTifCH5X/jdAXfIlcR9ily5il7btDQC0oTyN+tJ20ZiTH1+uAAxUqcTfXbsDN+bG39umo3H+72bDWAioVh4L8Wfs0rGxEADQBKd/adHMZ8bfvn37ZieBqoi/MCNf9rZzX/z9UexSng986MIKqFb+UudgOhobDQEAFSpf1v7H3tCg//lxBrAADFRF/IUZ5+Xk79enLE3sUp4RPPHoGlQr/ze+Px2NZx7VAwDWx2dTGnU5HY1nnjQzAgKohj+wMONZ8Tf8PRbioIyFOLK8UKXNMhbiMHbplS0CgPUrf5N3bAUNmvvUqAAMrF3+4xq7dCb+wh3Pjr/X8v/HdDTO88t+L/+/QH3y38CLcmofAFivfU/Q0ai5T5UZAQGsVflm9cScUrhjYfF3HmMhoHrGQgDAmpTPqBfeK9Oo3+e9h3QCGFgb8RfmWmr8Df+MhciXxH2xBVCl67EQB8ZCAMDK7Yi/tOpnBwgEYGAtxF+Y68uy4++1fCvsdDTeKWMhLm0HVOl9GQuxZ3sAYGUmlppGnf7sZRsBAayc+AtzHZU5vWsRuzQx6wyqdlrGQsy92AMAeL7ypetnS0mjPk5H47lfYDgBDKxU7NKG+Asz1hp//z97d3jctpWGCxi7sz8xs9kGYKUCKxVYrsBKBZYriFLAhWU0ELkCSxVEriByBZEqWAsN3Ggu/u+dk3x0KImWSYokgIPnmcnsbjaxpQOZJF585z3FXxPBJ2ohYNBeFEXxu1oIANgq07+M2VfPjzABDOxM3bX78YJkwhD+1nv4e1/dtakaIvUEPxvS1wV8cVsUxVFTVheWBAA2w/QvY9eU1T++9i2YAAZ2QvgLCw0u/C3++uBwEdPA7wbw5QAPpffSX+uuvYydNQDAE8TuGtO/jNmjOzkFwMDWCX9hoUGGvzPpILqohfj+scMEgF6lWoj/pg5vtRAA8CTHdr8xcl+tfyhUQADbJvyFhX5uyup0TEujFgIG7yYOiVMLAQAriIeon92zMnI/PHZYsAlgYGuEv7DQm7GFv8XdWoj3A/hygIeeqYUAgLWcuGdl5G4eC38LATCwLTEtKPyFu1L4ezbWNYlaiLQ97ge1EDBYqRbiKtVCuEQA8Lh4aPqTZWLkHq1/KATAwDbE6am/Cn/hjlGHv/PS0+WmrA7S91QUxe1wvjIgpPfft3XXfq679sCiAMBXZfH5nMn7ZgWYDmBgoyL8/WBV4Y5swt/75k5MNjkBw/Ux+oE/u0YA8Jd4SPqb5WDsmrL6x7e+BRPAwMYIf2GhbMPf4mEtxPUAviTgoVdqIQDgAdO/5ODjMt+DABjYCOEvPHAbJ7FO4oNl1EKkQ+J+VgsBgzSrhbhSCwHA1MVD0WdTXwey8M36h0IFBLAJwl94IAWgB986iTVXUQtxWhTFaz8aMFjnUQvxh0sEwJTEwW//ddHJxH+W+TxnAhh4krprT4W/cMekw9/i71qI9GDopVoIGKz0gCYdEnfsEgEwMaofyMX1sg/zTQADa6u79syEH9wx+fB3kQiYTmILOjA81zENfOnaAJAzu1fJzM9NWZ0u8y0JgIG1CH/hAeHvI6IW4iwOowKG6X16WKMWAoAcxefRz4YSyMj3TVl9XubbUQEBrEz4Cw/cCH8fF7UQh1ELcTPkrxUm7KeohTjyQwBAhs6Ev2TketnwtzABDKxK+AsPXEf4a2JuBXHy8rEP4TBYn6IWwoMtAEav7to0iPCrK0lGlq5/KATAwCqEv/CA8PcJ4gTmU7UQMGhqIQAYNdUPZGrp+odCAAwsI94w08Ewzy0YfCH83ZC6aw9iS96zLL4hyE/qOD9qyurCtQVgbOquTfeyL1w4MvIx6vWWpgMYeJTwFxYS/m5QU1bpNWa/KIp32XxTkJc0MfVruoGOyX0AGIW6a4+Fv2Ro5YfyJoCBrxL+wkLC3y2KcOnMB3UYtPSw5tTrIABDVnftftzPqn4gJ2ln1t6qn8MEwMBCwl9Y6GNsgxZ6bFkc1HGqFgIG6yYOiVMLAcDguJ8lY+dNWR2t+u2pgAAe8GYJC6U32kPh725EqKQWAobrmVoIAAbs1P0smVrr4bsJYOCOuIm78GYJd6z1lJXNiO17p2ohYLBuoxLixCUCoG9116bP7R9cCDJ005TVWg/eBcDAFzqSYCHh70DEh/lTr1EwWDdRk3PpEgHQB/e0ZO7dug/cVUAAf/JGCQsJfwekKat0OFx64v1+6msBA5VqIX6ru/ZCLQQAuxZVhmfuacnY2brfmgAYEP7CYsLfAUodzE1ZHRdF8UNRFJ+mvh4wUK+Koriqu1YlBAC7pPeXnH1syurzut+fCgiYOOEvLPRzU1anlmb46q5NYfCJ1zAYrOuiKI7VQgCwTfGZ8BeLTMZ+jIOy1yIAhgkT/sJCb6JqgJGI7X4psH/tmsFgnUcQ/IdLBMAm1V17kCqILCoZW/vwtxkVEDBRddceCn/hAeHvCEUtRKrreBnThsDwpAc0n2NCCwA2Ijrn156KhJF48j2qCWCYoDhJ/4NrD3cIfzOhFgIGTy0EAE8Wu8Au9f4yAd8/pf+3MAEM0yP8hYWEvxmJ/uY0DfJx6msBA5Vu1H+ru/Y0bt4BYB1nwl8m4Pyp4W8hAIZpEf7CQsLfDEUtxGHUQtxMfT1goH6KWogjFwiAVdRdmz6/v7JoTMBG7lVVQMBECH/hgduiKA6asrqyNPmruzZVQhyrhYDB+hS1EF6TAXiUe1sm5FNTVgeb+HZNAMMEeIOEB4S/E9OUVQqA99VCwGC9KIrid7UQADzGvS0Ts7GdqiaAIXPpRiq2WAJ/Ef5OXN21B/Fh6tnU1wIGKr1OHzVl5VR3AL6ou3Y/Dn2zo4spuGnKam9T36cJYMhY9CIJf+Fvwl/SNPBlTAO/sxowSOnG/te6ay/rrt3YjQ8A4yX8ZYJON/ktmwCGTEX4+9r1hS+EvzwQ4dJZbD8Hhik9rDlNhzu6PgDTE9VAV3ZvMSHp3nVvk599BMCQIeEvPCD85VF11x7GU3Y3FjBMN3FInFoIgAmJ8DdN/j533ZmQd3GGycYIgCEzwl944DrCX5NjPCpuMI6LonhrpWCwPkU/8GeXCCBvwl8m7D+bvn8VAENGhL/wgPCXlUXH3KlaCBi0jU/GADAcwl8m7Lwpq6NNf/sCYMiAN0dYSPjLk9RdexRBsMNGYJhuYhr40vUByIvhJibs+23sdBIAw8gJf2Eh4S8bEa+xacrwJysKg/Ux+oHVQgBkQPjLhG1l+rcQAMO4CX9hIeEvG6cWAgYvHfZ5qhYCYNyEv0zcVqZ/CwEwjJfwFxZKhwMdCn/Zlrprj2MiWC0EDJNaCICREv4ycVub/i0EwDBOwl9YaKtvmDATr8GnblBg0M6jFsIDQYAREP7C9qZ/CwEwjE/dtXtFUVwIf+EO4S87V3ftQQTBXo9hmFItxElTVqeuD8BwCX9h+/ezAmAYkeigvLT1GO4Q/tIrtRAweNcxDawWAmBghL/wp61O/xYCYBgP4S8sJPxlEKIWIt3AvHJFYLDUQgAMhM9O8MVO7mkFwDACwl9YSPjL4EQtRLqZeebqwCDdRgh85vIA9MOZNnDH1qd/0SNcogAAIABJREFUCwEwDJ/wFxZ615TViaVhqOquTT+fx167YbA+RRB85RIB7I7wF+7Y2X2tABgGTPgLC70xucUYxKGdp7Y2wqC9j4Pi1EIAbJnwF+5Iu5L2dvUZRAAMA1V37VEEB8Jf+Jvwl9FRCwGDpxYCYMsMN8EDO93VKgCGAYrw94NrA3cIfxmtmHhJlRBvXUUYrFQLcbSLHj6AKRH+wgM3RVHs73IHkgAYBkb4CwsJf8lC1EKkn+UXrigM1ru0C0stBMDT2dkKC+38/lYADAMi/IWFhL9kp+7aw7gZUgsBw3QTtRAXrg/AetzfwkLXTVnt73ppBMAwEN4c4YHUyXjYlNWlpSFHaiFgFNRCAKyh7tr0oPsnawcPvOzjHlcADAMg/IUHUvh70JTVlaUhd2ohYBR2elALwFjFA+4U/r52EeGBj01ZHfaxLAJg6FndtWfeHOEO4S+TpCMPBu8mpoHtTAFYIMLf9Br53PrAQt/3tatIAAw9Ev7CA8JfJi1unE5smYRB+xj9wGohAELdtfsR/nqQDYv1uptIAAw9Ef7CA8JfCHETdaoWAgYrvWedqoUAsIsJlpB2Ee03ZfVHX4slAIYeCH/hAeEvLOCGCgZPLQQwaXXXnjjQFr7px6asLvpcJgEw7JjwFx64jvC3t6ehMGQOU4FROI9aCO9lwCTE55N0b/vKFYdHfWrK6qDvJRIAw464gYeFhL+wpLprD+J9xMEqMExpN8tJU1anrg+Qs6iqOvOZBJbS28Fv8wTAsANOQ4WFhL+whrprj+OgOLUQMEzXMQ2sFgLIjnoqWEmvB7/NEwDDlgl/YSHhLzyBXSUwCmohgKzUXZs+e/zkqsJSej/4bZ4AGLZI+AsLCX9hQ6IWIm3BfGZNYZBuIwQ+c3mAsaq7dq8oigv3tbCSl0PaDSQAhi0R/sJCn4qiOBT+wmbFCdzHtmPCYH2KIPjKJQLGpO7aw3jY7DMGLO9jU1aHQ1ovATBsgfAXFjpvyurI0sB2xHTOqdO4YdDex0FxHoQCg6fyAdaSdv/sDe29XgAMG+ZEVFhI+As7ohYCBk8tBDBoKh/gSX5uyup0aEsoAIYNivD30vYYuEP4Cz2IWoi31h4GK9VCHDVl9dklAoai7tqj2FHknhZW96kpq4MhrpsAGDZE+AsLCX+hRzHBk6YMX7gOMFjvUtiiFgLoU9QYnqmSgrWlHT77Q32wKwCGDRD+wkLCXxiIOMDlVC0EDNZN1EJcuETArkV91IX7WXiSQVY/zAiA4YmEv7DQu6asTiwNDEdM9hyrhYBBUwsB7Ex8Njhx0Bs82WCrH2YEwPAEwl9Y6I2DbWC41ELAKHiQCmyVQ2NhYwZd/TAjAIY1KceHhYS/MBLex2DwbmIa+NKlAjbF1C9s3KCrH2YEwLCGuGn+YO3gDuEvjIybQBiFj9EPrBYCeBJTv7Bxg69+mBEAw4qEv7CQ8BdGLCqNTtVCwGCl7aWnaiGAdXjgC1uR3pv3mrL6YwzLKwCGFQh/YSHhL2RCLQQMnloIYCV11x7G1K/3dtisH5uyuhjLmgqAYUnCX3ggPfE8dBMKeYkpoRQCv3ZpYbDOoxZiFFNHwO459BW26rwpq6MxLbEAGJYg/IUHUvh70JTVlaWBPEVPYAqCn7vEMEjpvfhkDAfPALtVd22qezg29QtbkXbj7I/tIawAGL6h7tozU1Bwh/AXJqTu2uPoDXQTCcN0HdPAduTAxDnkDXbihzHeCwuA4RHCX3hA+AsTpBYCRuFjBMGfXS6Ylqh7SO/Tr1x62Kp3Yz2QVQAMXyH8hQeEvzBxJotgFN6lIEg/MOQvHtAeq3uAnfjUlNXBWJdaAAwLCH/hAeEv8IVuQRi825gGPnOpIE9xTs2Jh7KwE+l9dW/MD1cFwHCP8BceuI7w1yQR8IXtpjAK6aCaI/3AkI/YjZOC3xcuK+zMy7G/lwqAIeg3hIWEv8Cj1ELAKHxKgZEgGMbLg1fozfumrI7HvvwCYPg7/E0fiJ9bD/hC+AssLWoh3loxGDQHxcHIRPB7YlAJejHq3t95AmAmT/gLCwl/gZXFTeqZbakweOcxESwIhoFywBv0bvS9v/MEwEya8BcWEv4CT1J37WFsU1ULAcMmCIaBEfzCYIy+93eeAJjJEv7CQqkj8FD4CzzV3A2sWggYPkEw9EzwC4Pyrimrk5wuiQCYSRL+wkLnTVkdWRpgk9RCwKgIgmHHBL8wOB+bsjrM7bIIgJmcumv340ZU+At/E/4CW1V37VHUQri5heETBMOWCX5hkLKtQxQAMykR/l56g4U7hL/ATsTNbtpO95MVh1H4FEFwNh2I0LfYGZPeCw/dl8Kg3Eb4e5XjZREAMxnCX1hI+AvsXLwnn6qFgNFIQfBZU1ZnLhmsJ9770rTva0sIg/RjU1YXuV4aATCTIPyFhYS/QK/UQsDo3MSf2TMHxsJy6q49jODXQ08YruwOfbtPAEz2hL+wUPZvcMA4qIWAUbqNMzVO9QTDQ/Hedhjvb88sEQxaloe+3ScAJmvCX1jojS2cwNDUXXsQk4UOaYVx+RgTwdlum4VlRb9vmvY9cg8Ko5DtoW/3CYDJlm2lsJDwFxi0umuPY2LK+zeMi3oIJkvNA4xS2s2yP5WdLAJgshTh7wdXF+4Q/gKjEFtnTx2UA6N1HkHwpUtIrmLa9yj+UvMA4/NDU1ZXU7luAmCyI/yFhYS/wOiohYDRu4mu4DNdweQi7jePTPvCqE3u/lgATFaEv7CQ8BcYtbprT2JrrVoIGK9PEQZfqIhgbOJsmeM42M17EYzb+6asjqd2DQXAZEP4Cw+kTqND2y+BHMRW2zQN/MoFhVFLn08uIgh2cByDpeIBsnTelNXRFC+tAJgsxIExv7ia8MVtnGY6mU4jYBqiFuLMzThk4XauIsJnFnoXoe9hhL7qhyAv13GPPMldKAJgRq/u2jOHxMAdwl8ge2ohIDs3MRksDGanhL4wCZMOfwsBMGMn/IUHhL/AZMRN+5mDeCA7KQy+VBPBtgh9YVImf49cCIAZM+EvPOCNDZikumsPox9YLQTkZ9YZfOkAOZ4iDnJLge+B0BcmY/L3yLFr7lIAzCgJf+GByb+xAdNWd+13UQnxduprAZn7NAuEfe7hMfG+cBiB76HKIJikN01ZpfxokuLB1+9FUbwUADM6wl94YPJ9RgAzaiFgUmZVEaaD+VMcFDoLfE35wrRNPfxND8GuYoecAJjxiB/e9If3lcsGXwh/ARaIWogzE18wKddzgfClz0f5i+m2g7m/vOYDyfumrI6nvBL3hicFwIxDhL+XnuLCHcJfgEfE54fUe/aTdYJJmg+Er5qy+uzHYNzmJnxnwa/AF7jvvCmroymvSgxC/Dr3twTADJ/wFxYS/gIsKSbETtVCwOTNKiOuIhC+nPqCDFlU+uzPBb5ew4FvEf7+9dp5de8BmQCYYRP+wkLCX4A11F17FEGwiTFg5tMsEI5Q2MFyPZgLe+cDX6/VwCrcJ//1enq54IGZAJjhEv7CQukm5XDqb2oA61ILASzhOgLhz3E/8ll9xOZEjcN84CvsBZ5K+PvX62v6jPt2wf8lAGaYhL+w0OS3swBsSgQQpz5rACv4FKHwLBj+w8TwYjHROwt5v4up3r04jR5gk4S/f3+2/e0r/7cAmOGJnr4LHw7gDuEvwBbUXXscE8Gmz4B13cwFw/N/ZRsQzwW8382FvLP/9GAN2JX0+rsv/P1ziPLzI59nBcAMS4S/l27C4A7hL8AWxYfmNA382joDW5Im1P6Iv2ah8Px/L6KDuLcQI6bHZmYBb3Hvv6trAIbiNiZ/J78T4yu9v/MEwAyH8BcWEv4C7IhaCGBgbu8FxF9zee/vzyZxH6OOARgz4W94pPd3ngCYYRD+wkLCX4AexAfpY59LAAAGR/gbvtH7O+8/AmB6J/yFhd43ZXVsaQD6Ef2WaRr4lUsAADAIwt+wRO/vF01Z/eOfu/zi4D7hLyz0RvgL0K+mrD43ZXWYtszFASMAAPRH+HvXSlmaAJje1F2btrb/LvyFO1L4e2ZJAIahKavLpqzSNPC7uPEAAGC3hL9z6q5d+cwKATC9iPD3g9WHO4S/AAPVlNVJHKz0yTUCANgZ4e+cyNN+WvXfEwCzc8JfWEj4CzBwUQuRDtv4US0EAMBOHAl//xI1qqcr/mvXhQCYXRP+wkLCX4ARacrqIqaB37luAABb8yY+d01eHPp2sUaN6h+FAJhdEv7CA2kry4/CX4Dxacrqj6iF+F4tBADAxhmUuiuFv8/W/ZcFwOxE3bXHwl+4Y9Zj5GkmwIjdq4VwSBwAwNMJf+fEoW8v1vzXTQCzG3XXpj+0v1hu+EKJPUBm4oHeXlEU711bAIC1CX/nrHvo25w/cwcBMFsV4e9rqwxfCH8BMhW1EGnX0w9qIQAAVpLulX8Q/v5tzUPfFhIAszXCX3hA+AswAel1Pmoh3qiFAAD4JvfK9zzh0LeFBMBshfAXHvCGBjAxMcGiFgIA4OvcKy92+ZRD3+akX0cAzOYJf+GB66Io9r2hAUzPXC3Ey3g/AADgL8LfBSJXe77JX/Nfm/zFmLYYT08/pK+mvhYw5zre0P6wKADT1ZRVmr7Yr7s2hcEnm9rOBwAwUsLfBeKz4saHKv/xv//9b9O/JhMU4e/lpp9QwMgJfwF4ID43ndoxBQBMVLpXPmzK6rMfgL/VXXtUFMWHTf6aTVn9oxAAswnCX1hI+AvAo+quPYgg2GcoAGAq3CsvUHftfmRrG90lNguAdQDzJMJfWMgbGgDflGohmrJKH/bfxTZIAICcuVdeYC5b23RF2M3svwiAWZvwFxbyhgbASpqySp3AKQj+aOUAgEydpwff7pXv2mL4m3yp2HAIHGsR/sJC6Q3tyNIAsKrowDuMWoh0qO4ziwgAZMK98tdd7CJbMwHMyqKX5Er4C3d4QwPgyaIWYk8tBACQiZ/dKy9Wd2166P9ii7/F5ey/CIBZyVwptakU+JvwF4CNUgsBAGTgTVNWpy7kQ3XXps96r3f1+wmAWdq2TiSEkRP+ArAVqRaiKavDoih+nD/EAwBg4NIuph+asjpzoR6quzZlCG938FuZAGY1wl9YSPgLwNY1ZXUR08DvrDYAMHA3cTD6lQv1UJz38GFHv92XA/f+8b///W9HvydjJfyFhd43ZXVsaQDYpbpr9+KQuG32xQEArOM6wt8/rN5Du87XmrL6x+y/mwDmUcJfWOiN8BeAPkQtxIFaCABgYM6Fv1/XQ75253OiAJivik6S34W/cMcbPUYA9G2uFuK9iwEA9OxdqkcU/i5Wd+13sYNrl/na5/n/IQBmoQh/d9VJAmMh/AVgMNJNVuxI+aEoik+uDACwY7dxn3xi4ReL8DdN/j7f8W99p4NZAMwDwl9YSPgLwCClQ1aiFuJN3IgBAGzbbVQ+uE/+ih7D38IEMI8S/sJCwl8ABi/eq/bUQgAAW5YOe9tLD6Et9KNOewp/i/sTwP/43//+19PXwdAIf+GB9ETzKHoWAWA04qCRsx5vOgCAPJ2nvl/X9nF116bPYa97/BL+M9/JLADmT3XXpv64X6wGfDHbzuKJJgCjFZ/xThzqCwBsgN2xSxhA+HvblNV3839DBQSzH0zhL/xN+AtAFpqyOo1aiHNXFABYU7pH/kH4+2111572HP4W9+sfCgEwA3gqAUMj/AUgK2n7X2zVfBmdfQAAy9L3u6SoVv1pAF/K5f2/IQCeMOEvPCD8BSBbTVldNmWVuoF/jvc8AIDHvE+fHea7ZFlsYOdqmQDmL8JfeED4C8AkRC1ECoI/uuIAwALp/vjHpqyOLc63DSz8LRYFwA6BmyDhLzyQtrQcNmX12dIAMCV11x4URZE+Gz5z4QGAuD8+Mhy1nAGGvw8OgCsEwNNSd+138QH/1dTXAuZcx+SvLS0ATFbdtSdFUaQpn3/7KQCAyUqHxh67P17OAMPf5FNTVgf3/6YKiImI8PdS+At3CH8B4K9aiBO1EAAwWany4U06NNb98XIGGv4Wiw6AKwTA0zAX/j6f+lrAHOEvAMxJVUhNWR2mzr+iKG6sDQBMQro3Tge9nbncyxlw+FsIgCdK+AsLCX8B4CuasrqIaeB31ggAsva+Kat95+Esb+Dhb7HoALhCB3DehL+wkPAXAJZUd+1enCHxwpoBQDZu4yD0hdOiLBaH5/424OW5ToH+ov/jX7v/WtgF4S8sdJ46jSwNACwnJoIO6q5N1RCnRVE8s3QAMGqfIvw1FLWCumtTsHox8C/zq4G+CogMxQ/lZ+Ev3CH8BYA1zdVCvLeGADBKaer356as7IhdUeRsKVz998C/1K8GwCogMjOiH0rYJeEvAGxIfN48VQsBAKORqhCPmrJa2A/L140sZ/vP18J9AXBGhL+wkPAXALYgDkE59dkTAAbtXVNWJy7R6kaWs321/7dQAZEP4S8sJPwFgC1pyiodDrenFgIABummKIofhL/rGWHO9uiBfgLgDAh/YaH3wl8A2K60zbApq+N0gxnbSwGA/qWHs/sqH9ZTd+3BCHO2RwNgFRAjFz+UF8JfuONNTCUBADtUd20Kg098NgWAXtxE1++jYSBfFxVXH0a4RF/t/y1MAI9b/FD+5gM23CH8BYCeNGV1GrUQ564BAOzUbOpX+LumEYe/nx4Lf5N/7e5rYZNG/EMJ2yT8BYCexQ3IUd21Z3FI3HPXBAC2JlUwHQt+n2bkOds3r70KiBES/sJCwl8AGCC1EACwNe8c8vZ0GeRsP3yr71kAPDLCX1hI+AsAA1Z37V5MA79ynQDgyT7F1K9D3p4odiy9HvG3cNOU1d63/iEVECMi/IUHbqPg/sLSAMBwNWX1uSiKwzjAON1oPXO5AGBl6R74JDr3eaIMwt9imfqHwgTweNRdm0b63059HWBOeuM78MQTAMYnPtseq4UAgKV9jKnfz5bsaequ/S52Jo09/E1+XGYoTgA8Apk8kYBNEv4CwMiphQCApdzEzleHvG1AhL+XuRxS25TVP5b55/65/S+FpxD+wgPCXwDIQJpgasrqME2uxM0tAHDXu6Io9oW/m5Fb+BtT4UsRAA+Y8BceEP4CQGZi2+J+3OQCAH8d8vZ9U1ap7/cP6/F0ddemzxqfMwp/k6XPQ1IBMVDCX3hA+AsAmYtaiPQ5+IVrDcAE3UTPr4PONygOob3I8OyB/yz7gEAAPEDCX3jgOp0cruweAKah7trD6Ad+5pIDMAFp4Ok0Tfy62JtVd+1RURQfcvqewseo0lqKCogBSV0kdddeCn/hjuuY/BX+AsBEqIUAYELOo+dX+LthddeeZhr+FqvUPxQmgIcjwyJq2IRZ+KvzCAAmKjr7TtVCAJCZ1PN74oC3zYuM7TTzAcul6x8KAfAwCH9hIeEvAPBFbOE8zbC/D4BpuYng98x137yJZGwr1T8UKiD6J/yFhYS/AMAdcaOcDol7b2UAGKHU8/uuKas94e92xK6hzxPI2Fb++TEB3CPhLywk/AUAHhU3eGc+RwMwEu/ikDf3uVsyoZ1Ct01Zfbfqv/Sv7XwtfIvwFxY6b8rqyNIAAI9pyuoqHZhTd+1x2karFgKAgTqPugeHmm9R3bXps8DbbL/Bu1Y6/G3GBHAPYmLh0gdVuEP4CwCsrO7avZgGdkgcAEMh+N2BiRz2dt8P8SB8JQLgHRP+wkLCXwDgSequPYwg2OdsAPryKYLfS1dgu+IB8MXEdtbfpA7pdf5Fh8DtkPAXFhL+AgBP1pTVRRwS99FqArBjKfh92ZTVgfB3++quPSiK4mqCtaqn6/6LJoB3RPgLCwl/AYCNMw0MwI6Y+N2x6P//ZVLf9N++X7dWRAC8A8JfWOh9U1bHlgYA2IboBUwh8CsLDMCGCX53zPt68bEpq8N1/2UB8JbFWPqF8BfueNOU1ZklAQC2zTQwABsk+O1BDFaeTbDyYd6PUXe1FgHwFtVdm7a2f8j2G4T1CH8BgJ0yNQTAE52n/tWmrK4s5G55kPuntQ9/m/nXRr8cvhD+wkLCXwBg55qy+qMoisPoDTwxDQzAks5j4net3lWepu7adOjZT5Zx/cPfZkwAb4HwFxYS/gIAvau7di8q2qa8jRSAr7uNwO1M8NsP79UP/CceZq9NALxhwl9YSPgLAAyKqSIA7rmZC36fFLaxPpUPD5w3ZXX01F9EALxBwl94ID05PRb+AgBD5MBmAOJgtzP3rf2ruzbVNL2d+jrc88MmuqcFwBvihxQeSOHvgZJ8AGDI4oC4FAK/cKEAJsXBbgOh8uGrPjVldbCJX8ghcBtQd216SvR69N8IbI7wFwAYhdjme2CgA2ASbqJe4FTNwzCofHjUxqbSTQA/kfAXHhD+AgCjpBICIFtqHgZIH/+jbpqy2tvUL2YC+AmEv/CA8BcAGK2mrC7ntqGqhAAYt9u5ad/PruVw1F27H9dG5cPXnW7yFzMBvCbhLzwg/AUAsmEqCWC0TPsOWN21RxFu2m3zdSlf2dtkTYkAeA3CX3jguiiKI+EvAJATN6kAo2Had+Di0NV0jV5NfS2W8K4pq5NN/oIC4BU4IRgWuo7JXwX6AEB2Yptqugd45uoCDM7HmPa9cGmGKzr2z7yXLu0/m85YBMBLivD3Uj8J3CH8BQCyZxAEYFCuI0w8cy86fHXXpknWt1NfhxWcN2V1tOlfVAC8BOEvLCT8BQAmRRUcQG9u4kGcioeRcNDb2r7fxs+4APgbhL+wkPAXAJik6AX+4OoDbN3tXOjrvJkRqbv2uCiKEx36K9vK9G8hAH6c8BcWEv4CAJNWd+1hTDW5sQXYrFnoe6HXd3xUJj3ZVqZ/CwHw1wl/YaHzoiiOhb8AwNTF1tZLITDAkwl9M+Dh6JNtbfq3EAAv5sMcLLTVFyMAgLExNAKwtpt4/RT6jly8F6bg99XU1+KJtjb9WwiAHxL+wkLCXwCABWx3BVjadeQtZzp982Dqd2O2nrkIgOcIf2Eh4S8AwDfUXZtugF9bJ4A7Ps5N+m5tupHdMvW7cVud/i0EwH8T/sJCwl8AgCUJgQH+rnZI/+n8mPyY+t24neQuAmDhL3yN8BcAYEV11x4XRfGLdQMmZDble6naIV+mfrdm69O/hQD4zx/gg3gyJfyFv71pyurMegAArK7u2vQQ/YOlAzJ1PTfhe+ki5y/e105lZxv3vimr4138RpMOgH0wg4WEvwAAT+ReA8jI7PC2S7UO01J37V5M/TrodPNui6LY29Wfp8kGwD6QwULCXwCADXHPAYzUp7nA90rgO011154URXFs6ndr3jVldbKr32ySAbAPYrCQ8BcAYMPce7Cij/GPHwhd2JF0aNvVXNir0mHi4pyslA08n/pabFH6c7e/y4crkwuAfQCDhYS/AABb4h6EFaQtwQfpIK3Yer0ffx3EfwqFearZdO9VBL5bP3yKcYhD3tJE6k8u2dbtPIOZVADsgxc8kD5gHgt/AQC2y70IK/gSAt//V4TCrOB2FvLOhb0Pfqag+Ou15TCmfr2ebN91U1b7u/5NJxMA11176ikG3PHVD5YAAGyeEJgVLP1ZPab2ZoHwXvzlwKZpuVkQ9prs5Zsc8taLl31UrUwiAK67Nv0wvx7AlwJDIfwFAOiBEJgVXMdn9rU6IiPY2RMMZyX9TPwRFQ4p4P2ss5d1xIOjdMDbWwu4Ux+bsjrs4zfOPgAW/sIDwl8AgB4JgVnBk0LgReYmhmehcPrv3wmHB+Mmwt2rubD3D/dvbErUPaRd8s8s6s5939d0ftYBsPAXHhD+AgAMQN21JyavWNKnpqwOdrVYddfOfq/7/6lveDNmAe8fcyHvlZCXbau7dj+CXw97+vGuKauTvn7zbANg4S88IPwFABgQ9yys4Lwpq6MhLNhctUQxFxLP/729iU4WzoLdYi7YLWKCt4he3o1NcsOyYur/xLlYvUp5zF6frwFZBsA+SMEDaevYkfAXAGBY3Luwgl6nx9ZxLywu5uomvva/ix4D5NsIbu+737E7/78/O2yNIau79jjCX9P7/XrTlNVZn19BVgFwPNVIL8bPB/DlwFBsvDcMAIDNqbv2yj0MS+o9RBiC2Mp+Pzj+FhULTEZUuZzp+R2Endb4fE02AbDwFxYS/gIADJx7GVb0gyATWETP7yAN4jU7iwDYByZYSPgLADASsVX+yjZdlpCqCvZVDwAz8R5yolJocAZT3TP6AFj4CwsJfwEARiYmty6FwCzB531glomlnt+3VmNwbuJh3SBep/85gK9hbcJfWMiHQQCAEYotoseuHUt4Hv2ewASlPKzu2jRZ+ln4O1jHQ8plRhsAx3i78BfuOhf+AgCMVxzw9d4lZAmvIgACJqTu2qOoDHprx8hgfWzK6mJIX9woKyBsjYKFzpuyOrI0AADjV3dtunF85VKyhB+HFjQAmxfBb3ro88zyDlrqad8b2mDe6CaAhb+wkPAXACAvR9EfCN9yFjtkgQyl4Lfu2lT18EH4OwonQ9yVPaoJYOEvLCT8BQDIkPsfVuAcEMiMid9R+tSU1cEQv/DRTAD78AMLCX8BADLlUDhWkM7GObVgMH4mfkfrNnbvDNIoJoCFv7CQ8BcAYALqrk0Hw712rVnCmzhIEBgZE7+j93NTVoN9EDf4ALju2sPUaST8hTt8sAMAmIi6a7+LgZjnrjnfcBtVEFcWCsZB8JuFwVY/zPxrGF/GYvGH4MMQvzbokfAXAGBCUq9r3BvZFcm3/DsGqPatFAxXPNg7ipofwe+4Dbr6YWawE8DCX1hI+AsAMFF116ag4BfXnyW8b8pKfzQMTAS/x/GXB3p5GHT1w8wgA2DhLywk/AUAmLi6ay+Kong19XVgKS+bsrq0VNC/umv3oubhUPCblcFXP8z8cxhfxt+Ev7CQ8BcAgCK2md5aCZZwEdOGQE/qrj2Igzz/G4d5Cn/zMYrqh5lBBcDCX3jgVvgLAMBM6gMe0w0nvZqMLqGjAAAgAElEQVT1AQM7lvKtumvTBP5vEfySn6OmrD6P5bsaTAVE3bWpL+OnAXwpMBRO8AUAYCFVEKzAQAnsgIPdJuVjU1aHY/qGBxEAxzi8JyLwN+EvAABfFUHDZ9uJWUK6t9gf06QajIl+38m5idfUP8b0jfdeASH8hQeEvwAAPEoVBCtQBQFbMFfzoN93Wo7GFv4WfU8AC3/hAeEvAABLi/DhhRVjCT83ZXVqoWB9Me17FH+peZied01ZnYzxu+4tABb+wgPCXwAAVhJhxJXJM5agCgLWVHftYYS+uten67opq/2xfvf/6uM3Ff7CA9exjUD4CwDA0lKYFwdqv7VqfEN6SHAaPaXAN5j2Zc7t2F87dzoBHAcVpC1Kz3f2m8LwXcfk7+g6ZAAAGIa6az8LKFjSj01ZXVgsWMy0LwuM/nVzZwGw8BcWEv4CAPBkEVj8aiVZQppk23MPAn+ru3Z/btpXpQ7z3jdldTz2FdlJACz8hYWEvwAAbIwD4VhBFoEGPEVkVbPQV17FIqPu/Z239QBY+AsLCX8BANiomGD73aqypB+cQcIU1V17FH2uKh54TFYHZ241ABb+wkLCXwAAtsKB26wgm8k2+JaoyZn9peKBZWTVl761ADhOS7wQ/sId50VRHAt/AQDYhrgPuxJwsKQ3TVmdWSxypNeXJ3jXlNVJTgu4lQA4/pBd+gMGd5w3ZXVkSQAA2Ka6a9NN61uLzBIcCEdW5kLfNOn7zNVlDZ+asjrIbeH+telfUPgLCwl/AQDYldO068w9GUtIPyMn8fMCoyT0ZYNu4ucoOxudABb+wkLCXwAAdsoUMCv6PpeDjpgGnb5swW2c15Tl4ZgbmwAW/sJCH4W/AAD0wBQwq0g9wNlteSYfddd+F2HvgdCXLTnONfwtNjUBLPyFR2VXHg4AwPCZAmZFL5uyurRoDEUcajmb8n3hwrBF75uyyroK58kBcIzdnwl/4VGpR+bIByoAAHYlJub+rwVnSddNWe1bLPoUGdOBPl92KMtD3+57UgBcd23a2v5hW18cZOhjbCvQrwUAwNbVXZuGdV5baZb0pimrM4vFrsxN+aYA7pWFZ8euo/f3j9wXfu0AWPgLa0vF4qdqIQAA2LYIV/5roVnSTVNWexaLbYmdCQdzoa8pX/qS9aFv960VAAt/YSPUQgAAsHV1116YrGMFpoDZmLnAd/bXc6vLQPzYlNXFVC7GygGw8Bc27jxqIbLfcgAAwO7VXZtCl98sPUsyBczaBL6MxOQedK0UAAt/YWvS1oOTpqxOLTEAAJtWd+1nW61Zwc/uTViGwJcROm/K6mhqF27pALju2vTi/9PWvyKYtuuYBlYLAQDAxtRde1wUxS9WlCXdNmX1ncXivrpr9yPo3dfhywh9asrqYIoXbqkA2MmxsHNqIQAA2JiY0vu/VpQV6AKeuDhEcn8u7H0x9TVh1K7j0LdJ5izfDICFv9Cb2wiBfegCAODJ3NuxIl3AE7Ig7E3/+e+prwvZSPnKflNWn6d6SR8NgH1AgEH4FEHwlcsBAMC66q49LIriVwvICkwBZyhqHPaEvUxECn8PppqpxA6grwfAwl8YnPdxUJxaCAAA1uIwOFZkCnjEIviZhbx78ZcaB6bmx6asLqZ61eNMt4uFAbDwFwZLLQQAAGtzuDdrMAU8cFHfsBdB73dzVQ6mepm6Sb9+ze38eXknAI6nQ5dFUTzv9SsEviXVQhxNub8GAIDVxdbv3y0dK5jsqflDU3ft/YD3OxO98FXvmrI6meryRMb7OR4E/R0AC39hlN4VRXGqFgIAgGWpgWANL5uyurRw2zU3ybs319H7nWleWNl5U1ZHU162umtT7cWr+J8v/1UIf2HM3qZJ4Lprj6fcaQMAwEou1ECwoqPIDHiCmOAt5oLd+bDXQxnYDOHvX9UPr+b/3j/+z/+7Ef5CHtRCAADwTWogWNP37jXumjtkbWYW8M7/feEu7M51+nM45V3SsZPg6t6ugb8qINL0YFEUJ7YUQBYm3XMDAMC3qYFgDVneZ8yFuLNJ3Pvu9x+rY4Bhmnz4W/z1mna5oBv8QQdwOhH2dS9fIbBJNzENbJsWAAAP1F175t6PFd02ZfVdbosW03L/HcCXAqxP+PvX61ka8P1lwf/18p+z/5YWKToyXsbCAeOVpjl+S6Xf8YEGAADmOT+CVf277trsejWj1kIGAuN1WxTFofD3z3qnReHvn/55/2+kicGmrNK/9C4WERivVPp9VXetSggAAObZKcY6cj1YyQMRGKfbmPyddD95tDqcPfbPPAiAZ6LbJwXBH7f1BQI7kfqp3qaet7lTZwEAmLCYlDL1yKpeZLrDUAAM4zMLf69cuz/PdXv+2D/w1QC4iK0QTVkdRi3Ezca/PGCXZrUQZ/F0CACAaRN6sY7j3FYtAiSZB4yH8DfUXZty25++9c89GgDPRC3EnloIyEI67ONzlIMDADBdaiBYR641EP48wDgIf0PsyHi0+iH8sVQAPKMWArKRaiF+qbv2Si0EAMA0pUEfl541/DsmznLjzwOMw7Hw94uLyHceldZrpQC4uFsL8aMtEjB6z9VCAABMmh5g1pHjFLBKFBi+N01ZLTPxmr2U43yr93feygHwTFNWFzEN/G7qiw4ZmNVC5LqdCwCAxUw9so5XuQ2QOBgRBk/4GyK7eb3Kv7N2AFzEC2TUQnxfFMWnp/xaQO/StoEPddde1l2773IAAEyCbbSsSw0EsCvC3xB5zemq/96TAuCZqIU4UAsBWXhRFMXvddeeqoUAAMieAJh1CYCBXRD+hsholur9nZMOzdtMADwzVwvxfpO/LtCLn9RCAADkzUE6PEF2NRACYBicn4W/d6S1eLbiv/Pn+/xGA+Di71qI46IoflALAaM3Xwux53ICAGRJ7ynrymoKWA8wDMp5U1YrVx3kqu7aVMH7at1vb+MB8Ex6khy1EG9m48bAaKVaiP+mFxy1EAAA2TEFzLrUQADbkMJfu5FD3bXptfbtU36NrQXAMzGqvacWArKQXnCu4sUHAIA8fHYdWVOONRAeiEC/hL9z4tC3p9RgbKcCYpF7tRC2U8C4pb6ZX9VCAABkQ+DFU+Q2HGICGPoj/J2z5qFv96Vqm90EwDNRC5GS65/VQsDofamFcCkBAEbtD5ePJ8itBzhNxN8M4EuBqRH+PnSxxqFvC+00AJ6JEuc0OXjex+8PbNTbums/1117YFkBAManKSsTjzxFjvcBpuJht4S/99RdexaDd0/1Z81TLwFw8XctRLq4L9VCwOilJ1K/1V17oRYCAAAm5d8ZDoN4KAK7I/y9p+7atB6vN/TL9RsAz6SnzWohIBuv4pA4tRAAAOPyyfXiCXLrATYBDLvxTvh7Vxy6/2HTv27vAfBM1EKkIPjjML4iYE3/VgsBAACTktXnfrUosBNvmrIyPDan7tqUi55t+JcdxgTwvFS23pTVYdRCKF2HcZvVQpzFyZUAAAyXiUee4nmGVXCqKmF7Uvi76aBz1CI3uYihuo2Jgy2HFQDPRC1EevN4pxYCRi/11qRp4GOXEgBgsP5waXii3Hb/eSgCm3cr/H0owt/LGKTbikEGwDMxCq4WAsYvPcH6pe7aK7UQAACQJQEw8JgU/h4IfxdKtbjPt/Drfun3H3QAXNythfhRLQSM3nO1EAAAg/TZZeGJBMDA18zCX3+u7kn5SOyc3qrBB8AzTVldxDTwu2F8RcATzGohnPYJADAMAmCe6llOPcAOgoONSX3ae8LfhyIT2Wb4+2XNRxMAF3+9AP8RtRDfz48xA6OUaiE+1F17GSddAgAA45bbFLBdyPA01zH5q2f+ngh/P2z5t/my7qMKgGeiFuJALQRk4UVRFL/XXXuqFgIAAEZNDQQwc96U1b7w96EYgtt2+FuMdgL4PrUQkJWf1EIAAMCo5bazTwAM63nflJV7+wUi/N1Vxcy4J4DnzdVC/KAWAkZvvhYim/4wAACYiOeZ7eoTAMPq3jRldWzdHorXx8vIPnYhjwngealMOmoh3sTpgsB4pVqI/9Zde6IWAgAARiWnKWCHI8LyUhb3simrM2v2UA/hbzFfv5FNADwTP2hpcvD9ML4i4AnepidWddceWkQAABiFbHqA06DZAL4MGIPZYW+7qjYYlbnw9/kOv+47LQnZBcDF37UQx2ohIAvPiqL4VS0EAACMQm49wNcD+BpgyD5F+OuByded7Tj8Le7vYMgyAJ6Zq4X4WS0EjJ5aCAAAGL7cAuA/lvhnYKrOU+42XzXAXXXXpvD3VQ/LMp0AeKYpq9OohTgfxlcEPMGsFiKbrWUAAJCRZ5ldTFvaYbF02NuRtfm6CH9f9/Tb35nInkQAXPxdC5F+MF/awgGjlz5U/lZ37YVaCAAAGJbMhjVMNsJdaYf9Dw57e1zdtac9hr/FJCeA56VC6qas9tVCQBZexTTwicsJAACDkVMNhF5T+FsaqNzX9/u4umvTAOpPfX4N96/R5ALgmblaiI/D+IqANf071ULUXftZLQQAAAxCTrv0Pi/xz8AUnMdhb/5MPCLC3w89fxmf7v+NyQbAxd+1EIdRC3EzgC8JWN98LYRD4gAAVuPzE5uUzQSwsAv+9Gffr8PeHjeQ8LdY9OBq0gHwTNRCpCeU79RCwOilWog0DXzsUgIALC2nLfv0L7efJwNjTJW+3yUNKPwtFlXXCIDnNGV1Em9UaiFg3FItxC91116phQAAgJ37d2ZLbgqYKUo1Anv6fr9tYOFvIQBeQtreoRYCsvE8aiHO1EIAADzKZyU2KrNBDNvemZp3TVkdqHz4trpr0yDp6ZC+ptR0cP/vCYC/IhZrP2ohgHF7rRYCAOBRKiDYtJweKpiAZCpS5cPL2CHPN0T4ezmwXQ/Xi/6mAPgRcUhc+qH/ftEJesCozGohLuNFGgAA2B6fuWFcZpUPD6ZHeWig4W8RX9MDAuAlRC1E2r7yo1oIGL0XRVH8XnftqVoIAIAvhHVsWk6ftQVi5E7lwwoGHP4WX9uxIABeQVNWF2ohIBs/RS3EkUsKAJDdoV30z0MFGD6VDysaePhbmADeELUQkJX0gv1BLQQAMGU+B7ElOU0Am4okRx9VPqxmBOHvbWoxWPR/CIDXNFcL8SaemADjNauFOFELAQBMkM8/bMPzXFa1KSuHwJGTlGH93JTVocqH5Y0g/C0eq6sRAD9RU1Zn6YlJURTvR/2NAMnb1JdTd+2h1QAAJuTAxQaYhOv0mt+U1anLvby6a/dGEP4WAuAti1qI46IoflALAaP3rCiKX6MWYs/lBAAmwAQwW5FZvYidv4zd+6as9k20ryZ2CV+MpCtfALwL6Q+RWgjIRqqF+K9aCABgAnQAsy05fY4WmjFWN3HQ27EruJrIAi5HUmlz+1i4LwDegrlaiPPsvjmYnlkthK2RAECuBMAAeUq51L6D3lY3svC3eGz6txAAb0/UQhylpyzRsQKMV6qF+K3u2gu1EABATuIGdwzbWhknQxTQj7Qr/ceUSznobXUjDH8LAXDP0lOW1LGSTlhUCwGj9yqmgU9cSgAgE6Z/YTlCNMbiY9qV3pTVhSu2upGGv0X0FH+VAHhH4oRFtRAwfmlC5m3dtZ/VQgAAGfB5BpajA5ihm039Hpr6Xc+Iw9+bpqw+P/YPCIB36F4txM1kvnHI03wthEPiAICxMgHMNqlPg90w9ftEIw5/i2/VPxQC4H5ELUR6I3ynFgJGL9VCpGlgJ6oCAGNkAphtEgDDdqXhwpemfp+m7tr9EYe/xbfqHwoBcL+asjqJJ+4fp7wOkIFUC/FL3bVXaiEAgLGIw20dAAcwTu9TppSGDF2/9WUQ/hZLTQCnb7Tu2qPdfD3clzo60pMatRCQhedRC3GmFgIAGAEPrgHG5zqmfo9N/T7NXPg75oehH5f5OUgTwCmk+FB37WV84/TgXi0EMG6v1UIAACMgAIblPXrAEuxAqhB915SVqd8NqLv2MIPwt1hm+re4VwHxoiiK3+uuPTW51p+ohfi+KIpPU10DyMSsFsLDNQBgqATAsDwBMH36FHUPJ67C00UTwq+Z1CAtdfDfog7gn2Jy7XDzXxPLiFqI9GHsR7UQMHoergEAgxP9v89cGbbM5194mpQJ/ZgyopQVWcuni526H8b+fYTrZX8uvnYIXErAf43JNad29qQpq4s4JE4tBIzf7OGaznUAYAhM/7ILYz5UCfr2LqZ+l5rw5NvSeT1pp25GS3W27D/4tQB4Jk2u/bfu2hOTa/1IRc5qISAb/9a5DgAMhAAYYJhS9vN9yoIc8rYZKdOM8Pd1Dt/PnKW7oL8VAM+8LYriSi1Ef+ZqId5E8TcwXrNaCA/XAIC+uLcDGBZ1D1sQ99yXGYa/N01ZXS37Dy8bABfRD6UWomdNWaUnFmn93096ISAPHq4BADsXO5FyOPgGIAe36h62I97vUkiaYx3NSj8rqwTAMy8isHDyYE+iFiKVVv+gFgJGz8M1AGDXnEkAMAznEfyqe9iwumsPYvI31wNPT1f5h9cJgIt4Wvy27trPsaD0II16q4WAbOhcBwB2xT0cQL/SMN/LpqyO1D1sXhy+/lvGu12uV/25WTcAnkkp+m91116YXOuPWgjIyqwWwo0ZALBxcd+W41ZYgDGY7/ld+gAvlld3bZqM/ZD5kp2t+i88NQCeeaUWol9ztRAv05OAKa8FZMDDNQBgW5w9ALB7adf2z01Z7en53Y60kzbdQxdF8VOO3989K/8MbSoALtRCDEN6gtSUVSq5/lktBIyeh2sAwKbp/2WXDCcxdbMD3lLwu1JnK8uLwanLuIfO3ad1akM2GQDPzCbXzvRY9ideWPaiUBwYLw/XAICNUP9ADxxqxZSdR/DrgLctivvkqwm9v61c/1BsKQCeeV0URQosjrf4e/CIqIU4UgsBWZivhfBwDQBYh+lfgO1Lwe/3ccCb4HeLJnDY232369Q/FFsOgIu4AL/UXetAox7N1UK8UwsBo/fKwzUAYE0CYIDtmQ9+V96iz2pS88AEDnu772LdhwrbDoBnnquF6F/adlAURQqCP059LWDkPFwDAFZSd+1+7CgCYLMEvzsUh71dRfPA1KxV/1DsMACemdVCePLck/Ri1JTVYdRC3ExyESAfHq4BAMuyewhgswS/OxYPMz9PtM/+Ju3wX/df3nUAXMTk2oe6ay/jwtGDqIXYUwsBWdC5DgB8VTwoPrRC9ODKopMhwW8P4n739wn1/d53+pR/uY8AeOZFunB1156aXOvPXC3Ep6muAWRiVgvh4RoAcN/hhG+Y6ZcDsMiJ4LcHUfmQqg9+mdw3f9fa9Q9FzwHwzE9qIfoVtRCpR/RHtRAweh6uAQD3udcCWE/aMf1e8NuPGG66nGjf77zzdQ9/mxlCAFzcq4XYG8DXM0lNWV3ENPC7qa8FZMDDNQBgdvP8wkoArOQ2spG9pqyOBb+7V3ftYYS/U+z7ve9J07/FgALgmfTB5L91156YXOtHeqIQtRDfq4WA0dO5DgA4I4A+rX1gEfQk7Yp+E8HvyVOnLllP2tFaFMWv6ov+dP2Uw99m/rWxL2ez3qZtSqngOaZS2bF4unUQT1zO/KGDUZvVQqQn2Kc+xADANDj8DWBpn+JeSQbVo2gFuDD1e8eTDn+bGdoE8LxnKe1XC9GvePHbi84bYNzSw7WreLADAOTv2CAHPTN4wNClg91+SOciCX/7FfepV8LfO26bsnpy/UMx8AB45kstxDC+nOmJWoj04fEHtRAweh6uAcB0OAuAXjVldeUKMEA30e/7nzjYzc9pz1Q+fNVGpn+LAVdALPI2DjM62kT3BauLF8WDuA6n/mDCqM0erqmFAIAMxWf2Z64twBdpoO1sUxOVPJ3Kh2/a2M/qGCaA56UPML/VXXthcq0/8WKpFgLyoBYCAPJkByV9u3YFGIDbqHn4PmoehL8DEQ8qVT583Xmcz7URYwuAZ15FYOFDTU/u1UJ4Y4dxm9VCeLgGABmou/bA9C8DYIcZfUo5xZs0vBY1DxsL0niadEBp3bUpiP9gZ/mjNpp5jjUALuKHJNVCfI4POPQg1UI0ZbVfFMXP8WQNGC8P1wAgD97LGQKBG7t2O3eo236a9lV1Nyx11+7H1O/rqa/FN3za9EOLMQfAM/O1EN8N40uanqasTqMW4nzqawEj5+EaAIxYvH+/cA0ZAAEwu5K6fd80ZfWdQ92GKwaNfrdDZSkbf5CbQwA8kybXUmBxPIwvZ3qiFiJ1uLxUCwGjp3MdAMbJ9C9DIQBmm26Konin23f40v1k3bWXcf4M35amfy83vU45BcBFTK79Unftlcm1/qQfVLUQkI1ZLYSHawAwcKZ/GRgBMJs2X/GQun1PdPsOWxw2fuW9aSWn2/hF//F//t9N+pDw2/a+7l6lF4ZjnS/9icnB0wiRgHG7jtfUjT+NBACeLias3GQzFP/J6V48HrDkmp0MWQp9L9JfTVldTH0xxiIqWs9kQSu7SQ83tvEL5zYBfN9rtRD9Sk/jmrI6jFqImymvBWTgedRCnOlcB4BhMf3L0BjE4ok+pl7fdNZQ9PoKf0ci3o+uhL9r2VqNU+4TwPM+xeSaMvAeRen3cdR1AOOVnsSfxAGQAED/n7M/O1iHAUkdllnVMpoA3omPc9O+HiCMTAwJpcznp6mvxZq2Nv1bTGACeF56Gv573bWnJtf6kzp6iqLYjxd2YLzmO9f3XUcA6E/dtUfCXwZGeMcybucmfVNlyGE6zE34Oz5xT3gl/H2SrR7i+q/tf/2Dk34Yj1IthFMi+xEl7YdRBn7qwyqM2vN4uPY+JoJ9WAOA3dvqTSOswc5bvkanb2Zip/fbqa/DE91sO6Oc0gTwvDS59iEdkmByrT/xYp/W/91U1wAy8lN0rh+5qACwO3HjbaCCoREAMy8dJp0GRn5oyuo7nb55SHla2hEq/N2IrT/InVIH8GNSAHlqcq0/ddfuxQmRDq6A8dO5DgA7ENV2n52vwQB9Hzs/s6EDeCVpyvcyJn0vc/tZwNTvhm21+3dmihUQi7ydq4XwFKoH8YZwoBYCsvBCLQQA7MSp8JchEvhN0vUs9G3K6nLqi5GreBByJrPZqONd/CYmgB9Kk2tH3rD64+RIyMpNTAN7uAYAGxRVdr9bUwboU1NWB7ldGBPAD9xE4DsLfQ19ZExOszU7e700AfxQmlz7b921aiF6Emt+XHftWUw1qIWA8UpPhn+tu9bDNQDYrFPryUCpAcvTfOCr1mFC7NTeqp0d4ioA/rpZLcSR7Qv9iP7QgzhUyvY2GDcP1wBgQ+LzsSEJhkoAnAeB78TF1G8azHs19bXYkk+7zBtVQCznY2xh9oLXE9sNICtqIQBgTQ5+YwR+yPEw4AlUQHyKsPcqAl8DGxOWzsiKDMZ7zfbs9LBMAfDybmNqbWfj2TwUXWfpCdRzywOj5+EaAKwoatJeWzeGqimrf+R4cTILgK8j6J2Fvaa2+VNkLqo4t++8KaujXf6GAuDV3USPpVqIHnkaBdnwcA0AluQQKkYgywPginH/+ZsPe69kGSxi1/VOpXvg/V0PQukAXl0qvf6t7tqPEQTbFtGDpqxO5w6JMwEB45Ue4ryNLkMP1wDgcWfWh4EzSdqf2/mgN1XF+GzNMhzytnOnfeyCFQCvL5Vgf6679iSFkWP9JsYswvejuSBYLQSM1/zDNbUQAHBPuu9wc84ICBy3bz7o/WPW22s4jVXVXbsXDxbVPezOTeRXO6cCYjOuI7DwZtcjtRCQjfSh1sM1AAjRyfi79WAEdnqo0S71UAHxKQLeqzj48bOgl02IuoeUn7y1oDv3pimrXnbzCIA36zyCYC/IPYkXsrOY0AbGzcM1APjrM+6V3W6MwE1TVnu5XqgtBMDXcwHvnf+UKbAtUb13anCuF712pKuA2KzURXuoFqI/8UZ5GG/OZ7bJwag9j1oID9cAmKyofhD+MgYe2v/lJqZ1i7lQdzbBWxhuoA+RkZyoe+hVrwefmwDenus40EgJfo/iA/Oxp1swemohAJgc1Q+MTG9bm3ch+lKP5n6rWbhbxIFrzrBgcOLn9sTh+b07b8rqqM8vQgC8fe8jtDC51pN4wTtVCwFZ8HANgEmIarNL07+MSLb9vzA2cz2/BuL6l4aZ9vrOBf85kMXI2U/paWD0rNCD9CGkKavDoihexnYcYLzSTfDvddeexocaAMiV6gfG5Eb4C8MQ+dPnOORN+Nu/QQyFCoB3I/2B+1B37WVs46IH0bWU1v+d9YfR83ANgGzVXXsY73UwFnptoWep57fu2hT8fhD8Dsb1UGoMBcC79cLkWr/SU5emrNI0xffpBMYprwVkwMM1ALIT9wnZ9qiSLQEw9CSC38uod3UQ/rAMZmBJANyP9DT/Kp7s04OohUj91z+qhYDR83ANgJxcmNxihATAsGPpvKO6a88i+H1h/Qfn/ZDOrhEA9yc9lfk1Jtf2proIfWvK6kItBGTDwzUARq3u2mM38YzQtf5f2J254Pe/RVG8tvSDdBNd/oPxj//z/24O4mkB/UoB5OkQiqGnKraQn/rQDVlIFS9HbkYAGIv4LPq7C8YIpSm3YxcOtit2Ox7H4W4M248xcDgYAuBhSU8Ijof2QzI1cajUqa13kAUP1wAYvLipv9LdyEi9jAO3gS2YC36P5RSj8LEpq8HtSlUBMSyzWogLtRD9acoqbaVI6/9+qmsAGXmrFgKAEbgQ/jJSt8Jf2I4U/NZdm2oEPsd9jfB3+G6HdPDbPAHwML2KwGJQfSFTkqYFYxvTD7GVHBgvD9cAGKz4zK+CjLES/sKGCX5H7Xiou09VQAzfTfRYemPtURzIceKFF0bvNiohPGADoHexQ+VXV4IRexM7KIEnUvUwep+asjoY6jchAB6Pj/EkwYFGPYkX41OnbEIWPFwDoFexK+XKTT4j9x9nLcDTCH6zkAaN9oec2QmAxyX9QJ00ZXU69YXoU8aTDWYAACAASURBVN21BxEEP5/uKkA2PFwDYOfiZv/S50lGbpAHHcFYxIPAE0NmWfh56FmdDuBxSU+Cfqm79ipCSHqQJgabstpPf8AjlAfGa9a5fuwaArBDZ8JfMnDhIsLqUvBbd216H/iv8DcLn8YwqCkAHqf0YfG39IIR0wP0IP6A78UEITBeHq4BsDNxsM8rK04GVGnBCtK9RjqYWvCblTQUOIqdECogxk8txABEaJSe4D2b+lpABs6HfHorAONVd+1RURQfXEIycB27IoFviNf+9NcLa5WdH5uyGsVuCAFwPq4jsPAUtkcx0aG4HcbPwzUANqru2v2YmPQ5kRwMvu8S+hS7tQ+j49egWJ5G1YMuAM7P+wgtTK71JIrcT23tgyykh2tHTVlduZwArCs+H14Jf8nIf9xzwkPxen9kMCx7N0VR7I/pdVAAnKfbmAY+m/pC9EktBGTFwzUA1hJTYJcOfSMjo5p6g12I+/8j3b6T8XJsO/AdApen9JTpQ921l7HVjB6kF4OmrNLTv3fWH0bvp6IoPkd/FwCs4kL4S2ZG0XcJu5DuD9Jh0jFYKfydhndjrF81ATwNJtd6FttAzpS+QxY+xS4LtRAAPKru2jOBABlS/8CkqXmYtNEegCkAno7b6LH0tLZHddceRj+wWggYPw/XAPiqOBz4rRUiM+dNWdkRxSTF/fyR834m6zZ6fz+PcQEEwNPzKYLgUf7A5iB64I7dEEAWPFwD4IGoDPpgZcjQjz73MCVz075HBrkm782Yz9oSAE9X6qU9NbnWH7UQkBUP1wD4k/CXjN3EGSeQPdO+3DP63Q8C4Gm7iR5LT3B7FDcJp7qDIAsergFMWBzA/LufATL1vimrYxeXXJn25Suui6I4GPs9ngCYwuRa/6IWIvXE/TT1tYAMeLgGMEER/l56qE/GvnfPSG7iXnw27Wt3LvfdRvg7+gPABcDM3MbU2okV6U/cOJx644EseLgGMBHCXybgU1NWBy40uai79iBC30Ov3Txi1L2/8wTA3HcTgcWllemPWgjIhodrAJkT/jIR2YQgTFdUPBxH6KvigW8Zfe/vPAEwX/MxtjCbXOtJbEVJIfDrSS4A5MXDNYAMRZhwJfwlc7dNWX3nIjNG8To9q3h47iKypCx6f+cJgHmMybUBiK0pp96sIAsergFkIh7WX/qMxgQ4/I1R0evLE6UsbD+3ezYBMMu4jsDC5FqP6q49joPiTJjAuHm4BjBywl8mxuFvDN5c6Jv+euWK8QQ/5nigtwCYVZxHEJzNCPzYqIWArHi4BjBCwl8m5mNTVocuOkMk9GUL3uU6qCMAZlVpcu2kKatTK9efqIU4U1wPWfBwDWAkhL9M0EsPqxmSuU7fQ/UObFjWD7wEwKzL5NoA1F17EqeYqoWAcfNwDWDghL9M0E1TVnsuPH2ru3Y/HcjlIDe2KLtD3+4TAPNU7yO0MLnWk3gCemrLC2TBwzWAARL+MlFvmrI6c/HpQ921hxH6Htr5ypbdRvh7lfNCC4DZhNsILHw46JFaCMiKh2sAAxGTZ2fCXyYm3ePt+SzCrsRg0yzwPbDLlR3K8tC3+wTAbNKnCIKzfmoydGohIBsergH0LMLfS5+rmKBsD0L6/+zd7XEbR9Y/7NF+RtVfTgBLR2A6AlMRmI7AVASmA7ghCgkYikBkBEtGsGQEFiNYAQk8Ri2+71Ntn5FHFCm+YdDdM9dVpfKbLIEDcdDz63NOU44oYmoDX5ts5PDrWMbwCYDpg8q1zGL39NRQfBgEm2sAGQh/GblvPM+xbZ1ZvgdGGFKAs/lkejSWN0IATF9UrhUg5iYtjIWAQbC5BrAjwl9GblShCP3pjHVoK33dUynF9Xwy3R/TuyEApm+pcu1oPpl+dKXziENL0kiIN2P8+mFg1nFPHfyMKoBcYgP9VFDBiH3r+Y2nuBH4HihEolDLpmn2x1ZYIwBmV96mSlSVa/kYCwGDYnMNoAezzSpVPb53bRkx1b88WGekw77Al0qkgpqDMY7XEwCzS8sYC6FyLSNVLTAoNtcAtmS2WaWOqd9cT0bue+cOcJvoLO3O8N33TEmFXs0n08sxvnECYHJQuZZZfHinU31/GfWFgGGwuQbwTLPNKm2O/+w6MnJX88n0YOwXgb/cqO5NP75zaajc6zGfUyUAJqe388n0xDuQT3yoL4yFgEGwuQbwSLEpvhD+wp9GWxk3dvFc2P3h+ZCheTefTI/H/K4KgMltGYGFhUZGMe9uoYUHqreOkRA21wDuEeHvpao2+JPq35GYbVbdqt49YS8jMOrZ5jEG9KMAmFJcRAuzyrVMjIWAQbG5BvAVUe127sAi+ET178B0qnr3YpTDnnseIzTqza3IeVLOdigApiQq1woQO8IL1TAwCDbXAG5wIC58QfVvpToHs+0JeuEL1+l7YswHZs82q7TZ/WPa5BMAUyKVawWIk7BPPBxB9WyuAYRY3/zmesBnVP8W7JaQN/39S6Mb4KtSrrQ/8vA3jb14H/8oAKZoZ1G5Ntpv2NwcjAKDch33VA94wOhY08CdLuaT6aHLk0+ManjZCXhfdkJeXZnweOuo/P0w1ms326zSveRDp6BPAEzx0jfuyXwyXXir8jEWAgbF5howKvEQdG4dA7f61qiofsQzVNMJdJtOyNuo4IVejD78bf66/1zeuMf8GQBbEFEDlWsFmG1WqYX82FgIqJ7NNWAUIoA5t3aBW436ZPzHik6Cw06A29wIdBuhLmT303wyPR/z23DHuKtXL/73v/91f4J5n5RO5VpmUUWziEHiQN1srgGDZd4v3Ev17yPEhpLuaSjX6/lkejrm9ydGyvx+y3969Y/276IKaD9ODIdSpbltH2OYNRmkRWLMCXsVg9WBeqXun3/PNqtFVLUAVC/dz+LUa+Ev3O2d8BcYkNGHv+HOa/CpArgrdrbS//TPnb1EeLyrqFwb9WyX3IyFgMFYxz3VwgmoVlS+nHuOga9Kn/l7uiofRwUwFOtXo+3+vEela/DLHf/51a0BcOd/FuxQg3cxy9ICJpMYC3Fq5hUMgs01oEpGPsCDvZ1Ppicu1+MIgKFIZpk/7P709QC4Me+TeqhcK8BsszqM+4WqG6ifzTWgCjHC5tTzCjzIcj6Z7rlUjycAhuIIf/9eB328p3j37xnAd+nM+/zJvE8Klv6gv59tVpfR+kcGcdpmuv5vXX+o3i8xc/3QWwmUKgKZD8JfeDCVv8AQCH//dv6QyQ33VgB3RaqcWqvebPOVQg9SALlQuZaPsRAwKGksxJHDYoCSxLg6zyXwcFfzyfTA9XoaFcBQDOFveMRa6JtHBcCd30CwQw2WMRbi3LuVj7EQMCg214Ds4lkkre++827Ao3xvxv/TCYChCMLf8Jh70nwyfXHvCIg7/sePsXNoLAQlS4Hjv2IshDlXmXTGQrwb5QWAYUm7yx+MhQByiYPePgh/4dHOhL9A5S6Ev3/pbIY/2JMC4JZgh0qkSvX/pNL4GGPCjqVqwflkmh7Yvo9WcqBeNteAnUv3m3TfaZrmt4fMuQM+s45RjgC1uk4j6bx7nzxo7m/XswLgRrBDXdrKNXOvMklVB9E98DoWokC9bK4BO9Gp+jV+Dp7mxPgmoGIp/D1wH/vLbLM6fUon1JNmAN/zQo5i3qedeUp2EfOBHWiUSQRGaWD5L6O8ADAsZq4DW+fcEdiK6/lkuu9SPp8ZwJCF8LcjMtf3j/zf/jwA9NkVwDfNJ9O0SNszFoLC/RjVwCfeqDxudA9cj/EawIAYCwFslapf2BqjH4BaCX87ZpvV/hPC30+2XgHcFS9uYeFG4VLl2tF8Mr30RuUTD3onugdgEN5pNwWewvMDbJXT8rdIBTDsVMpp9j1P/CU6qD8+MS/ppwK4qzPv81fzPilYqlz792yzOjfHMp/5ZLqI7oGzsV4DGJA02uVjbOwA3CutwaIz63fhL2yFg9+AWqX716Hw9zOXzyiW+3P0aa8BcEuwQyV+FFjkFWMhUpXCK2MhoHppgfLbbLNK99VDbydwl6iq+xAH9gLbcSw8ASq0jrEPH7x5f3nqoW8dfwbAvY6AuE0s8BbPfPHQt+tYNBkLkZGxEDAoVzEWwn0V+FPMDF/EJjywPVfRicsWGQEBvRP+3vDEQ99uejufTE92UgHclR784hRSYyEo2XcxFuLUWIh8onsg3S8uxnoNYEB+6IzbcVAcjFhn3MN/hL+wdekZ29xfoDbC3xti0+m54W/yZzfIzgPgVmcshGCHkv1sLERe88n043wyPYyxEMsxXwsYiBT2/Cc22ATBMDJRyWLcA/Qnddt8dH2BilwLfz8Xh+Keb+mX+/O67nwExG0i1T6Nw7igVFcxFsJNKaOoGDo2FgIG48zDKgxfrPdPHPAGvbqOblt6YAQE9KINf80sD9GFfrnF0bmv0jSGbBXAXTEWIlUBvTUWgoKlB5bfZ5vVwliIfNLsGmMhYFBSp8WHtLnj3grDkyr94/CSfwt/oXdGPwA1Ef7e7ryPc9OKqADuchgElVhHNfCpNyyf2WZ1GPcL3QMwDOv4nl5YCELdYkPn2KgH2Jm3UShBT1QAw1YJf28Rm+Y/b/PXnE+mL5oSA+CWsRBUwliIzDxgwiCtYw2wMBoC6tL5XDauCXbH6IcdEADD1pxFjiL87Yizp37b9q9bfADcCHaoy1sVa3lF98Cp9lIYHDOCoRLx4HIi+IWd+15BSv8EwLAVZ/PJ1LiaG+KQ3Pc9/NLLGLlbdgDcEuxQiWXsYm3rpEaewFgIGCxBMBQqHlpOfPZCFr/OJ9OFS98/ATA827v5ZHrsMn5utlntx6FvfWygX80n03TvqiMAbgl2qEQaC3EkpMhH9wAM2lUEwZfeZshL8AvZfXqwp38CYHiW185Q+lLP4W9yMZ9MU5ZaVwDcCHaoi7EQmcXNdKF7AAbpOu6xFpKwQ7EWP4r1uOAX8knz8vcVneyOABieTPh7i1hTpfD3ux5/m08HhFYXALcEO1TCWIgCRIXSwkxCGKRl58A4G27QE4e7QXEEKjsmAIZHSxtVB2aUf2lH4W/THRNUbQDcEuxQiYsIgu3QZxI32LTz9csoLwAMX1pgnpsTDNsVZ3EcR9Wv9TaU4VNLL7sjAIZHSUUah8Lf2802q/Tc8uMOfqtX7ei8f+zgN+tV7Hqmhem72r8WBi19Y3+YbVYn3uY8UmVgDJz/PmaIAsOSgqmfm6b5z2yzuowNYuCJUrfdbLNK6+z/xOap8BfKsIwNGYBSXceIGuHvLWJ9tYvwN/nUIVl9BXCXsRBUYhmHxDnAKKPZZnUcFcEeaGG42vEQp6qC4WFi8+TIehqK9cpzRB4qgOFBzqL72Wi2W8w2q8Uuu5Lnk+mL9u8HFQC3BDtUwliIzGIsxCKqBoFhu4gg2Ex2uKEz3/fIwW5QtE+H+bB7AmC417vouuUWscn+fofXZjmfTPfafxhkANwIdqjHOuZVLrxn+cRibrGDAexAfsuYFbywAcfYxeffkfUyVOFqPpkeeKvyEQDDVzmY8isyhL/Nzc+NwQbALcEOlbiOamDtXBnpHoDRuY41wrk2NcYiiiSOouJXtS/UIRWN7PmsyksADLdK96cD837vNtus0qGd/8rwW3/WNTL4ALgl2KES5uVkFg/GuxzKDpThLIJgIyIYJNW+UDVzfwsgAIYvpGKKQ111d4uzyi4zZZGfVWWPJgBujIWgHsZCFCAWeKeqo2B01p0RESoZqNpss9qLSt9Dn2dQLXN/CyEAhs9cxOH2itfukDn8bW5uHo4qAG4JdqjEddxQBRAZzTark3h41j0A49POCz51L6YWnREPR0agQfXM/S2IABg+sTF1jwLC32Y+mb7o/vMoA+CWYIdKvIuKYDtrmUQF1cJYCBg1YTDFitD3MH74rIJhMPe3MAJg+PO+dGRk2tfFuuxj5qxxOZ9M97r/YtQBcCPYoR7rmA3sVM2MdA8AoR0TYWYw2Qh9YfDM/S2MAJiR06H8ALE+uyygC+tiPpkedv/F6APglmCHSlxFEOymm0nc0FPnwJtRXgDgpnUs8tpAWKUWvYnChbSYPxD6wqD96jyQ8giAGTHzfh+goPC3uW1MhwD4hhgLIdihdMZCZBYP4WnT6IdRXwjgputOGGyzjmeLGXJtpa+ZvjB8Z/PJ9Mj7XB4BMCNlQ+oBCgt/k59udioKgG8h2KESy6gG1n6c0WyzOowxMroHgJu61cGX88n0oyvEfTqjHQ7ir86qgPFIm4gHijzKJABmZNI69tAomvsVGP4m39589hAAf4Vgh0pcRTuGYCETYyGAB1rG4vDSuAi6IlQ4UOULo5bCln1r+nIJgBmRqwh/rVXvUWj4+8UBcI0A+H6CHSryNm1YuEnnE226C90DwAN1A2EVwiPSCXwPfGYAwaFvhRMAMxJfzI7ldoWGv81tB8A1AuCHMxaCShgLUYDZZnUUQbC2XeAx0j38QywkPwgChiEeDlJosC/wBe5gxmYFBMAMnJEPjzTbrC4LXdfdGuILgB9JsEMljIXILB740033l1FfCOC5riIU/hChsIPlChcBwX7nh5EOwNc49K0SAmAGzMiHR5ptVqlA9OdCX96tHSUC4CcQ7FCJdYyE0L6RkbEQQA/aUPijSuG8hL3AM13PJ9N9F7EOAmAGysiHRyo8/G3mk+mL2/69APgZBDtUYhnVwAKCjHQPAD1bRiB8GX/96L6/PbHm27sR9jokGHiOZRz6puKuEgJgBkZO8ASlh79f21gUAG+BYIdKXMR8YGMhMonugUXhHxjAsLTBcKoY/iMC4sZi/0sR8r6McLed27sn6AV6kDr1Doz1qYsAmAG5iPDXBtQjVBD+Ju/mk+nxbf9BALwlgh0qYSxEAWLxuNAqDBTgKl5CGwi3QfEfQwomYp3WVkMcxF/boFfIC+zarfMZKZsAmAFYR1HYqTfzcSoJf5Of5pPp+W3/QQC8ZYIdKnEdN34Lz4xmm9VxzBPXPQCUrK0ibtrxEp3XevNzpPfgONZaXXvxo9X978Z0AaV5LXypkwCYyjko/olmm1V6Zn9Tycv95q7KbgFwTwQ7VOIsgmCtH5noHgBGZh1Vxnd5aRMdGLA7W3MpnwCYijno7Yli5Ov7Sl7uVw8WFQD3SLBDJdLD+Ml8Ml14w/KJBeWpNmQAgEE6m0+mR97aegmAqdB1VP2aN/4ElYW/zX2bjALgHTAWgkoYC1GAaC851j0AADAYV/PJ9Ob4GiojAKYyqn6focLwt7lvvvw/dvtaxim9AVGG/TaqLaFEaYPi37PNahHV62QQH9L7cTIrAAB1S0UWh2N9D2eb1d4DfhqwPeme873w9+kqDX+b+4r5BMA7JNihEr+kA37ipkcGaTD/fDJNDwqv4vAlAADqk9ZxByM/b+PW0+iBXqSq330jH54uzvOqLvx9SM4oAN4xwQ6VSOMH3s82q8vZZnXnEHH6Fd0De9E9AABAPVLn5+GYw98YbWYMIvRP1e8WzDardCbPb5W+/HtHeQqAM7kR7BgLQal+aJrmd2Mh8ooP8m/T/LgxXwcAgEqso/J3tFV4MS/3TQEvBYZsrep3OyL8/bniL+Hebot/pFBHsJNPZyyEYIeStWMhRju/LLfoHkgL6Z90DwAAFG3s4W/KF04LeCkwZClD2lf1+3wDCH+XKS+47yf9I8JH8z4zEuxQiTQW4l8xFsJhDpnMJ9PzuG8bCwEAUJ7XKvH+DH//WcDrgCFax33m4CGhH3eLgtjLysPf5qGz1tsREN15n4KdTAQ7VCKNhfhPmumleyCPNEvOWAgAgOKkUGbUla9RWPZjAS8FhuisaZq9sd9ntiGyjMvIN2r3oAD4xf/9d5kqT/9949+nAHIx8tNKs4og/nQgfxgZrlSxfhybF2QSC+1FbOYBALB7wt+/Do++vLkmnU+mL/K9qu2JucY3sxPYhet47r73oC/u1wl/h3BI5Xo+mT6oMO+uQ+DSsPYP5n3mc2MshEPiKNU/jYXILx420vV/N/ZrAQCQwejD33CqIAG2qnvIm/B3C2Kj6uNAwt/modW/zVcC4EawU4aorBTsULofYtPIAPpMYizEcdM03xsLAQCwM2fC3z9DlcWAAhUowYVD3rbrri6Fym0lAG59mvc5oAtUFcEOlUg30TezzepjtEeRQTp0JLoHXuseAADoVQp/R3+YenQO/1LAS4EhSOMeXs0n00OHvG1PjE0cWvi7fsw4zocEwC3BTmaCHSqRugf+PdusznUP5NMZC3E21msAANAj4e/nZ9cAz5Mynl+Ne9i+CH/fD3BEzaPOYnpMANwIdspg3ieV+NFYiLyieyB92L2KnWQAAJ5P+Pu3c3N/4dlStrM3n0wXLuV2zTar0wh/h+hRAfCL//vv8qknWabdiYV5JHlFRbZ5S5Ru2TTNkZ3MvGabVRolc2KRDgDwZMLfEHN/7x39MJ9MX+zqNfUpnr2fkp3AXa7iOdmohy2bbVYvIyv7eVBf2N/S+IeXj/kfHlsB3GXeZwFSoJZaBFKrgLEQFKztHjiNGzEZxI6ysRAAAE8j/A3m/sKztHN+D4S/2xeZw+WAw9/msdW/zTMD4JZgpwCCHSqRbsAfoxKVDIyFAAB4EuFviJP0zf2Fx0udsa/N+e1P3J8+jKBLPksA3BLsZCbYoRKpe+C32Wb1QfdAPp3ugbe6BwAAvkr4G6Lo69RIMXiU9Lz1dj6Z7sWZTvQgOhMuo1B1yJbzyTRrANwIdsog2KES3+keyC/muKf7xcXYrwUAwC2Ev59z/gw83DpymT3nZ/Vrtlml+/S/RrI59ejwt+khAG4Jdgog2KESbfeAhXUmae7UfDI9jO6B5SgvAgDAl94Jf/8W3b5DnqkJ23TWBr+pW9uV7U/KHpumeT/Ur+8Wi6f8Ty/+77/Lvk+yTDsex8rc84qK7NMRlMJTt6u4X3zwPuYz26zS5tGx1j4AYMRee4b9W8zV/P0p/+98Mn3R08vaqXim7jM7YRhS8HvicLf+RcFpqob9Yehfa8d1dPw/Wl8VwF0pQHg/26wu40ODDGIsxJ6xEBQu3bh/n21WC90D+XS6B67Geg0AgFET/nZ0TtR/CutJxiIFv9+mrgHhb/86h72NKfxtnlr92+woAG4JdgpgLASV+MVYiLxiLESqcvjJWAgAYESEv1+61BkGdxL87tiIDnu7af3U+b/NjgPglmAns868T8EOJet2D+x5p/KI00XbQyUBAIZM+HtDzNZ06Bt8SfCbQYwrHMthbzedP2eedI4AuDEWogyCHSqRugf+k270ugfySB8y0T3wrTY+AGCAUlXV98Lfzzn0DW4l+M0gZQGzzSplWG9G98X/7cnjH5qMAXCrHQsh2MlEsENF0o3+Q7R7kMGNsRBmiQMAQ5DWNAcOIf5cHHj22xZ+KQEZQ7COwjnBbwZROJpGPvw4ui/+b9fP/ZzKHQC3BDuZmfdJJdKMn38ZC5FXdA+k6/9uzNcBAKjeUvj7pQhbnjxn8gZBGTVrg9+9VDgn+N29GB97aRTN86p/m4IC4EawU4bOWAjBDiX7NBbCu5RHdA+ktsDvdQ8AABW6Ts89wt/PRWfuqUPfGLllzAR/GcHvk+eu8nSzzSqFnu/dj553+FurpAC4Zd5nZoIdKvJmtll9jBY1MkgPTdE98NpYCACgEtdR+SvU+dL5livtVExSk5R//DSfTPfMBM8n5v2mzblfxnoNbjjdxudViQFwqx0LIdjJRLBDJVL3wL/TQHjdA/nEAslYCACgdGfzyXRf+Pul2WZ1GgVZ2yQApgZncRDkQXRFk0lkgB+NfPjMs8c/NIUHwI1gpwyCHSrxY2waGQuRSad74FVU1gAAlCSFv0fekS/FnM2fS3td0KN2vu83cbCbcTCZxbP8v418+MzFtmZPv/i//y4P4gKXLn1zLtL8lQpe62DFgQCndmMoXJrZlD7EL71R+cw2qxQGn/gABwAK8FpL9+3iMPZ/9fTLfzOUauuoTKwhO+HrrqKl3v2gEDH+9byHDoQheLWtXKOmALgl2CmAYIdKXMT9QotfJvFhvlBRAgBkkgqJjoU9t4sCn8u+nuvmk+mLPn7dHATAVWsP0Vqo9C1LfF+dy5ZutUzzqLf1i5U+AuI23bEQDonLZD6ZLmIsxNkoLwC1SGMhPsaGBRnEWIgjYyEAgAzWcdib8PcWMWaxt/A3ircgp+s402jPmIfyGPlwr61OQKixArgrfaCfRBhJJrFjszAWgsJdR/WH7oGMdA8AADuS1n6H25qdODRRTHXZ8zPcVRwqPggqgKuh2rdwsfnUx6GTQ7LV6t+m0grgrhQg/DbbrD7EzZgMUqCWTtJtmubXuNlCib6L7oFT3QP5xIbdfoznAADow0VU/gp/79Z3+JsYw8YuXan2LV/MHP8g/L3X1jtXag+AW4KdAgh2qMTPxkLklR7G5pPpYYyF0BoIAGzTu7TOcAbE3dJz8466NwVw9C09S7xrmubbVG2exr343i9Tyupmm9UiDpzUDfp16+iy36qhBMAtwU5mgh0q0XYPXMbBF2QQ3QOpreWt7gEAYAtezydTz4JfEeHvrg7nVYFNH9ZxFtGr9CyRvudV+5etc9jkL2O/Fg+06GMjY2gBcCPYKYNgh0qktpPf006k7oF85pPpie4BAOAZ0vPG9w57+7oolNpV+NsIgNmyi9jkeRkjHpztUoE46O13Z0Y9WC/Vv81AA+CWYKcAgh0q8Ut0Dxx5w/LodA/8pHsAAHiEdNjbvnmfXxfr3N92/Nt6T3iui5jr+02MdrHJU4l00FsqzGya5s3Yr8Uj9TbG5MX//Xc5hpMs13H6v5tFRnFQX3oP/jnai0ANruJ+YcGaSWzaHVssAAD3OIt1m5mfXxHh7/td/77zyfTFrn/PPsXz7NCzkxJcR25gnm+lotvgxKzfJ/m2r5EmYwmAW4KdzAQ7VORtX7N3eJi0axyLPyfEAgA3/RqHkhSi6QAAIABJREFUUPMVndmbuw5irtKhXEN6bwTAvUqVvufph+evekXek57ffhz7tXiiszTepK9ffGwBcCudEnnixpKPYIdKLGPT6Nwbls9sszqMOUi6BwCA1N15aP7n/TKGv03fQUYOAuCtE/oOSDyznar6fZbeqn+bEQfAjWCnDIIdKpG6B46cLptP7CafODkWAEbtOsJfa7J7ZA5/k7dxHsxgCICfbRl/Js/lMMOh6ndret80G3MA3BLsZGYsBBUxFiKzeJhZ6B4AgNEx7/eBCgh/k1dDq9IWAD/JdafK1yjOgVH1uzWps2Wv7883AfDfBDuZCXaoxDI2jbQdZhSHmSwsNgBgFF470PthorgmrVO/y/xSem1lzkEA/CDrCHwvjXYYLlW/W7eTjgkB8OeMhSiAYIdKXMT9QvdAJsZCAMDgLWPkg8rBBygo/G3mk+mL3K9h2wTAd7pqQ1/fq8M326yO4xlMXrMdO6n+bQTAdxLsZCbYoRLr6BwY1Hyz2kT3wGkJDzsAwNZcRNeVCsIHKCn8TYHgfDI9KOB1bJUA+JOr+LN2qStyPBzk35udzUsXAN9NsFMAYyGohLEQBbAbDQCD8et8Ml14Ox+msPA3eTefTI8LeB1bNeIAWOA7crPN6iTObfKctV07q/5tBMAPItgpgGCHSqhUySwegNID48+jvhAAUCcjHx6pwPC3GerM5pEEwOv48/RB4ItOy97tdLNTAPxwxkJkJtihEmnRdKJqJa9YoC8sVgCgGjbSH6nQ8Df5fogh/kAD4Osbga+8AyM5d2M5n0z3dvkbCoAfR7BTAMEOlbiOTSO75hnpHgCA4nnGeoKCw9/1fDJ9WcDr2LoBBMDXEfT++cNzCreZbVaHUfXr+alfP80n0/Nd/oYC4KcR7BRAsEMlzuJ+oZolkziwID1U/jjKCwAA5bqOql8jHx6h4PC3GeoBcE19AXCa2/tR2MtDOeRtp7LcJwXAzyPYySwWP6eCHQqnsqUAsWhP94t/jv1aAEAB3sX6yLPUIxQe/ja7PNF+1woNgK+7QW/6exsqPEbcU1Jx3RsXbmde5diUEQA/n2CnAIIdKqHKpQBOsQWArNaxHtpp6+sQVBD+NjnamnclcwDcVvR+FPSyLTHuYSFH2amz+WR6lOM3FgBvj2CnAIIdKqHiJTNjIQAgixRiHVoDPV4l4W/yzVDf354D4HUb7N748cH3C9tm3EM26ft8P9dhiwLg7RPsZCbYoRLrGCFz6g3LR/cAAOyErslnqCj8vZ5PpvsFvI5ePDMAvoq/ppD3j07I+4ciMnYl7iWpaO4XFz2LrCNyBMD9EOwUQLBDJa7ifmHhl4m5VwDQq+uo+s1S8VS72Wa1H880pYe/ybv5ZHpcwOvoxY0A+DqC3Cb++uGWv1e9SzEcop/dcj6Z7uV8EQLgfgl2MhPsUBHdA5lphQKArRvsgWC7EOHvZUWBzWDn/0KtFMYVI/v9UQC8G4KdzAQ7VGIZm0YWzhk5DAEAns35KM9UYfjbDHn+L9RGBlKUq/lkepD7BQmAd0ewUwDBDpW4iocmrZKZ6B4AgCdT9ftMlYa/g57/C7WI55iUefzsTSvGtyU82wuAd0+wk5lgh4q8TR/eKinysXMOAA+m6ncLZpvVUYQ3tc3pHPT8XyhdJ+c4Nue3KMVsigqA8xHsZCbYoRK6BwqgewAAvkrV7xZE+Pu+0pdv/i9kUvHG0dBlP/itSwCcl2CnAG6WVOIi7he6BzKabVYndtUB4BOHXm9J5eFvM59MXxTwMmBU4r5xokilWK/mk+llKS/uHwW8hjFL36T/mm1Wl1GNSgbzyTRVAe/FYX1Qqh+bpvkQASSZRHVTul+ceQ8AGLF10zS/pkNthL/PN9usTmsOf6NQAdiR2WZ1MNusPsZ9Q/hbpouSwt9GAFyMHwQ7eaVRHDGz6vuoZIASparTN+nDPn3oe4fyiPvFkfsFACOVwr79+WS68Afg+SL8rf2wpqJCDhiqCH4vo4tf8FuutEl6VNqrMwKiPMs4PMGHaEbGQlAJYyEKYD4wACOxjucU4+u2IA5sOo0ur9oVccI9DFUU/5w4v6gar6PTvCgC4HIJdjKLRdliADvyDFt6GDtRhZOf+cAADNi7WG84wHoL4jkjFfx8V/0XU9ghRzAkgt8qXaXxSCW+cCMgymXeZ2adNu9XTdNcj/piULIUNv4226w+GAuRV2c+sHniAAxFWgN/n0alCX+3Y7ZZ7afnvIGEv4mKcNiyG6MehL/1KHL0Q0sFcB2uoxrYWIiMZpvVcey+qe6jZGdxv/CQllEc7HmigwCASukw6kGEv5cDe54o6pR7qJmK3+r9WvLnpgC4LoKdzIyFoBIe2gphEQdAhTxz9CDOGHk/sC9rPZ9MXxbwOqBqnhkGodjRDy0BcH0EOwWIG/SpQ58onO6BQsQ9YzGgdk8AhucqnjOsG7YsOgl/G9QX9ZezGJkHPEFsDB17Rqheyun2Sz/DSwBcL8FOARz6RCUc3FKIWOSd2DwCoCDreK4o7sTyIZhtVqcD7h78aT6ZmgEMj+SZYHCKHv3QEgDXT7CTWcz6XMTBfVAqD3cFsegDoBBv0zrWs8T2xei48wG3dBv/AI8Q94RjBWSDU/zoh5YAeBgEOwUwFoJKXMX94oM3LD9dBABkchHrgaLbVWsVh72dDryt2/gHeIAoGEvr/SNr/sGpYvRDSwA8LIKdAkSg82bs14Hi6R4ohGoAAHbIGLmeRVHI+Qg+041/gK+Ie8GRA+QH7XVNhZgC4GES7GQWu3ynTvGkcGnH8sjivQyCYAB6tIznAx2DPYoRT+8H+wX+zfgHuEPcB45kAYN3MZ9MD2v6IgXAwyXYKcBsszqM+cDGQlCyq7hfaAMtgCAYgC1ax1rUnN+eDfywt5uMf4COzvr9yLP/KKTP1r3aPlcFwMMn2Mms82FgLASlcxBMQQTBADyTrsAdGMFhb7f53thB+DTv+9iYh9F5VeMoJQHweAh2MjMWgkosYzag7oFCCIIBeKSzCH4VgPQswp/zkVX8LeeT6V4BrwOyiTEPxwM/6JHbvZtPpsc1XhsB8LgIdgoQHxYLQQ6F0z1QGEEwAPdwIPQOxai30xF+Jr+dT6YnBbwO2Kko6GrHPFiLj9P1fDLdr/UrFwCPk2Answhy0sLpl1FfCEq3js4Bi/zCxEbSiRljAMTa/qTGdtRazTarkxGPd/vWcyRj4lA3Qno23q/5/icAHje7t5lF29jChwmFW8amkQfLwgiCAUZN8LtjUcSRqn5/HNUX/rer+WR6UMqLgb7Ec/qRal86Xs8n09OaL4gAGMFOAYyFoBIX0Vqq6qMw0YZ6bDMJYBQEvxmMdN7vTdUHIHCX2OA5NNuXW5zNJ9Oj2i+MAJiWYCczYyGohLEQBZttVgexaB1rZRLAkAl+M1Gs8af1fDJ9WcDrgK2KQor042dXlltcN01zMJ9M/6j94giA6RLsFCACnIVdRwp3HZtGHkILFIdUnFjIAgyC4Dej2WZ16vP0T9WefA83GfHAA60j/B3E4aoCYG5jLEQBZpvVcQQ4PpAo2VkEwdXviA5RdBYcxw/3EoC6CH4zis3Uc0UZnzj8jarF93Q74sH5GTzEoMbeCID5GsFOZhHeLFQdULh1PKAuvFHlcmAcQDUEv5lFS/ipzdNPHP5GleJ5uq30tZnDYwxi7m+XAJj7CHYKYCwElTAWogLmBAMU6yzGsQ2i1bRWs80qbZa+Gft1uMHhb1Sjc5jbofUuT3Q9n0z3h3bxBMA8lGCnALEg1cpN6d7FxpHugYJFG9yx2WcA2Z3F56b2+owiNEojH34Y7UW43XI+me6V+MKgJfRli1IR5P4QP5MFwDyWsRCZRWiz8MFG4dZxr1AtUrjOgtl4CIDdWcd6bmFdnV90x5zbEL3VW4eEU6LOTN8Dz8Zs0auhFj4KgHkKwU4BYqF6KrChcFdxv9DOWoG4rxyZOw7Qm2VsuJ0Lfssw26xSEP/L2K/DVzj8jWJ0Ql8zfenDr0MefyoA5jkEOwUwFoJKGAtRkVhctwdm2GQCeL6rqPY9dy3LEJ9150KkrxrcIUjUJwoU2vEO1qX0ZfD3OwEw2yDYySwWsKdmllE43QMVipPQj7TWATzaOgJG830LE59tpwoo7vW9Yh92rTOerA1+fZ/St3Tm1cHQMy0BMNsi2ClALGYXdkYpXKqCOvIwXBdVwQAPtoz12KkCibJEsLQw6uhBruaT6UEFr5MBmG1W+50qX1X57NJgD327SQDMtgl2MouFbRoJ8WbUF4IavHX4TZ1UBQPcypiHgkXAdG4T88F+8meZvkRhwUGn0leVL7kM9tC3mwTA9EWwk5mxEFRiGd0DHjAqFBtOR7Hp5IEaGKN1rLcWCiDKFWdmKI54uOV8Mt2r5cVSvlgzdgNf60ZK8HpMXewCYPok2CmAGWdUQvdA5aKy6tisNmAkrmLEg/FnBVMQ8WSjCkXYvk7g2/4w1oHSjO6QSwEwuyDYySw+gFPlwy+jvhDU4O18Mj3xTtVttlkdRRBsRAQwJKp9KzLbrI5j/WtT8nFU//JosdmyL/ClEqOccS4AZpcEO5lFhd5CFQSFW8am0ShmMQ1ZZ0TEkQcBoGIXaXasisg6xGfPqU3IJ1P9y73iufKgE/oa6UAtrtOf2TGOKxUAs2uCnQJEdd5CRQSFu4gxMqqsBiAqQ9ow2EMCULplrJXOfQ7Vw+izZ0tV7nvOcaGrM86hG/r6HqNG6R63P9bPdQEwuQh2MjMWgkqso9VW98CARNVIOyZCGAyUIn3mnMfnzgfvSj1U/W6Njs2Ri++lbtC7b63GQKyj8ne0n+8CYHIS7BQggphT7dkUTvfAQM02q4NOGKyaBMjhIg50c3BxhVT9bo3q35GJ7qw9YS8jMdrxNrGx81IATAkEOwVwUAaV0D0wYPEQfygMBnbgKkLDc4FXnVT9bp3q3wGLDfe9TtBrjANjMurZ5rPNKmVtJwJgSnIRQbBFeCaxkE7z7n4e5QWgFroHRiDC4ANjIoAtuu6EvjYSK6bqd+tU/w5AZ3xDt7J3zzqKkTubT6ap23CUotDvt6ZpXgmAKU1afJzMJ9OFdyaf2CFeGAtB4XQPjISZwcAzCH0HRNVvb1T/ViSe1W6GvSp64UtjD3/TfeEy7g0CYIp1HW3egp2MjIWgEsZCjEgsZNq5wTapgNsIfQdotlkdRYGCdel2qf4tTKx12oD35l/9+YeHuY5D30Z7b5ttVh86z0sCYIp3FsGOBUkmcTjAQqUFFXgboyHcL0Yi7k/tmAj3KBi3i6hyEfoOTNzrU6D/w9ivRU9GPRtz16J6t+lU7rbBbuPPOGyN8HezSoV8bzr/SgBMFYyFKEAsVk61X1O4dWwaeZAZIXODYVTWbeDrILfh0o3Wu+V8Mt0b+NfYm06lbuug8/fd/6ZyF3Zn9F0Nkd3czHlfvfjf//4n2KEWVxHsfPCO5RM7SccWMRTOGJmR64yKOFRRA4OxjMD3cj6Znntbhyvu4adG/fRO9e8j3BGqAOVYR+XvaDOjmJX/8Za85q8AuPMTBTvU4F1UBKv0yMRYCCpiPjDtQuhAdTBU6aoT+ioCGLi4X6dn0l/Gfi124Ho+me5nfxUVEQBD0UYf/jZ/3afO78hpPg+AG8EO9dDmXYBot14IU6iA+cB8cmN28IGNbyjKsjPa4dJ9ezxiXXnqnrwzr3RKPY4AGIr2vfD3z7FJv93xn78MgDv/o2CHGhgLkVlUahzfGDAOJTJPnFt1xkUcCIRh59pZvg5wGymHvGVxNZ9MDwp8XUUTAEOxRj/OJp5nfv/KT7k7AG4EO9RFdV9mFu9UZBlBsA4CbiUQht5ddQJfm/gj5Vkzq9FXyj2FABiKJPz96/P08p65+V8PgDu/mGCHGiyjGtihIBnpHqAiVxEEa3/kqwTC8Gxt4HvpnktjvZjb2XwyPRr3JXgaATAUZ/Thb/PXvSldg5/v+WkPC4A7v6gPamqQHjKOtBDm4wAPKuOewaN0ZginH/tOqYfPtCMdPgh8uUlhUXbp+3NP1+TTCIChKMLfv+5LaUPv/QN+6uMC4EawQ12MhcgsquYWFvlU4iwqggXBPEqsjfZvhMKqhBmL5Y3AV1s5XzDuoRhv55PpydgvwlMJgKEY7+aT6fHY347IWy4f+Nzx+AD4xm8k2KF0y6jsU32SUexKLQQiVOJdBME2j3iyWCd1f1gvMQTrNujtBL7ulXyVdWAxlvPJdG/sF+E5BMBQBGNsHj73t+vpAXDnN/WBTg0uYj6wyr5MdA9QmXV8tukiYGuEwlToKoLeNuy1juLBIixbGJNTjFeKYp5HAAzZCX/DbLNKZ1/9+Ij/5ZtnB8CNYId6rCPM0faUUQQgpx4GqIQgmF7FPXGvM0Jiz1kLZHCzsvejUQ48Vcz5XTzywZR+Xc0n0wPX+HkEwJCV8DfMNqs0/uK3x/w/88n0xVYC4M6LEOxQA2MhChA3rRPdA1TCBhI705kp3A2HzRVmW1JV78f48Wfga4OLbTDnt2jfquB/PgEwZCP8DZG7/v7Y/2/rAXDnBQl2qIGxEJnFg0KqEPl51BeCmixjPvDoT5xl9+4IhlUMc5ebQe8fqnrpi+e/ojn4bUsEwJCF8DfEs8DHp3zW9hYAN4Id6rGOMGfhPcvHjDgqJAimKHEffdkJhfdUDY/CdQp224C3nderopddifNgTmxEFcvBb1skAIadE/52zDarD0/NTHoNgFuCHSpxHdXAxkJkpHqECgmCKV60irXh8MuYNdwIiKuw7FTxfvZDBxM5xTPeicMsi+fgty0SAMNOCX87ZpvV4jnnru0kAG4JdqjEWQTBKmcyie6BUweHUBlBMNXqBMRt5XDTCYmNmOhPG+42UcHbRAXvHwJeShX3i4XgtwoX88n0cOwXYZsEwLAzwt+O6LZ5/4xf4s9ukJ0FwI0TYamHsRAFiAXWqeCByqzjc25hI4mhifty06kmvvn3jariP+futtowt+n+vWo8ahTPcSfG+1UjrUf2rEW2SwAMOyH87YiN18tnrq+v5pPpwU4D4JZgh0qksRBHDkzJa7ZZncSJ0roHqIkgmNHrHFrXdXDLdWkrkG/TZwVytwL3NrcFtTf/nXm7DJrgt1qvdSVtnwAYeufQyo5YS3/Ywlo4XwDcEuxQiXdREewBLxPdA1RMEAxAdeKh8+Q58wbJ5s8HfZd/+wTA0CsbVzc859C3G/78XPhHT6/zQSLZT1UfFzlfB9wjLXw/xtwVMkhzEGOG2auo2IJapA3ON3EPOY3NDAAoUgp+o0jno/C3Smnj2TMLUBvh7w3p2XFL4W/TdrBlDYAbwQ71SCHO+9lmdRkzWMgg5iam6//W9acy/y/aZ/8jCAagNDeC3zc6NKt14gBJoDLC3xui+HDro5eyjoC4KVqNjmPRASUzFiKzCNBOnUJNxa7iPuJAKACy6Dx/GctXP6MfemYEBGxV6lg4Fv5+rqf7zJ+zlYsKgFuCHSqxjBvWuTcsn9lmdRgzVh0qSa2uY0awxQ8AOyH4HZwUpOyr/u2XABi2Jt2zDhy4/7noNr/s4XP5VSo6KjIAbgl2qESq4juy4MpH9wADsYzPvFPdBQD0IQptTvpoLSWrX+eT6cJb0C8BMGyF8PcWkWlcbnHub1f5AXAj2KEub530n1fsmC10D1C5dXTBLGwsAbANgt9BM/phRwTA8GzXUTwn/L1htll96Cn8Tb5Nz5XFB8AtwQ6VMBaiADE0faGlkQE4i4pgc4IBeLR4hjoW/A6W0Q87JACGZ7mOyl8FczekQ8L7/JyeT6YvmtIOgXsIwQ6VuIgg2GIsk+geSJUuv4zyAjA05gQD8GARVJ0onhk8p+fvkAAYniyNzTwU/n5ptlmlTdrfevwt1vPJNGUj9QXAjWCHeqwjsDnxnuWje4CBWXfmBNtgAuAzUSxz3GMbKeW4mE+mh96P3REAw5OczSfTI5fuS/GZ/b7n3+bTmKAqA+CWYIdKLGPOjRbujGJn7UT3AANiPAQAbXFMG/w6PHsc0obwnmq63RIAw6O9m0+mxy7blyLP/H0Hv9WnzcKqA+CWYIdKGAuRWTwgLczBY2Cu48/1uQdBgPGIg92OI/z1HDQur2wA754AGB7FiJo7RPh7uaPP7rdtV/o/dvCb9W4+maYH372ohoJS/dg0zYfYsCDPveKPaD95FaEZDMF30Tr0MR0gEAsKAAYqhVBxYMx/YiSe8Hdc3gl/gYKtY5NK+HuLKEo73+Fn96cCxEFUAHfFrtzC3CsKdx3VwBZvGekeYMCuYjyEhRfAQJjvS3qGmE+mNnozUQEM91rGYW8fXKovRfh7uePP8U8dI4MLgFuCHSpxFkGwtu1MjIVg4NIO/GkcSGn8DEBlYsxDG/x6rhm39Jm+7/M8HwEwfFUqcjuQbdxttlldZjjD7Jv2PRlsANz8HeycRus9lCot5k5ilAmZxILu1OEpDJhZwQCViHXJsecYOszTzEwADHc6i1GL3CFGN+266Gw9n0xftv8w6AC4JdihEsZCFGC2WZ2osmHg1jF3aqE9C6AcUbzSVvt6bqFLuFIAATDc6lfFbF+XKfxNruaT6UH7D6MIgFuCHSrxLiqCVehlEu2WC1U3jMCyUxWspRQggwiVjoyj4g7aqgshAIbPpKKSo/lkeu6y3C3m97/P9Nt/tnk4qgC4EexQj3VUA2vzykj3ACNzEUGw+w5Az1T78kDrCH917BRAAAyfOOztATKHv83N6uzRBcAtwQ6VuIog2I01o+geeDPaC8DYGBEB0BPVvjzST6rryiEAhj9dRfirK+ErCgh/k1fdEaOjDYBbgh0qYSxEZtE9cJrh1E7IadkJg42IAHiCWEMcxQ/FJzzUu/lkeuxqlUMADO5LDzHbrPabprksYPzsN90MafQBcCPYoR5m7BRgtlkdxhgZD3CMzXV8VpoXDHCPGPFwGKGvZwwe63o+me67amURADNisogHKij8Xc4n073uvxAAdwh2qMRV3HwFMJnEQ92x7gFG7CIqg891JgD8rTPi4dDB0zxRClr2fL6WRwDMSF1H/mA03D0KCn+Ti/lketj9FwLgGwQ7VORttGVbHGaiewD+JAwGRi0e+NrQVyEJz/W9oKVMAmBG6CLCX2v8exQW/iZv55PpSfdfCIDvINihEss4JE4rRkYx4H2h0geEwcA4xLNCO+LhO287W/J6PpmeuphlEgAzMr/OJ9OFN/1+UUj6sbA84LMD4BoB8P0EO1TCWIjM4qafdth+GfWFgL8Jg4FBEfrSs7P5ZHrkIpdLAMxIpCKzQ50IDxM5wGWB64Jvbj6DCYAfQLBDJdYxEuLEG5ZPtH4sdA/AZ9ow+NJGFVCTzmFu6ceP3jx64tC3CgiAGQEjHx6h4PD3iwPgGgHw4wh2qMQybtqX3rB8dA/Ana5jxNK5MBgoUVT6Hgh92ZG0dt8XuJRPAMzAGfnwCAWHv81dHSUC4CcQ7FCJi5gPLGDJJD4U0r3i51FeALjfMiqDT7WZATkZ70AmqYPvwGdgHQTADJSRD49UePjb3BXmC4CfSLBDJYyFKEAsFhceKOGr1u3M4BgVoRIK6FV097XjHXxGk8NPDnOuhwCYATqLojHr7geqIPxNvr8t0BcAP5Ngh0pcx43dWIiMZpvVccwT1z0A97uIxZVREcDWzDarw854h3+6smSk3boyAmAGZB35wKk39eEqCX/X88n05W3/QQC8JYIdKmGHLzPdA/Aky05lsEop4MFuHOJ2YK1OIW6dz0jZBMAMxHWMfFBg8QiVhL/JxXwyPbztPwiAt0iwQyXSbt+JioO8YgF5qvoInuSqEwibVwZ8xmgHCnc1n0wPvEn1EQAzAG+Nh3y8isLf5mvdJQLgHgh2qISxEAWYbVbpA/hYRRI8WTs7+DICYdUMMDJxgNtBZ7SDz1RKdR2HvunGq5AAmIo56O2JKgt/m7vm/zYC4H4JdqiEsRCZxYNr2qX7cdQXArZjeSMQdm+DAerM8j1Q5Usl0oblvo3KegmAqdS76AC2Jn6kCsPfO+f/NgLg/gl2qIQh8AXQPQC9uG7DYIEw1Cs+I9sfP3grqcw6Kn9V31VMAExlUlHEkY7fp6kw/G2+Nv+3EQDvjmCHSlxFEGxxmpHuAehVNxD+oBILyhRzfNvAVyEFtXslhKmfAJiKqPp9hijkPK+ww+jO+b+NAHj3Ith5M7avm+r4wMgsPnROVTlB75Y3AmEbYJCBCl8G7PWYu+xmm9XRUL5+ATAVUPX7TLEBfVlpMda3XytuEQBnINihEsZCFCBmHC50D8DOrNswOEZGWEDDlkVbZQpS9gW+DNzYw9/9+Cy9cyZlTQTAFE4R1zNVHv4u55Pp3td+ggA4I8EOlbiKXURt0pnEg/Kx7gHI5roTCqsShkfqjHNo/2rtyxiczSfTozG/07PNKn1efjefTF8U8HKeTQBMoVT9bkHl4W/ybj6ZHn/tJwiAMxPsUJG3acPCjmI+ugegKFc3QmGbZPD3Z9W+6l5GTvi7WaVCp1/S3wuAoTee0bdgAOFv8tN8Mj3/2k948X//XaYv9NAfmrwEO1RiGWMhvnpjoV/RPXDqkDgoyrodG9E0zUeVwozBLWHvvs8mEP7eDEoFwLB111H1a635TGlOedM076v+Ih54n00BcHsTE+wUQLBDJYyFyCy6B07aygqgWFcRDLehsPY8qhTVMenHnrAX7nQ9n0z3x3x5Yo36sXt/EADD1qxjzu/CJX2+oYS/TdNczCfTw/t+UjcAbgl2MhPsUJG388n0xBuWTzyQL3QPQFWW8XDcVgt/FAxTiqjqbUPe9u99xsD9UkXewdi7amebVSoo+7H77wTAsBUXkdXp3N+C2WaVRrH+Vv0X8pcHHTh6WwDcEuxkJtihEobOFyB2LxeqsaBqgmF25kbQ+7IzysHnCDye8PcrgYoAGJ7F8/ZBzuY2AAAgAElEQVSWzTarFJb+PKAv6ZuHfP58LQBu/EErg2CHSlzEGBndA5noHoDBWnfGSHyMv//D+oz7xOfCfqeSdz/CXsUFsD3C37+Ll36/7b8JgOFJ1nFWl8LMLRpg+Hs1n0wPHvIT7wuAW4KdzAQ7VMKHVAFicZo2jb4b+7WAEbgZDn/sVA9bt41Ap5JXyAu7J/z9+1k1fRb987b/LgCGR5PBbVncpy4H+Iz860NnQj80AG4EO2UQ7FAJ3QMFiDa8E90DMGrLG8HwH/GQ3rhH1yHWfk0n2G3/undX2ALsRLq/7o89/G3umPvbJQCGB7uO4NcabYsGHP4m3z50o+AxAXBLsFMAwQ6VOIsPsNEvjHOJD7vFwNpcgO1qQ+ImFsdNJzBuVBNvX2c0Q9Op3G2Eu1CNdVT+fhj7W/aQg5QEwHCvdE85eWglJw8X42nS+naI2dn1fDLdf8DP+9NTAuCWYCczwQ6V8GFWAN0DwJZcRxVxcyMkbtrZxN1/HsM6sVOh2+r+czfcfekeDIMg/A1fm/vbJQCGr3oXz8uytS2L79nzARdOvp5PpqcP/cnPCYAbwU4ZBDtUQjtLAWabVeocONY9AGTQziu+6WaQfJttf3a0lbZ36VbodqnMhXET/ob75v52CYDhVub89mi2WR01TfN+sF/gX755zMbBcwPglmCnAIIdKqF7ILM4MGjxtVltAAB8Rvjbcd/c3y4BMHzmKgop5Wc9mW1W6Vn3l0F+cX+7mE+mh4/5H/6xpd84VZ7+e7ZZncZOIBnEAX37sZMEpUojSz7Gjhx57hUf48PiVcz+BADgbkvh799i7q9CAnicZbTsHwh/+5HyyJRLjiD8bWK0xaNsKwBuCXYyE+xQiVSl/n62WV3G7DAySAuP+WSaqoHfRlULAACfS92u+8Lfv0QV7FcPfQM+s47gd+8x81p5nChGvRzJGVnrEgLgRrBTBsEOlfghHRyRWjR0D+TT6R64Gus1AAC4xXVU/hpd9vcYsUeHDjBS68hjBL89i+zx44jOxTp/yudSHwFwS7BTAMEOlfhF90Be0T2QKjp+0j0AACD8vcWQT9OHbekGvyfuIf2KDOFyZPemJ20o9BkAtwQ7mQl2qITugQLMJ9Pz2DR6O/ZrAQCMlvD3hpir+ZTquuteXxiUQ/C7Y7PNKhU8vh9Z+Lt86gzpXQTAzY1gZ29Hvyc3CHaoRNs9cKJ7II+0WInugW91DwAAIyP8vSGKuZ46V9N1ZAzeCX53Jw57S/nWm7F8zR1PHieyqwC4lYKd/wh28hHsUJF0M/8w26wOvWl56B4AAEbmQvj7uejMe1/Sa4JCtBW/38wn02P3jd2Ie1KqgP1xDF/vLaoJgFuCncxuBDsOiaNU/2ya5l+6B/LqdA+8G/N1AAAG7Ww+mR4Kcf4W6+8ntRrDgBn1kElkiJcjOuztpouU5T31f84VADeCnTJEsLMn2KFwugcyi+6B46Zpvtc9AAAMTAp/nVnTEWvubRz6JhxjKAS/GcW833+N/CDKJ1f/NpkD4NanYKeA1zJKgh0q0nYPHHjT8phPph+ie+C17gEAYADeCn9vtdhSld2HHl4b7FIahfer4DePkc/77VpGAeeTlRAAt97MNquPgp18BDtUInUP/Dt9COgeyGc+mZ7qHgAAKvc6zkehI4qznnroGwzFMu4RKfhdCH53z7zfzzyr+rcpLABuBDtlEOxQiR+jGtiiPZMb3QPXo7wIAECN1hHsPPuBemhmm9WRSjtGLnVFv4rg1z0ik7gXjXne702L5/4CpQXALcFOZoIdKvH/dA/kF90D+9EapXsAAChZWqscCHa+FNV2zw4ZbnCIHLU4a5rm29QVPZ9M/bnNaLZZpfvQ+5HP++0620YFeqkBcCPYKYNgh0p0uwccEpdJao2K7oGzUV4AAKB0ywh/zaW9ITpwLwUujMwyDnb7Js0Cn0+mH/0ByCfdh2abVbo//zLWa3CHrWzMlRwAtwQ7BRDsUInUPZA2jY69YXlE90Bq13mlewAAKEhal+wLf78Uz9nnPYW/5qZSoqvOfF8HuxVgtlkdxqGRRj587mpbn1s1BMAtwU5mgh0qkRauv6WdQ90D+aS2Kd0DAEAhLqLyV8hzu/O+QheBOwVZR0Hb9zHmwRiYQsTIh3/pQLjV1sbyvPi//y5TQPLv7b6+3qXw8dhclrwijD/xTUrhzuJ+YcGfSbQULpzeCgBkcBZFLNxitlmlEOznvq7NfDJ9MZTrHsUltWUn/DXmIT2LnHomLEs8J/a2ATUAy1Slvq0vo6YK4K7vYizEqbEQ+cRYiP3YUYdS/ax7IK80S2s+mR5G98ByzNcCANip18Lfu8Wh672Fv9FmD7mkQqBXMeZhIfwti5EPD3KyzV+s1gC4JdjJTLBDJdqxEJdxujEZxFiIvThowVgIAKAvaZ3xkxbvu802qxSMvyn19cETpW7x151D3XSNFyYVcUbngZEPX7eO6uitqT0AbgQ7ZRDsUIkfmqb5Pc0Y0j2QTzpoQfcAANCTdcz73eqD85BE5d37HXxJwjd2IX3Pv4vZvumgR6MeChWZ3WXPnQdDsfWq9SEEwC3BTgEEO1Til+ge0BKYSad74CfdAwDAlqTqvz0Hj90tAhiV0QzBRVT6v5xPpse+78sWnfu/G/nwIOttHv7WGlIA3BLsZCbYoRKpe+C97oG8ojpnP7oHAACe6iyq/1T+3aFTfbertmsVwGxbd8TDoUr/8qWD3tIzd+rcH/u1eIReZlYPMQBuBDtlEOxQCd0DmaUPt+ge+NZhIQDAE/zqsLevi3Xu+Y5nbgrj2YYU+v6anhWMeKhL56C3H8Z+LR6ply6NF//33+VB0zT/7vOVF+BtXwk6D5N2feIPsW98SpYq1o/tJOcVC4XU8vLPMV8HAOBeqU32yNrt6yL8vdx16/V8Mn2xy9+vb7PNagzZSSmWsWGRcpyPY78YtYl7Tsp/fhz7tXiCs742NIdaAXxTOt30Q4QKZBBjIQ6MhaBwKXD8V3QP7Hmz8tA9AAA8wLXD3u6XK/z1zMcTLDuHue3FXF/hb2Vio+Sj8PfJTvr6hcdSAdx1FbvEbiSZxCLkJOY1Q8l0D2QWY3wWugcAgI6LeKazRrvHbLM6zxTEXEUB0GCoAO7FdVSKnsto6ibn2Yreqn+bkQbALcFOZoIdKmEsRAHiYM/FjufWAQDleRtnB3CP2WaVgrWfM12nwb1PAuCtuYiqdKHvQMT3xqkRfs/2bZ/fE2MOgJsIdtLOsdNJMxLsUImLCIItUjKxqwwAo5bm/R56dnuYzOFv8jod1pXx9986AfCTrWOeb/pxqQhvODyfbVWv1b+NAPgTwU5mbhxUYh2dA6pOMtI9AACjcx3hr+e1Bygg/E1eDS2sFwA/ynUb+s4n0w8VvW4eSNXvVqWcYa/vzREB8N8EOwUQ7FAJ3QMFmG1Wx7FxpHsAAIar96qoISkk/E2H+r4Y1IUVAN9nGWMd2tEOqnwHSvFeL3YyMkcA/CXBTgEEO1RC90BmsQBZlPCgAwBs1TrWWYMaI9CnGK33voCXcj2fTPcLeB1bJQD+zPpG4Ot5aARmm9VhPHup+t2enVT/NgLgrxLsZCbYoRLphn0yn0wX3rB8YkGe3oPvxnoNAGBArqMoR+v4AxUU/jZDrdoeeQDcDXwvfW+OS2QzaTPux7Ffix7s7MBMAfDXCXYKINihEtexaaR7ICPdAwBQvbNYU2khf6DCwt9ml4HGLo0sAE6d0R8Evni+6lX6Ptvf1eedAPhhBDsFcOOhEh5aMrNDDQBVMvLhCQoMf5shHgDXDD8Avo6w90MEvjqhR875TDvxepefeQLgxxHsZCbYoRK6BwrgZFoAqIaRD09QaPg7yAPgmmEFwN3q3g8K3eiKzCUV371xYXq1nE+me7v8DQXAjyfYKYBgh0p4mCnAbLM6iUWM7gEAKM+7+WR67H15nFLD36EeANfUGwCn55GPNwJfBW3cyiFvO7XzTgkB8NMJdgog2KES72LjyGIrk9lmtReLGd0DAFCGdTxPnXs/Hqfg8LcZ6gFwTfkB8DpC3g9t4Kuyl4fyrLRzV/PJ9GDXv6kA+PkEO5m5WVEJc+0KoHsAAIpw1TTNoWeoxys8/G12PdNylwoJgLtB7x9R1fvRzF6eSlFdFt/m+J4VAG+HYKcAgh0qcRX3C90DmZhrBQDZGKf3DBWEv8n3Q13n7jgAvoqAt63o/aiil20y7iGbbGOPBMDbJdjJTLBDRXQPZBbdA6dOtgWAnTBC7xlmm1Vas/xc+MtczyfTlwW8jl5sMQBuq3ibqOD99FchL33zDJRV+t7fy5UBCID7IdjJzE2NSixj08jsu4zsfgNA797OJ9MTl/lpKgl/k4v5ZHpYwOvoxQMC4G6w+zF+NJ1xDUY1kE0Uy6X78C/ehWx+zdkBIwDuj2CnAIIdKnEVFTEWhJnoHgCAXixjjaOq8YkqCn+b3OFG36LI6KgT6CZ/qGqndLPN6jjCX3N+87meT6b7OV+AALh/gp3MBDtU5G3asNA9kM9ss9qPTSPdAwDwPLoin6my8LcZ8vxfqJFzkoryKvdmqAB4dwQ7mQl2qITugQLEISsLu+QA8Giqfp8pClgWlYW/g57/CzWRfRTnbD6ZHuV+Uf8o77oMVqo+/RAjCcgg7UbPJ9O04fE65jNBidLu7L9mm9VltJmR536Rdsr3YvMOAHiYVPW7L/x9ugh/LysLf5vOYWZAJun5MToHfhf+FmMdHenZqQDO4yIq/IyFyMQAdCqxjs4Bh6Zk5FBJALiXqt8t6IS/31X48l/HBjqwY52xl8c6GItTzL1RAJyPYKcAWiOohIeqAjhUEgBuZdbvFsSG83ml4W/yrQIn2C3Bb/Guogu9CALg/AQ7BXAqJpXQPVCA2WZ1YpEFAM11rEs8xzxTFKVcVry2WM4nU6PLYIfizJITxSlFK+pgTDOA80vfrP+ebVbn5n3mM59MFzHv82ys14Aq/BizxHUOZBSdG+4XAIzZ2/lkatbvFgwg/G2ichnYgRT8zjarVBD0XvhbtLclhb+NCuDirKN9ajH2C5HTbLM6iDbvWtuvGAdVNwUwRgaAkbmK7kXdSFsQFXyLAXQV/TSfTIXA0CMVv1UpsitCAFwmwU4BjIWgEmdxvzB3LyPzgQEYuHWsNxzytSUR5rwfwJeynk+mLwt4HTBICtSq9KrEPM8IiDJ9F2MhTmOoNxkYC0Elfm6a5mNsWJBJqnqJXd5f4yEZAIYirYX3hL/bM9usFgMJf5sYXwFsWQp+Z5vVZRRsCn/r8a7UYk4VwOUzFqIAset2qrqPwukeKIDTeAEYCOuKHqQin9jAH4rXNgdge6I74FjoW6Vl0zT7pXbnCoDrYQFWAKf/U4l3sXFkLERGcbDnycAe8gAYPgUoPYgN4ssBhjrfWHPC85nxOwhFjn5oCYDrI9jJLEKdtCD+cdQXgtKZ1VeIuGecOigOgAo4W6AHsRY4H2D4ezWfTA8KeB1QLcHvYKTRD0WPZRQA10mwUwBjIajEVdwvPnjD8op7xokgGIAC6TbsyWyz2o/K3yF2EP6qUhweLzoC2lEP8oT6FT36oSUArptgpwAxFuLN2K8DxdM9UAibRwAURGFJj6KybzHg8XHfzifTjwW8DqiCs0IGq+jRDy0B8DAIdjLT4k0l0kPe0XwyPfeG5afdC4DM3qZw0jNEP0ZQJHI9n0z3C3gdUDxngwxa8aMfWgLg4RDsFGC2WR3GLr9Ah5Jdxf1CxUYBBMEA7NhFVP1aB/RktlmdjiDoMf4B7hGdf8fODxqsqjbCBMDDI9jJrNPWYSwEpVP5UxBBMAA9u4quQXN+exLPAZcDPOztNsY/wB1iXX88knvBmH1f00hWAfBwCXYyMxaCSiyjCkj3QCEEwQBs2TKCX3N+exSHvZ2P5PP7Yj6ZHhbwOqAYnUKwI+v4UaiuC0IAPGyCnQKM4PAHhkH3QGEEwQA80zoKQk5cyH6NcL3/2oYC/CU2f47N9x2Vq/lkelDbF/yPAl4D/Umhwb9mm9VlVKOSQSyO9uKwPihVqlT/TxxYQgHSvWM+maZ7x+vY0AOAh1hHN+Ce8Ld/sXZ6P7JiDwVGjF7a+JltVqn9/3fh76ikz9gqOyBUAI+HCoACxO7gwlgICreMamAzAguiIhiABziLcQ86enoW7d6nIzzc6Ww+mR4V8Dpg56Kwrh3zoMN3nH6qtcteADw+gp0CGAtBJZwSXiBBMAC3EPzuUBR1nI70gKdqww94qlh/HynkGr1388n0uNaLIAAeL8FOZlE1sNAuQuF0DxRqtlkdRgWChSjAeJnhv2Px+Xs60kKOZYyngsFT7csN1/PJdL/miyIAHjfBTgFmm9VBBMFjrCCgHroHChX3kBNBMMCoXEXFr8/lHYp5v29G8wV/qerqN7hPFGkdqvblhpSd7de+2SoAJrmOamALyIxmm9VxhDh2FynZWdwv/vAulcUJxACjIPjNYMTzfm/6VrU5QxQFFUcR/noe56ZBjL4RANMl2MnMWAgqsY6Hz4U3rDzRrnZiAQswKILfTGKD9dzs/eZqPpkeFPA6YCtizdzO9h379zd3G0zngwCYmwQ7BTAWgkroHihYbCgdW9QCVE3wm5GDmz/zej6Znhb0euDROiMejj1r8wDVz/3tEgBzF8FOAWLO2LFFJ4XTPVC4eIC10AWox1kEv9rtM9CV94X1fDJ9WdhrggfphL6HxrjwCIOY+9slAOY+gp3MojVl4cOKwq3jXqEypGDRXXDsfgJQLMFvZjHy4dSm6WfeOjic2sw2q8NO8Kugisd6NbSCSAEwDyHYKUAEN6dauSncVdwvPnijyhUbS+14CAtigLzWsdl/KvjNy8iHOzn8jSoIfdmSQW56CYB5DMFOAYyFoBLvooJJ90DBOi1xJzaXAHZuGZv7C5+XeRn58FUX88n0sODXx8gJfdmywd7zBMA8hWAns6jeSw8MP4z6QlA63QMViS6DIw+/AL1bxlra52MBjHy41+DaoKmbmb70KJ2FdTDUrEsAzFMJdgoQu50LlXsULnUPHGkdrENsMB3FD/cWgO25iuBXmFYIIx/utZxPpnuFv0ZGINan6dn3QOhLT9YR/g62410AzHMJdjKLHdA0EuLNqC8ENXirzbUuscl0rNsA4MnSA+W5g93KEuvnU0HSvV4r+CGXqM4/itBXhT59+2k+mZ4P+SoLgNkWwU5mxkJQiWV0Dwz6w3VoHBoH8GjLzsFu1scFiVDpXJfLvdbzyfRl4a+RAemMdjgwz5cdG+ShbzcJgNkmwU4BomLv1AcmhdM9UKm4xxypmgK41VUURVgPFygOU9Y19zCjCETIK86gOFTlS0Zn88n0aAxvgACYPgh2Movd07Rg+2XUF4IaeLiolFnBAJ+sY/N9Yf1bJp1yj5b+TO+pXmfbogL/oPND0RI5DfrQt5sEwPRJsJNZfMAuLHYp3DI2jRyKU6mo3jjSrgeMzHWEvmakFsxBb08ymoo4+hWbLwfGOlCg0W10CYDpm2CnABa+VOIixsionqpUZ3bbkY0nYKDaQ90WQz4pfAgc9PYs31qP8RQ3At8DXWIUah2Vv6P6HBcAsyuCncyMhaAS63io1j1QOSMigIG5igPdVPtWIDpTzhU/PInqXx4svtf2jXSgMq/H+HkuAGaXBDsFiA/phSH7FE73wIDEOJo2DPZgANRiGRWkp4oY6qDgYStU/3Kr+P7qBr66vajRr/PJdDHGd04ATA6CnQLMNqvjWCALYyjZRdwvHEIyELPN6jDGRJgDB5SoHfFwPp9Mz71D9Ygih1NdJ8+i+pdP4nuqDXz3fW8xAKO+xwmAyeksxkIIdjKJXdy0+/XzKC8AtUgP4ydj3akdsgiDj8xnBApwFeHhubVpXVT9bpXq3xGK76H9Gz90izI0V/PJ9GDM76oAmNwEOwUwFoJKXMemke6BgekcHncoDAZ26LoT+gq9KqTqd6tU/45AnNFwM+z1/cPQpc/7g7Fv8AqAKYVgpwCzzSpVTxxry6ZwugcGTBgM9GwZIx4WQt96qfrtherfAYmgdy9GOLR/b2YvY5SKDvc8OwqAKY9gJ7NYLCwELxRO98BImBkMbEEb+qbD3D64oHVT9dsL1b+Viu+H7giHl4Je+GQdlb+j/+xvBMAUah0h8Kk3KB+LayrhUMkR6YTBB+5NwD2EvgOj6rdXqn8L1ZnP2/61rebdtzEO9/reGuBvAmBKdhVBsG/YjIyFoBIXcb/w8DISs81qPw6QOzC/HAhC34GKDcCFzb9eqP7NKIpumk6w2/54aX0Dz/JaUeHnBMDU4F20ehsLkYmxEFTkbcx1dL8YkbhHtZXB7lMwLg5yG7Cofjx1b++V6t8ti03ql/Grdv++DXuFu9Av4e8tUgDsQ5UaGAtRANUXVML9YuSMioDBu4hK30vB1XDNNqvjGPmgC60/qn8fITac2+vVDXYbc3ehGG/nk+mJt+NLL/73v//9+S8FO1TCWIjMohIjLcjfjPpCUIPruF+YDzxiUYVzoDoYqrbsBL7n3sphi/v2QqDWOyfjP1KMa9A9DeWyqfUVnwLgRrBDXbR5ZxY74KcW51TAfGA+iQ3vA7ODoXhXndDXxv8IeBbdOVVyjyQAhqIJf+/xWQDcEuxQiWWEOipBMtI9QEXME+czETZ0A2H3McgndW1cqvIdJ+vJnVP9+wSxbvj/qnvhMHzC3we4NQBu+SCmEqlC5Eh1Xz6xGEoVBL+M9RpQjXV0D6h44QuxAX4gEIadWLaBr1m+4+Wg4WwckPREs83q7gAFyCFtIB/Y0LrfVwPgRisOdTEWIjMz26jIMqqBPfxwJ4EwbNX6RuBrrMPIzTark3jOdMjbbi3nk+nemL7gbRIAQ1GEv49wbwDcEuxQiWVUAzv0KaPZZnUU9wsLekrnoDgeLALhfTOE4UHSmuyDwJebdJlm98q65+kEwFAM4e8jPTgAbgl2qIRDnzIzFoLKXEVFsAciHiUOhGl/7FsfMWLXNwJfazA+45yZIlzNJ9ODsV+E5xAAQxGEv0/w6AC4EexQD7M+CxDdA6cq5ajEWQTBgguepDM2Yj9+CDoYonU37E1/7yGMuxgpWJRvrXGeRwAM2Ql/n+hJAXDLWAgqYSxEAWab1XFsHKmOowaCYLYm1kvdUNiGGLW5isD3g+peHkP3aFHeKox5PgEwZCX8fYZnBcAtwQ6VuIgg2M0ik6gASQ8BP4/yAlCjsxgn477BVkUovK9SmAJ1w94PZvfyFDEeZ2HDqxipan/Peub5BMCQTbqP7duEfrqtBMCNYId6rKOqb+E9y8dDAZVZx5/XhQcn+tQ5ZK79sec+SY9Sh9THdoRD+nthL88V97H0mfmji1mU1/PJ9HTsF2EbBMCQxToqf61TnmFrAXBLsEMlnPxfAN0DVEYQTBZRLbwnGOaJ1p2K3o9R1Wv9w1Y5I6ZoDn7bIgEw7Jzwd0u2HgC3BDtUQnt3ZipFqJAgmCJEMPwy5gvvdUJia69xum4D3vjrR0EvuzDbrE7ikDf3njJ9LzjZHgEw7JTwd4t6C4Cbv3eCTwU7FM5YiAJE90C6X/xz7NeCagiCKVbcU5sIh19GMPxS5XD10nzePyLk/aMzusE8PHYuDng7sXYrmoPftkwADDsj/N2yXgPglmCHSlxFNbAbTEaqSKiQIJiqxAb9ficYbiIoblQQZ9XO5G2D3Sbm8zYqeSmJZ7tqLOPAJGuTLRIAw05cR/jr/rVFOwmAW4IdKvEuKoLdbDIxFoJKCYIZjE5I3HTC4u6/U038cNcR6jZtoHsj5P3gnkENIvhNz3M/eMOq8Mrm0fYJgKF3wt+e7DQAbgQ71GMd1cBOy81otlkdxv1ChQk1EQQzKjfC4qYTGLduHj60V+F9va3O7eoGK91AtxHqMiQxb3wh+K3KxXwyPRz7ReiDABh6Jfzt0c4D4JbWISphLERmESykzoE3o74Q1OosOgrM54R7dA61+5qH/JyvubcaTsUc/CUKd1LF788uSVXSRvSeAKUfAmDojfC3Z9kC4EawQ12MhcgsHkJOVZ9QKUEwAFUQ/FbvtS7G/giAoRfC3x3IGgC3BDtUYhnVwOfesHyMhaByFzEaQoUhAEUR/A7C1XwyvTl2hy0SAMPWCX93pIgAuCXYoRJpLMSRSr58dA8wAFdRESwIBiArwe9gpNEP+55R+iUAhq06iyI74e8OFBUAN4Id6vLWIU95OZSEAVhGEKxVE4CdEvwOzq/zyXQx9ovQNwEwbM3ZfDI9cjl3p7gAuGUsBJUwFqIAs83qKILg/zf2a0G1lvGZZ1MJgF4JfgfJ6IcdEQDDVgh/Myg2AG4JdqjERQTBWq4yie6B9DDzyygvAEOR2jfPHRgHwLZF59Sx4HdwjH7YIQEwPJtuhUyKD4AbwQ71WEf13on3LB9jIRgQB8YB8GyzzeognqWsjYbpJ92IuyMAhmd5bfRdPlUEwC3BDpVYxiFxQpuMZpvVcTzs6B6gdtcRBFssAfBgccD2sWenQbuYT6aHY78IuyQAhidZR0ZisyqjqgLglrEQVMJYiMyie2Ch1ZGBWMef51P3FQDuEs9KaRP8ny7SoKV1wZ6zA3ZLAAyPlu5VB/PJ9INLl1eVAXAj2KEe65jlacZNRtH6mN6D70Z7ERiaswiCdRoA0D4bpWrfI8HvaLyyDtg9ATA8ynVU/gp/C1BtANwS7FCJ66gGtkjLyFgIBug6PgPPVQABjM9ss9qLtc2h9c2ovJtPpsdjvwg5CIDhwa6j8tczSiGqD4Bbgh0qcRZBsJtgJlEhk2ap/jjKC8BQrePP9cJ4CIDhiyKYY+uZUbqeT6b7Y78IuQiA4UHkHgUaTADcGAtBPYyFKEA8OJ1qk2SArmI8hEPjAAYm5vse634cLbM0MxMAw710KBRqUAFwS7BDJczDKcBsszqJByndAwyNqovZnxEAACAASURBVGCAAYgxD0fWKzRN86sikrwEwPBVrxWhlGuQAXBLsEMl3kVFsPaITOLBaqGNkgFTFQxQmShqOdLdSLiYT6aHLkZeAmC4VSo8OXTmUdkGHQA3gh3qsY4ZOcKZjHQPMAJtVfCp7gOA8sRIu7ba13qE1rJpmn0FI/kJgOELOpsrMfgAuCXYoRJXEQS7eWYSD17poevNKC8AY3IdG6TnHigB8pptVvux/jjUvcgtvvd8UAYBMHzmIsJfzxIVGE0A3IqxEIIdSmcsRGbRPZA2jX4Y9YVgLM4iCD73jgPsRmw6HzrUjXuY+1sQATB84rC3yowuAG4EO9RjGdXAApmMZpvVYVRJ6h5gDNJ959yICID+qPblEc7mk+mRC1YOATAYX1mrUQbALcEOlbiKtgqn+GdiLAQjdR2bpefuPwDPY7YvT5A+hw90BJZFAMzILeOwN4UiFRp1ANwIdqjL27RhYRGYj+4BRuwiKoPNCwZ4hCg4OXIg9f/P3h0et3Fk7QLG7m9UrTcBmI5AdASmIhAdgagIRAdwxxQSWCiCBSP4yAiWjGDJCK44EQh15/93q+0De0yREkgC6O6Z56li2bvrtaEZeTDzzum3eaJVhL9ClsIIgBmx6wh/PQtUavQB8Jpgh0qohShA07UnsXrAsk3G6DIqIlyHAB4QFQ8n8eNeged4Z3l1mQTAjJS+3wEQAN8j2KESaiEyi9UDaVPJ96M+EIzZqjcVLAwGRi2GSY5VPLAFgpaCCYAZmVXkDu71B0AA/ADBDpVYRSXEmROWT0z5LKweYOSEwcDoxDPDuuLBfQDbcD2fzo4cyXIJgBmR2wh/VdEMhAD4KwQ7VOIuLsxXTlg+Vg/AH4TBwGD1Qt9jvb5sWbqnP9SvWTYBMCNxHtWTrkcDIgDegGCHSlzGRVotRCbxUJiuFW9HeQDgS8JgYBBiM7dj3/HsiE3fKiEAZuBWkSnoIB8gAfCG1EJQCbUQBWi69iiC4FdjPxbQsw6DryIQNlEAFK0X+h4bBGHHfvaitA4CYAZM5cPACYCfSLBDJW7jzZ1aiIyarj2NF0ceGuFLl+tA2MoFoAT36h2OfH+zJx8Mb9RDAMxAqXwYAQHwMwl2qIQLeWZqIWAjt72qCFMHwN7o9CWz8/l0duIk1EMAzMCsYurXCoQREAC/gGCHSqSL+tl8Ols4YfnE6oHUpfT9WI8BbOhuXRMR08FeYAFb1XTtQQS+J1b1kdFt9P76nquIAJgBSdegYyvxxkMAvAVqIaiEWogCNF2bVg6cWj0AG7vs9Qa7QQWeJe7X15O+XsaSW3rZeSj8rY8AmIFQPTNCAuAtEuxQiY8xEeyGM5OYPFpYagpPZjoY2Eiv2uHIJm4UZhWTvyqPKiQApnJ3MfXr+jNCAuAtE+xQiVVMAy+dsHzUQsCLXfemg93Iwsg1XXvYm/K1Mo9SvbYir14CYCpmf6CREwDviGCHSlzHl4DgJKNYPfDraA8AbMcqwuCrmA52XYOBi8GLo96krylfSvfOAEbdBMBUyEZv/EYAvGNqIaiEWojM4iE2PRD8NOoDAduzWldFRCCsPxgqF7UOR73Q16AFNfk4n85OnbG6CYCpzGWEv57zEQDvg2CHSngzWICma4+jRsZDLWzX3b0JYYEwFO5e4Huk1oGKnc+nsxMnsH4CYCrh2Z4vCID3SLBDJa7jy0I4kkk88J6qhYCdUhkBhRH4MlDX8+nsaKwnNw1DDem5QgBMBUz98iAB8J4JdqjIh/TCwhdHPlYPwN5d90LhG9c/2K34njsU+DJgt+n39pi/T5quTd+nhwV8lK0QAFMwU798lQA4E8EOlbiLTeJ8iWTUdO1JrB7QJQ77lR7cb3qBsClheIGma9dh7/qPVsUxZMLfrk33r+/n09nfCvg4WyEAplCmfvkmAXBmUQuxFOxQOLUQmcXqgbSp5PtRHwjIbz0lfBOhsOsiPODedO+hoQdGJk3iHY75O6Lp2vTv/n/SnwuAYWcMbLGxv/2f/3eXQoXvPMDkI9ihIh/m09mZE5ZPTE8tPEhDMVb9KWGhMGMU97L3p3sNNzBWq5j8He2qkbgm3Kyn/AXAsBMfU45k6pdNpQB4/WZOsJOZYIdK3MU08JUTlo9aCChaPxT+pD6CIelN9vZ/VDnA70Yf/k5+v06kacQ36/8sAIatuo2pX8/jPEk/AJ4Idsog2KESl/HFY9ItE6sHoDrrTuFP63DYNZSSxRLu+4Gv+1N43I/C3zZteP6v/n8nAIatWMUm7QY3eZb7AfCaYCczwQ6V8CVUgHhAX9g9Haq0nhZOP58Fw+QQq9DuB72meuFp3s2ns+WYj1lcS67uvygSAMOLyeh4sccC4IlgpwyCHSph9UABYuLizHQWDMZ1hMJ/BMSuszxXr6f3IH7W072CXng54e/v15irh55bBcDwbDZ5Y2u+FgCvCXYKINihEufxBaWIPpO4+U4vjd6O8gDAOKx6VRKfetPDN66/4/ZAyJv+/Dv7S8BOjT78nfx+/Vk+dv8pAIYnW8Uz3cK9HduySQC8JtjJTLBDJVaxG+nCCcvH6gEYtev4xa9f3guIB6IX8D70R9d72D/h75972Pz7sf9dAAxPou6BnXhKADwR7JRBsEMl7E5agKZr08qBU6sHgJ67mBxe10tMeiHx57FvYJRLdGd+1wt3J72QV1UDlEf4+5Xe3z4BMGzE6nt26qkB8JpgpwBqIaiE1QOZNV17EC+N3oz6QABPtQ6KJ72A+P6fC4wfEdfeg/hf+6Hu/T/3Qh/qI/z9Ru9vnwAYvsqgJXvx3AB4TbCTmWCHSqziWjH6G+WcYvXA0hQZsEO3vXB40uspnnzjv5uUECb3KhYecnTvv3vor9W1C8Mn/A1f6/3tEwDDoz7o+WVfXhoAT7ytKINgh0pcRxBsWiwjtRDAQFxv+Ms4dL0DtkT4G77V+9snAIYvnEeOpueXvdlGALwm2CmAYIdKfIwvPG86M4nVA0vTagAAGxH+hk16f/sEwPCH63gOVqfK3v19i//AFCL8t+naRSyfI4P5dHYWky6Xjj8Fe5+W/8bkABmkt83z6Sy9APw5ej4BAHiY8DfEs/6FgSN4kvS89To9fwl/yWWbAfCaYCezCHaOBTsULt00/rvp2quYRiWD+XR2ES+NPjj+AABfEP7+ldpB2NxdXEMOBL/kts0KiIeohcgs3tCmSohfR30gqIEC/MzUQgAA/IXwtyfqBp/8XKkCghGyCTrF2cUEcN+6FuJMLUQeKUyLWogfnrBZCuSQbiZvmq49dvTzuFcLsRrjMQAACMLfnrhHf85QkXtKxmQVg00Hrh+UZtcB8JpgJzN9n1QiLSf7H7UQeUUtxEFs1gcAMCYr4e9fxaZvzz0eVgMzBv3g12bnFGlfAfBEsFOGXt+nYIeSpdUD/zeWmZFBrB5I9TE/Wj0AAIxECnGOhL9/ipW8S5u+wYMEv1RjnwHw2h/BjlqIPAQ7VOTXpmvTppJHTloeqcM9Vg+8s4QPABiwdfhrYvWvUvj7qqQPBAUQ/FKdHAHw2roWQrCTiWCHSqTVA/9puvbC6oF8YhJGLQQAMETC3wfEarw3xX0wyCfVaf4i+KVGOQPgiWCnDIIdKvEmXhqphcjk3uqB21EeBABgaG4jzBH+9jRde/LMTd/uc1wZgrvoBk/XioXglxrlDoDXBDuZCXaoxD/UQuQXqwcO4+231QMAQK1uY/JXmNMTm74ttvS3c2yp2XUv+NUNTtVKCYAngp0yCHaoRH/1gC7xTNLb71g9cD7KAwAA1Oxa+PuluLe+sukbI3c5mUxep8pMwS9DUVIAvCbYKYBgh0qk1QPppdGpE5ZHrB5ISwRfWz0AAFTiPIId4W/PjsLfT1v8e8Gupfzjh/l0djyfzq4cbYakxAB4TbCTmWCHSqQb1H81XWtTyYzSDZLVAwBABT7GMw5fSkNAr7Z8XATAlC71+36YTCb/TNeG+XTm9yyD9Lf/8//uUmDyn8J/cSl8PPUGJq8I488sB6Jw53G9MNGRSWzqubBrNABQmHeWcz+s6dp07/Z+B3/r10N6jm+69n8L+BhsR6qBWbomMBYlTwD3vYpaiKVaiHx6tRCXYz0GVOGt1QN5pbfmadlUrB64G/OxAACKkFYn/SzoeVjTtSc7Cn+Tmx39feG50sDQj/p9GZtaJoD70pf3WYSRZBJL7ZfR2Qyluo5pYDeeGTVdm1YOnFo9AABksIrN3twPPiCe63aWB8yns7/t6u+dgwngat3FCsWllaKMVY0B8FqqhTjxRZ6XYIdKfIwXR77sM1ELAQBkkJ4Zj3V6Pqzp2sMdbPrWdzefzg529PfOQgBcnfMIfdWJMnq1VEA8JNVC/Dd1FamFyGc+naUA+FAtBIV7H7UQNvzIpFcL8bNaCABgDy5j8lf4+4B4ht5l+DuxARyZ3MXG1OtN3YS/jN6k8gngvlUs89bfkpFaCCqhFiKzeOBIKwd+HfWBAAB25TwFP47uw3rh76sd/6MGdx5MABcrZUIXacWh5zx4WM0TwH3preW/m669imUsZBBv1tLx/+D4U7CfYvXAmdUDeaQqjlg98EME8gAA2/JO+PtN+wh/JyaA2YP0LPEubVYf077CX3jEUCaA79P3mVn0fS4jbINS3cU08IUzlE/TtcfRD2z1AADwXKvo+7Xc+yuark3PaG/39I97N7RVuiaAi7De0O1CxQtsbqgB8ESwUwbBDpW4jk0l3UBkEtPYZ9HXDADwFDYI38Cew9/k9dACeQFwNndR8bD07zk8z5AD4DXBTmb6PqnIh+iNsnogk6jxWVg9AABs6DKe99y/fUWqP8vwPPbPoZ0XAfBerXqhr8l+eKExBMBrgp3MBDtU4i4eItxkZNR07UlcL3a5MzUAULcPsa8AXxH3Vf/e9zGaT2d/G9p5EQDv3Dr0vbCaG7ZrTAHwRC1EGQQ7VOIyrhdWD2SiFgIAeMQqXth7rvuGXOFvWok7n86OMvxzd0oAvBPreocr/07D7owtAF4T7GQm2KESq1g5YLIko1g9sNzTbtUAQNn0/W4o9mP5n0z/+PP5dHaS6Z+9MwLgrdHpC3s21gB4Itgpg1oIKqEWogBN157GiyOrBwBgnPT9biies64y3jcNsp5DAPwi1716B8N4sGdjDoDXBDsFEOxQCasHMovVA4s972ANAOSn73dDBYS/yeshPmMLgJ9k3ed7FaGvFzeQkQD4T4KdzAQ7VCLdyJzNp7OFE5ZP07VHcb1QCwEAw5buvY4N7GymkPA3+ecQAz8B8Ddd9wJf1Q5QEAHwXwl2CiDYoRK38dLIw0hGVg8AwKCl+60jk4ObKSj8Xc2ns+8yf4adEAB/4a435Xvl31UolwD4YYKdAgh2qMR5XC/c7GQSqwfSJnFvRnkAAGCYPs6ns1PndjMFhb/J9Xw6Oyrgc2ydAPi3wPeqF/haQQ2VEAB/nWAnM8EOlbB6oACxeiBdL74f+7EAgIqtYo+WCydxM4WFv5Mh9zWPMAAW+MJACIC/TbBTAMEOlbiNBxZ9Vxk1XZseOE6tHgCA6txG36+QaUNN1x5MJpObwu57fh5qgD+CAPg6fj+pdICBEQBvTrBTAMEOlfgYL47cMGUSD0MLqwcAoBoqH54oVkteFbh3yg9DDfEHFgDf9cLeGxWYMGwC4KcT7GQm2KESq6iQWTph+Vg9AADFW8XUr/DpCQoOfwe7Adyk7gB4Hfb2A1+ZBoyIAPh5BDsFEOxQieu4Xlg9kEk8IKWJol9HeQAAoFzXEf4Kop4gOn+XBYa/yeV8Ojsu4HPsRCUB8G0EvZ+EvcCaAPhlBDsFiFoIwQ6ls3ogs1g9kB6Wfhr1gQCAMvxin5WnK3DDt/sGuwHcpLwA+K4X8n6KoFc2ATxIALwdgp3MBDtU4i5eGtnVOqOma4+jRsbqAQDYP3urPFMF4W/yesh1HpkC4OsIeD+tJ3v9+wM8lQB4e1ZxIyPYyUiwQyWu43phh+tM1EIAQBYGZ56pkvB3Mp/O/lbAx9iZHQXAd72Adx3yflbdAGyTAHj7BDuZCXaoyIf0wsKNXT7xMLWwegAAduounpFs9PYMtYS/abp7Pp0dFvA5duYZAfBthLmfI9idCHiBHATAuyPYyUwtBJVQC1GApmtPIggu/cEKAGpzGeGv56JnqCj8TT7Op7PTAj7HzjRd23+JsZ7YndwLeD+raABKIwDeLcFOAQQ7VOIyrhdWD2QSqwfSpiXvR3kAAGC7VOS9UGXhb/Kz8w1Qpr87LzuVemj/J70ljGlUMphPZ2kK+CA6x6BUb9LUQNO1g901uXRpMimmVn6MOh8A4HnSi+0DYeDzxRDLfysbYlHxAVAoE8D7s4pKCOFORvo+qYSevAJYPQAAT2bqdwviHuTflX3swff/AtTMBPD+pADh16ZrPzVdezSWX3RpUhfTfDpLx/9d3KBCidLqgf80XXth9UA+Vg8AwJOY+t2CSsPfxHkHKJgAeP8EOwXoBTvnYz8WFG1dCzHozTRK1quF+EEtBAA8aBXdr8c2enuZqAKrMfydqH8AKJsKiLzUQhQgJrLTMu9XYz8WFO02Nolzc51R07XHcb34frQHAQD+dBmVD4LfF2q6Ng2ovK3046/m09l3BXwOAB4hAC6DYKcAMWV5pu+Twp3H9cKDVkYxoXPqegHASNmvYIsqD3+TyzQBXsDnAOARKiDK8CpqIZZN13pzmsl8OluohaAC6eHgk1qIvGLlhusFAGOUuvEPhb8vl579mq69qTz8nej/BSifCeDypFqIswgjySRqIZaWeVM4qwcK0HTtYdRC/DT2YwHAoN3G1O+N0/xyMfhzNZAauh/m09mnAj4HAI8QAJdLsFMAy7ypxMd4caQWIiMvjgAYKAMqWxYvj68G8oxxO5/ODgv4HAB8hQqIcq1rIRZqIfKJZd6HscEFlOp91EKcOEP5pBd28+ks1UK8i4dlAKhdugc+EP5uz8DC34n6B4A6mACuwyqmgZdjPxA5me6jEtdxvbA8M6N4cXdqBQEAlbLJ2w7Ey/p/D+yX9aP7ToDyCYDrItgpQNRC/Dr240Dx1EIUIILgxQA2dwFgHNLgySJWwbFFsYHvvwZ2TO9i9RMAhVMBUZe0wdB/1ULkFTfEP0QgD6Va10IcO0P5pAB+Pp2dxDXjfKzHAYAqpO+pQ+Hv9jVduxxg+DtR/wBQDxPA9VILUYAI1xZqISjcdSzjtDtzZlElcxYv9ACgBDaf3pEY2rkY8Pe++geASgiA6yfYyazX9akWgtJ9iGWdaiEyEwQDUAADJTvUdO1BhL+vBvpLVP8AUBEVEPVL4cH/Tb20aiHyiCXeaiGoQXpJcaMWIr80ZTWfzlII/DomrwBgn9JL4QPh7240XXuY7rkGHP5O1D8A1MUE8LDcxVt8X8YZRbi2tPM/hbN6oCCxK/iZOhkAduwynhd8/+9IfKf/e5C/uL9S/wBQEQHwMAl2Motp7LPYiAtKZafvwgiCAdiR9Hxwpud3t9Jm3SO5/1f/AFAZAfCwfRDs5BXLvxZ6PincXbw08lBYCEEwAFtyF8GvqocdiuGPdIzfDPYX+Vcf59PZaUkfCICvEwAPn2CnABHmLNRCUDjLQgsjCAbgmVYR/C4cwN2KgY/lwPt+71P/AFAZAfB4CHYyUwtBJdRCFEgQDMCGVjF0kL7LPztou9V07VFshjamIY/b+XR2WMDnAOAJBMDjItgpQNwoLkY2JUB9buOlkdUDBYlNJk/VygDwgI8x9Sv43YOma9P38b8G/wv90i8mywHqIwAeJ7UQBYibxjO1EBTuPIJgD5MFiRdJZ4JgAOK7+sxKv/2IVX0pAH07hl/vA/7pvhCgPgLgcRPsZOYGkkroESxUBMGnI9p0BoA/CX73rOnag6h8GOtKvsv5dHZcwOcA4IkEwAh2CqAWgkqohShUPJCeeZkEMAqC3wyihmk58tV7P8+ns4sCPgcATyQAZk2wU4Cma89imk8tBCWzeqBQEQSfuI4ADJLgN5O4R/91lL/4P93Np7ODUj4MAE8jAOY+wU5mEeAsLOmmcKu4ViydqPJEvcxphMHfj/14AFRO8JtJfJ9e6Nz/zQebiQPUSwDMQwQ7BYhaiKXwhsJdx/XixokqU9O164lgFTMAdRH8ZtR07WGEv+7Ff/eD34sA9RIA8zWCnQKohaASH+Mh1eqBQtkwDqAKqwgdBb8ZNV2bvi//NdoD8CWbvwFUTgDMJgQ7mUUtxNLyMwpn9UAF4nqyrofwYgmgDKuoAFu4584nKh+WXpZ+weZvAJUTALMpwU4BYvfhhaVoFC6tHjgxuVS2eMhN15Qz1xSAbO7i3m4p+M1L5cOjbP4GMAACYJ5KsJNZb3Onse9ETPk+mGSqg3oIgL27je9IwxUFUPnwVb/Mp7NFwZ8PgA0IgHkuwU5maiGoxF2sHrBssAJxXTnROw6wM5dxD33lEOen8uGb0irQA898APUTAPMSgp0CRC3EUlhD4aweqEzTtScRBnvJBPAyNnYrUKx+Wap8+Krz+XR2UvDnA2BDAmC2QbCTWUwvpB7P96M+ENTgw3w6O3Om6mHTOIBn0+9bqKZrz9SpbeQHz3gAwyAAZpvUQmQWm1csTOxRuLt4aWT5a2VMBQNs5Druia2SK4wKtSe5nE9nxxV9XgC+QgDMtgl2ChAhzcK0HoW7jBoZkyWV6U0FH1s6C/AbNQ+FU5v2ZK890wEMhwCYXRHsZKYWgkqsYkpKLUSl4oH6xAY6wEjdxkv3C6vgyhT3xOkcvR37sXiC6/l0dlTNpwXgmwTA7JJgpwBRC5GmHV6N/VhQNKsHKhcP2OuKCNcbYMjW077pPvfGmS6Xjd6e7WcVJgDDIgBmHwQ7BWi69jQmgi17o2TnsXrAFFXF4sXTiY3jgIEx7VsRG7092918Ojuo9LMD8AgBMPt0GUGwG+ZMLIGjEqvoUFw4YfWLioj1jzAYqM0qJkiXpn3rYPXbi72bT2fLyn8NANwjAGbfBDsFiOVwCzfGFO42poGtHhiAeAG1DoL1BQOlu4zQ1zL4ipj6fTHTvwADJQAmF8FOAdRCUAm1EAPTC4NPvYgCCnLbm/b1nVMRU79bY/oXYKAEwOQm2Mms6dqDmAY2kUfJrB4YqLgGHds8DsjkLjZ0U/FQKQMNW2P6F2DABMCUQLBTALskU4nruF5YPTBAwmBgT1a90Nf3SaXiOyPdu/409mOxJaZ/AQZMAExJrmMa2PRFRtGddmqKgsJZPTBwwmBgy9ah74Ve3/rp+t06078AAycApkQfY8JPsJOJWggqYfXASNhADngmoe/A6PrdGdO/AAMnAKZUq5jucyOSUdO1xxEEq4WgZDaVHJEIg496gbDVCkCf0HegTP3ujOlfgBEQAFM6tRCZRdhy6oabClzG9eKTkzUe0V++DoO9rIJxShu5XQl9h8k+FTtn+hdgBFIAnJbR/NfJpnAf0iSqWoh8bLRBRVwvRqrXG3ykKgIG7zZC36VBgWGKIYQ09ft+7Mdih27n09nhYH91APzhb//7v/8r2KEWdzHdZ7IjI7UQVEKNzMjdq4o4cs2CQbjsTfpa7TFgcb+5VPOzc69VaAGMw28B8Jpgh0qkWogTN/75mMigIvqB+c296eAjoQJU4Y9qh/RHKzuGz2DSXl3Pp7OjEf16AUbtLwHwRN8ndbHMO7PYiXnhJp0K6AfmL6JTcj0hbDd5KMd6yvdKtcO4xCZvp17Q7Y3pX4AR+SIAXhPsUIm7mAZ285JR07Uncb1ww07pPqbpdS+O6OvVRax/BMKwP7e9Wgf3cyNkk7cszufT2ckIf90Ao/VoALwm2KESpvsyUwtBRVbxvWYFAQ8SCMNO3a0rHdQ6jFvUPSxs2rl36T7o0HMTwLh8MwCeCHaoxyoCnTPnLB+rB6jIXUwD2yiOr+oFwofxR9c32Fya8L3pBb5CJ9Q95PXB8xLA+GwUAK8JdqiEWogCNF17Gi+O3NhTurtYQXDhTLGpXofwoU3l4C/WlQ4mfPmCuofs0sDMgX8vAcbnSQHwmmCHSqiFyCym5tJLo7ejPhDU4jomgr084sliKfM6ED70spyRWN2b7nX95EHqHorxzsongHF6VgA8EexQj1UEOgvnLJ+Y9ljo0aQS1/HyyO7zvEhc+w57P66B1O46At8bdQ5sIp4Z0/DQrw5Ydtfz6exo5McAYLSeHQCvCXaoxG0EOiZTMrJ6gMqcxwskAQdbIxSmIre9sPfGPRRPZTPx4rz27zHAeL04AF4T7FCJ8wiC9V5lEpMgS0sAqYggmJ2KUPjgXjDsfop96k/2fhIS8RIGhIp0Pp/OTsZ+EADGbGsB8EQtBPVQC1EAm4BQIUEwexP3VOsN5g7iR68wL5Wmej/dm+x1TWMr9PwWy8ZvAGw3AF4T7FCJ9BB0ouczr6Zrz6IbzrQbtRAEk00ELOtp4f4f3XPRlyZ6P9+b6nW/w04YAireLwZfANhJALwm2KESHyPM8VY8ExMjVGgVv2cXrh2UIl7Af9cLhQ+Ew4N2GyHvVS/s/eTlFPvS2+DN8165bPwGwG92GgBPBDvUYxXdwEvnLB+rB6jQKn7PLoQulKzp2sNeONz/o4C4XOuA99O9nxsvnsgtNng7c/0o3o+m/wGY7CMAXhPsUInrCILdKGXSmyb5dZQHgJqphqBavWqJSfQOT3oh8UT/8NZdx99wHe5OYpJ3IuClZILfqnycT2enYz8IAPxubwHwWtRCCHYonVqIzCKMWAodqJAgmMG6FxT3/3w9Vbx2OKIl4auoX1i7icndyb2AV7BLtWKY58x9WTXu0nXYNQeAtb0HwBPBDvW4i2ngC+csn6Zrj6NGxqQJtREEQ+hVUPQ91kv50F+7icNeZcJzXD3y/+kHur+ZT2eP/bUwKILfar12nQKgL0sAvCbYoRJpmeaJECcftRBU7jw6glXLAFAFwW/VLufT2fHY/lkRQwAAIABJREFUDwIAf5U1AJ4IdqjLBzv+5xUTZAsPI1TqOiaCTeQAUCQbeFcvVdIceF4B4L7sAfCaWggqoRaiALEByWJE/ZIMSwqCl/PpbOm8AlCCeBZLE79vnZCq/ew5BYCHFBMArwl2qMRlBMFqITKJ1QPpQeX9KA8AQ3AXE8GCYACyEPwOiuoHAB5VXAA8EexQj1VUQpw5Z/mohWAAVvF7WMUMAHuh43dwVD8A8FVFBsBrgh0qcRebxOn1zKjp2tN4kLF6gFqlh7eLmAq2ugCArRP8DpbqBwC+qugAeE0tBJVQC5FZrB5YWMbIAFzGRLAXSwC8mOB30FQ/APBNVQTAE8EO9VALUYB4yEnXi1djPxZU7zauKXqCAXiyGKQ5dU80WKofANhINQHwmmCHStzGNLDpvYzUQjAg657gpVUGAHxNDM4cxz3Q9w7WoL32vAHAJqoLgNcEO1TiPIJgb+UzsXqAATqPINgDHwB/iHue0/jxjDR8H+fT2enYDwIAm6k2AJ4IdqjHKjZ1Wjhn+cTqgaVJGAbkNr4DL7xkAhivpmsPYjDmWPA7Guke4Mj3PwCbqjoAXlMLQSXUQhSg6dozkzEMzCpebizUQwCMRzwDpXuaN0776Pw4n85uxn4QANjcIALgNcEOlfgYE8He2GcSkzILD0wM0HUEwRdOLsAw2dht9H6xshCApxpUADwR7FCPVUwD29k/I7UQDNhd/N62aRzAAMQzzolhl9G7nE9nx2M/CAA83eAC4DXBDpW4jiDYEq6MYvXAr6M9AAzdZQTBpoIBKhPPNCf2PCEGSA6sIgTgOQYbAK+phaASaiEyi8ma9NLop1EfCIZMVzBABWKj6+PY2M0wC2uv7SUCwHMNPgCeCHaoRwpnTkzp5dV07XHUyHjgYsiu43vxwosngDI0XXsYgyvHhle458N8OjtzUAB4rlEEwGuCHSpxHUGwCb1MYvLmVC0EI5BePF1ERYSpIoAMYlO3E8MqPOJ6Pp0dOTgAvMSoAuCJYIe6fIil2qbzMrF6gJGxcRzAnpj2ZUN6fwHYitEFwGuCHSpxF5vEqYXIKCZzFh7QGBEVEQBb1uv2TcHvK8eXDfxos2gAtmG0AfBa1EIsBTsUTi1EZvHQlrrX3o/6QDBG5xEEexEF8AxN1x5FxcNbx48n+GU+nS0cMAC2YfQB8ESwQz1WUQlhA4iMYsnmwuoBRmjdF7wwjQTwdbHacN3ta/8Rnup8Pp2dOGoAbIsAuEewQyXuYhrYhk0ZqYVg5O56m8cJgwFUPLA9t5PJ5EgFEwDbJAB+gGCHSlxGP7BaiEziQW9hSScjJwwGRi0q5dLzw5uxHwtebBXhr+9TALZKAPwItRBUQi1EAaLbb2HaB4TBwDhE6Lv+MTTCtvyscx+AXRAAf4Ngh0rcxjSwWoiMmq49jRdHHgRBGAwMTNTFnUToq9eXbftgqAOAXREAb0iwQyXOIwjWGZaJWgh4kDAYqJLQlz2x6RsAOyUAfgLBDpVItRBn8+ls4YTlE6sHlh4W4QurCIMvLHMFSiT0Zc9s+gbAzgmAn0EtBJVQC1GApmvPYjdwqwfgSykMvuoFwh5+gSx6nb5HQl/2KH0PHvj+A2DXBMAvINihEmohMmu69iBeGtkdHL7uNibnr1RFALsUK/uObORGRquY/PV9B8DOCYBfSLBDJVYRAi+dsHzUQsCT3K2ng1VFANsQ9+3rKV/37uT2zr05APsiAN4SwQ6VuI4g2KRBRlYPwLNcRiBsOhjYWK/P90h9GwX5MJ/OzpwQAPZFALxlgh0q8TE2ilMLkUlMIaWXRj+N8gDAy9z1uoOvXMuAtah2OO7VO7gnpzTn8+nsxFkBYJ8EwDugFoJKqIUoQGw6s7B6AF7ktlcXYeNLGJlYibcOfE35UrLr+XR25AwBsG8C4B0S7FCJVAtxMp/OPjlhecS0Ulo58OsYf/2wA9e9QFhdBAxM1Doc9X5M+VKD29j0zaoVAPZOALxjgh0q8iG9sHBTmo9aCNiJ1bo7WH8w1Cm+H/uBr+EKapO+iw7cZwOQiwB4TwQ7VOIuaiHsuJ9RrB5YmmiCnbnuBcIqI6AwAl8GZhWTv15AApCNAHjP1EJQCbUQmcXqgbSp5PtRHwjYj3UgfGNTOdg/gS8D9+OYw9+ma9MKw9MCPgrAqAmAMxDsUJEP8+nszAnLJ3oOF1YPwF7d9WojbkxtwXbFpm2HOnwZgXdj3nA5/l3/z3w6+1sBHwdg1ATAGQl2qMRdTANbJp1R07Uncb3wkAx59KeEb6yQgM3EdO867D1038uIjD38/S6+M78XAAPkJwAugGCHSlxGP7DQIxOrB6Aod+swuDcprDqCUYvvqX7Ye6jOgZEa/Sq6pmvTniJv0p8LgAHyEwAXQrBDJdImFoux39DmFsvp0kujV+M+ElCcfihsUphBE/bCo87n09nJmA9PDDj9e/2fBcAA+QmACxO1EEvBDoVTC1GApmtP48WR1QNQrtW9UPiTaye16dU4HAp74auEv79fL27696cCYID8BMCFEuxQifOohbDsOZOYwErTwG9HeQCgXrcpDL4XDNtsjqx6U73p50BnLzzJ6MPfye/XkZv7w0wCYID8BMAFE+xQiTTddjafzhZOWD5qIWAw+sHwJxPD7EJM6B3cC3oPDR7As13Pp7OjsR++pmsXD1UaCoAB8hMAV0CwQyVuYxpYUJFR07Vp5cCph3gYnFU/FI4//+yay2N607z9sPc7E72wdeke+GjsK+Karj2eTCb/89D/JgAGyE8AXBG1EFRCLURmMdm1WO+8DAzeOhz+fP+PaiWGLfaO+K4X7gp5Yb+Ev3++cPr02HOqABggPwFwZQQ7VEItRAFi9cDSRj0wevcD4mQ9OZwqJj6N/QCVqFfTkBzd+6O6BshP+Buarr362osnATBAfgLgSgl2qMR1TAObQMtILQSwoev4y9Y1E5NecDxRN7EdcQ+3tv7z9fTuRLgLVRD+hrjP/PVrf40AGCA/AXDlBDtU4mNMBI/+JjkXqweALbtdB8P3Josn9wLkyRCrKO5N507uBbiTXu/umkoGGA7hb/ha72+fABggPwHwAAh2qMQqpoGXTlg+caO+sHoAKMD1Ix/hfqC8D/cD2z4TucCa8DfEM+jNJtdHATBAfgLgAVELQSXUQmQWG3Wcfmu5HgAAfxD+9jRdm+7lX23y1wqAAfITAA+MYIeKfEiTqG6i84nJjaWlyQAAXyX87Wm6Nt0/vt30rxcAA+QnAB4owQ6VuItp4AsnLB+1EAAAjxL+9jRdezKZTP79lP+PABggPwHwwAl2qESqhTiZT2efnLA8YvVA2lTy/Rh//QAADxD+9jRdmzrRr57aiy4ABshPADwCaiGoiFqIzOLGfmH1AAAwcmlA4dh96e/imfLmOYNFAmCA/ATAIyLYoRJ3MQ185YTlE8v7Fna+BwBG6Hw+nZ048X9quvbqmc+Rt/Pp7HBXnwuAzfzdcRqP+XR2M5/OjiaTybvJZLIa+/GgWGmq4D9N115ElzUZzKez1CGejv9Hxx8AGBHh7z1N175kiMgENUABBMAjJNihEm/SMrOma8+csDzSksf5dJbqY36MDjwAgCET/t4Tq8LsEQFQORUQI6cWgkqohShA07WnsVGcWggAYGg+xotvwnM3fbvnOlahApCRAJjfCHaoxGUEwZaSZRIbgKSXRm9HeQAAgCF6F6skCS/Z9O2ey/l0duy4AuSlAoLfzKezRdRCnDsiFCzVQnyKFxZkELUQaSnga7UQAMAACH8fdrWF8HcSITIAmZkA5gtN1x7FhN8rR4eCpfDxVC1EXlYPAACVSptiH7uX/FLTtcstrvb6MJ/O7OkBkJkJYL6QboLm01nqe/olboygROkFxX/SDWosUSODWD1wGPUcAAA1SM84R8LfL8XLfVVfAAMjAOZRvVoIwQ4le6sWIq/5dPYput1ex4Z9AACluo3wVzXBPU3Xppqvf235bytkByiACgg2ErUQyy31QMGuXEcthBv6jJquTcv8TtVCAACFWYe/NhS+p+nawwhrt33/9tqkNUB+AmCeRLBDJT6mXlo39/k0XXsQXeJvxnoMAICipFWNJ+4PvxT3bTc7esb7Ia0W28HfF4AnEADzZIIdKrGKaWC7OmfUdO1xXC+sHgAAcjmfT2cnjv6XYi+Nq11tAD6fzv62i78vAE8jAObZ1EJQCbUQmcWDRVo58OuoDwQAkMM7AwGPa7o2hb8/7ervLwAGKIMAmBcR7FARtRCZxeqB5S4fMgAAwioqHy4ckIc1XbuMDZV35Xo+nR0V9ssGGCUBMFsh2KESdzEN7EEgI7UQAMCOrWKzNyvAHhF7u+x6iEcADFAIATBbJdihEtcxEWJDikysHgAAduQ2wl+rvh7RdG3qQ/73Hv5RH+bT2dke/jkAfMPfHSC2KSYrD9OXvQNLwdKk+v9Nkw8RRLJn6aEsHgh+jEAeAOClzoW/X7fH8BeAgpgAZmfUQlAJtRAFiIeRtHrgH2M/FgDAs5g2/Yama9OgztUe77dez6ezqz39swD4CgEwOyfYoRKXEQSrhcgkprHTg9v7UR4AAOA5bPa2gQzhb/KjHmaAMgiA2QvBDpVIDxAL0yN5xQPKwuoBAOAb0kquYyHj18XKzJt9D+TMp7O/7fOfB8DjBMDslWCHStzFJIklaxk1XXsaL46sHgAA7ruO8Fff71fEIE66p32153/07Xw6O9zzPxOARwiAyUItBJVQC5FZPLSka8XbUR8IAKDv43w6O3VEvi5j+Jtcz6ezowz/XAAe8HcHhRzm01naHO4gduqFUr1Jy+ViEpU814rP8+ksvTB6nSZJnAMAGLVU1/VO+PttmcPfSfyzASiECWCya7r2KCb8ct2cwCZuYxrYzWxGaiEAYLRuo6JL3+8Gmq69yly79y6GfgAogACYYgh2qMR5BMH65jKJiZZlTGgDAMN3GeGv+68NNF27LKA+60dhPUA5BMAURd8nlUjLD8/m09nCCcsnVg+kB5zvx3oMAGAEfnHPtblCwt9U4/W33J8BgD8JgCmSYIdKWIpYgKZr08qBU6sHAGBQ0gv3I/dZmysl/E33yPPp7LCAzwFAsAkcRUo9q/PpLG0S9yFu/qBEqbf6v03XLmJ6nQzm01kKgA9jeSgAUL/rtGG08HdzBYW/ifMGUBgTwBSv6dqDqIXQ90nJVtENbLOLjKweAIDqfYiXu2yosPB3orYDoDwCYKoh2KES1xEEm3zIJKaxUyXEr6M8AABQp7uo1rpy/jZXYPibvHYeAcoiAKY60fcp2KF0H2OjOLtVZxKrB9JD0U+jPAAAUI/LCH/dNz1BoeGvDeAACiQApkqCHSqxioeZCycsn6Zrj6NGxuoBACiPuoBnKDX8tQEcQJkEwFRNsEMlriMI/uSE5aEWAgCKcxv3R2qznqjg8Df5OJ/OTgv4HAD0CICpnmCHinxILywsb8yn6drDeGlk9QAA5KMq65kKD3+TdzZFBiiPAJjBUAtBJe5ikzi1EBk1XXsSQfA/RnsQAGD/Uj3WsQ3CnqeC8Df5wao3gPIIgBkcwQ6VUAuRWaweSJtKvh/1gQCA/bDR2wtUEv7ezaezgwI+BwD3CIAZJMEOlVhFJcSZE5aPWggA2KlVrH5SC/BMlYS/yfl8Ojsp4HMAcI8AmEET7FCJu5iIsRwyI6sHAGDrrHh6gRhquajoWUb/L0ChBMCMgmCHSlzGhIyHpEziQWtRyZQNAJRqFZu8LZyh54l7kjQc8Kqij63/F6BQAmBGQy0ElVALUYCma48iCK7poQsASmDq94UqDX/1/wIUTADM6Ah2qMRtTAOrhcjI6gEA2Jip3y2oNPyd6P8FKJsAmNFquvY0JoIFO5TsPIJgO2ZnYvUAAHyTqd8tiP1Lrip9PtH/C1AwATCjpu+TSpioKYBNJQHgC+5RtqTy8Df5p4EFgHIJgEEtBPVQC1GApmuP43rx/diPBQCjZvPaLYl7i2XF4e/tfDo7LOBzAPAIATD0NF2blnmfqoWgcB9j2saURUauFwCM1CrqHi78Bni52G/g35X/Mj7Op7PTAj4HAI/4uwMDf5pPZynQOYyJBihV6qL9FA8MZBLXi4PoaQaAMUgvoQ+Ev9sRe5LUHv5OYnoZgIKZAIZHRC3E0jJvCncdyy9vnKh89AMDMHBqqLas6drlQPYhWc2ns+8K+BwAfIUAGL7BMm8qoRaiAF4cATAwqe5hEate2IIBbkJ9Pp/OrEoDKJwAGDbQdO1BhDqm+yiZTr5CRD3HmSAYgIrZ5G3LIvy9GtjG0z+79wQonwAYnsDu/1TiOoJgD2wZxUPeqRUEAFTmLu4j1D1sUdRFLQcW/ib/tAINoHwCYHiiXqjzq2NH4T7Esk035Rm5ZgBQCXUPOxLh79UAXwhfzqez4wI+BwDfIACGZ1ILQSXuYvmmpXmZxTXjbECdfwAMh7qHHYlaqMVAVwO9m09nywI+BwDfIACGF4paiKUl3hROLUQhBMEAFOQ2gl91DzsQm0kPeQWQ+geASgiAYQtiiXe6wXvveFK4D5Z2lqHp2qO4blhFAMC+rSL4Nb25I03XLgf+slf9A0BFBMCwRdHvtRDoUDibuxREEAzAntkjYIdiMORqgJu93af+AaAiAmDYgYF3fTEc+v4KIggGYMfO0/eM7/3diWGQtO/C90P9NfaofwCoiAAYdkQtBJWw43dhBMEAbNl1BL9W/uzQyPYFUf8AUBkBMOxYTAIsR7AMjLqphSiMIBiAF7qLlT4XDuRuNV17OplM/jXkX+M9P/t9BVAXATDsSdwYnqmFoHDn8bBoSV8hBMEAPNFdTPzqZ92xWPG3GPhmb/et5tPZd2V9JAC+5e+OEOzHfDpLN4cHEbBBqdIDzKd4YUEB0lT2fDpLIfDrWMYLAA9ZxQZvh8Lf3Wu69iA2extT+DuJjmMAKmMCGDKIib6FWggKdxvTwGohChLXjxTQvxn7sQDgN6u4r1xYwbMf8V18MdKVfT/Op7ObAj4HAE8gAIaM1EJQCbUQBYrJo7MRTh4B8DvBbwYj7Pvtu5tPZwflfBwANiUAhswixFmY5qNwqwiBLSktTC8IPvYyCWA0vJzds5H2/d73S9TaAVAZATAUIpaSpXDte+eEgl3HA6elf4WJB9PT+BEEAwzTeWzw9sn53Z+maw/jPn3s9W3/9NIBoE4CYChM07VnAhwq8DEeQD0EFCaC4OOYCvZCCWAYBL+ZNF17HOHv2O/NL+fT2XEBnwOAZxAAQ4HUQlAJtRCFa7r2ZDKZpJ+fxn4sACqk4zezpmvT8X8/6oPwp5/n09lFKR8GgKcRAEPBYuJgYYqPwqVaiBNTSeWKipkTG8YBVEHwm1msprnwAvUPNn8DqJwAGArX6/X81bmicB88rJYtVhecRhg89qWsAKUR/BYgXppe+J78C5u/AVROAAyViOBmaRKBwt1FLYQlggXTEwxQlLvo91WplFnsxWHo4ks2fwOonAAYKqMWgkqohahETDqd6hwH2Lv0XbkU/Oan8uGrzufT2UnBnw+ADQiAoUJxk3pmUwoqoBaiErHK4CTCYMteAXbnMr4brxzj/FQ+fNOP8+nspvDPCMA3CIChYk3XHsY0sGkFSnYX08AedCvRdO1JhMGuLQDbsYqQ8czqmHKofPim6/l0dlT4ZwRgAwJgGIAIaxYmFyjcZfQDe/CtRLxkOo2+YNcXgKe7i3u0pdUw5YhVLymQfzX2Y/ENP9vXAWAYBMAwEGohqMQqlr2eOWH16G0ad+phGWAj1/F9JzwrTOynsfRi85vu5tPZQeGfEYANCYBhYGJibymkoXBqISoV15h1RYSHZ4A/qXkoWLzMTNPYb8d+LDb0zgaFAMMhAIaBarr2NCaCBTSU7DKCYMtiKxT1M2mS6s3YjwUwarcRLF74PitTbPSWwszvx34sNpReZhz4/QwwHAJgGDCTDlRiFdNSCyesTtGluJ4K9nANjMV5dPtazVIwG709ywd1XQDDIgCGEYiph4VaCAp3G5vEeZCuWFxvTmwcBwzUbUyS2tStcDZ6ezbTvwADJACGEVELQSXOIwj24FE5FRHAQKy7fdOmbjdOavnc877Ix/l0dlrx5wfgAQJgGJmohVgKZCicWogBievOuiLCJBZQi+u4Z9LtW4mY+k3n7KexH4sX+MEmhgDDIwCGkbIZBpW4jmlgE1cDEQ/naSr41PUHKNBdr+JBCFaRWHWyMPX7Iufz6eyk4s8PwCMEwDBysTHGqZtlCvcxJoJNYA1I07WHvb5gYTCQi4qHilndtlWmfwEGSgAMrCfyFm6cKdwqpoGXTtTwCIOBDM6j3uHCwa9T07XHEf4aZHg5078AAyYABv6gFoJKqIUYOGEwsEOXMe2r17dihhd2wvQvwIAJgIG/iGV0qRLiV0eGwqmFGIEIg4/jxwZywHMIfQek6dp0n3pm6nerTP8CDJwAGHiQXZSpxCpC4IUTNny9DeSOXZuAbxD6Dox7050y/QswcAJg4KuiW21hGTaFu41aiCsnahxitcI6DD4yCQYIfYfL1O9OfZxPZ6cD/vUBjN5EAAxsQi0EFbmMINgUy8jEy6ojvcEwKqt14DuZTK6EvsMTNUBLFUA7k/4dOvDvDsDwCYCBjcVN+MLSOyrwIf1e9UAzTr2qiCMbBMHg3PWmfK36GKgYPkgTv+/Hfix27MN8Ojsb9K8QgN8IgIEna7r2JIJgy/Ao2SqmgZfO0riZDobqpdUdVxH6WuExcE3XHsXUr+v1bpn+BRgRATDwLCYzqIh+YP4Q08FHuoOhaOsp3yvVDuMR1+eFlRt784tNdAHGQwAMvIhaCCpyPZlMTkyP0RfXsHUg7DoGeazWYa8p33Gyydve3c2ns4OR/ZoBRk0ADGyFG3cqcp5+rwoYeEgsPV7/CIRhd657E75WaIxUXHMXNnnbu5/n09nFyH7NAKMmAAa2Jmoh0k38W0eVwq3i96qN4viqe4HwoZdc8GwCX/7gnjGr6/l0djTiXz/AKAmAga0zzUFFVjENrAOPjfQqI9aBsE2K4GECXx5k1Vh2P86ns5uRHwOA0REAAzvjBp+K3EUQvHTSeIrYtOiwFwirjWCM+h2+NwJfHhIDAksvzrI6n09nJyP+9QOMlgAY2KlY4re0ozOVuJ1MJqfCC14iQo7D3o/VEAxNmu69iZ8rnep8TbwoW7gXzC69qDlQfQUwTgJgYC9MfVCZ65gIFgTzYvEirD8lrDqCmtz2wl7TvWwsrn1pNdivjloRPsyns7OxHwSAsRIAA3vVdO1ZPAyohaAGgmB25t6k8IH6CAog7GUrmq49ialf93tluJtPZwdjPwgAYyYABvbOUkAqdB5BsGXO7FRsMtfvFT4wLcwOrNb1DZPJ5FOEvTaF4sVsBFys117oAIybABjIRi0EFRIEk0VcLw/iJ/35dwIWNrDqTfR+6k326gBlq+Ll/tJKhiJdzqez47EfBICxEwAD2UUthH44aiIIpggxMfxdLxReV0pYdj0uqbrhc2+i95Ogl32I4Dfdx711wIuUXgIdul8BQAAMFMHkCJUSBFOse+HwpPdH19n6rCd5P/emeX/7cf0hh94Gb/Z1KNsv8+lsMfaDAIAAGChM07XH0R2nFoKaCIKpTtRKTHrB8DowVi+xf+sJ3nWwuw56P+vmpTQ29K3G7Xw6Oxz7QQDgdwJgoDi9qRK1ENRGEMyg9ELidb3EpNdFPLFJ3VfdRZg76QW7k94kr3CXqjRdexJ1D/6dr8OPrjEArAmAgWKphaBil2mS3Y7bjEm8vOtPm/WD4of+86TwaeN+gLv26d5/t57UXdO7y+AIfqv0cT6dnY79IADwJwEwULx48FhYakiFrmMiWBAMT/RAoLwLOnThEbEC4MyL+OrcxcZvXkYB8AcBMFCFCALSQ8h7Z4wKXcdE8IWTB0DJBL/Ve+3FMwD3CYCBqsSu9gsPJVTqLiaCl04gACUR/A6C6gcAHiQABqqkFoLK3cXv36UlmgDkJPgdjFXqWXdfAcBDBMBAtaIWIoVob51FKrWK38MLD2wA7JPgd3B+VjUFwGMEwED14gFmUfBO8rCJ86iHsCEVADsj+B2k8/l0djL2gwDA4wTAwGA0XXsaDzRqIajZdQTBNnABYGuiPivdJ33vqA5KqpU6tJIIgK8RAAODohaCAbFhHAAvJvgdvNdeGgPwLQJgYJBieePSww4DsOptGKceAoBvihfiaWXUiXuhQfs4n85Ox34QAPg2ATAwaE3XnsUDkFoIhuA8gmCTPgB8oenagwh93fsM3+1kMjlS/QDAJgTAwODFw1CaoHzjbDMQ6aFvoR4CgMmf9zpnKrBG5cf5dHYz9oMAwGYEwMBoqIVggFbxe3qhHgJgfOLeJgW/Pzn9o/LLfDpbjP0gALA5ATAwOmohGKjLqIe4cIIBhs3GbqN2PZ/OjsZ+EAB4GgEwMEqxVHJpYoYBuovf2zaNAxgQ/b7Eyp8Dvb8APJUAGBi1pmuPox/YBA1DZCoYoHJR83Ci35fJZPKz73QAnkMADIxe07XfxTTNr2M/FgyWqWCAisS9yXHcn7xy7phMJh/n09mpAwHAcwiAAYJaCEYiTQVfzKezpRMOUJa4FzmL8FfNA2u38+ns0NEA4LkEwAD3RC3E0oMXA7fqTQXfONkA+cSmbideQvOA9H19aAUPAC8hAAZ4QCy9TBM47x0fRuC2FwbbWAZgD2La9zSCXy+deYzeXwBeTAAM8BVN1x7GJnEmchgLG8cB7Eiv29e0L5vQ+wvAVgiAATYQSzMXJnQYkbTkNIXACxURAC8TL5RPdfvyBNfz6ezIAQNgGwTAABtSC8GI3fXCYB2EABuIiofjCH6/d8x4gvQS9kAtEwDbIgAGeKKma49iGviVY8cIrfuCL4TBAF+KVUMp+H3j8PBMP1p9A8A2CYABnqnp2tOYCLaRMF8BAAAORklEQVSUk7ESBgP8+XL4RMUDW/BuPp0tHUgAtkkADPACUQuRpoHfOo6MnDAYGJXo9V2Hvioe2Ibz+XR24kgCsG0CYIAtUAsBfyEMBgYpen1P4kfoyzbdzqezQ0cUgF0QAANsUdO1Z7HZi+Wf8DthMFC13mZuJ170siM2fQNgpwTAAFsWD4oLm7/AF1IYfBFhsM1tgGIJfdkzm74BsFMCYIAdiVqIpSWi8KC7Xhh85RABuUWn75HQlz2z6RsAOycABtgxtRDwTasIg68iELYEFtgLG7mR2cf5dHbqJACwawJggD2IpaRpuuMnxxu+6XodCFsSC2xb07XHEfgeCX3J6HI+nR07AQDsgwAYYI/ioXPhgRM2dreeDI5A2HQw8CTxEvYoQl/9/JQgdeIf+U4DYF8EwAB71nTtd1EJ8atjD09mOhj4pqh2WE/66vOlJKn26ED4C8A+CYABMlELAS/W7w5OgfAnhxTGqTflu5701btPiVYx+esFJgB7JQAGyEwtBGzN7ToMVhcBw9d07VGvy9eULzV4PZ/OrpwpAPZNAAxQgKiFOJtMJu+dD9gagTAMSK/W4cjqGSr0bj6dLZ04AHIQAAMUJB5uFx5sYScEwlCR+E486v2odaBWH+bT2ZmzB0AuAmCAAjVdexJBsIdd2J11IHyjQxjyE/gyUOfz6ezEyQUgJwEwQKHUQsDe3a3D4AiEbdIDOxQdvkcqHRgw4S8ARRAAAxQuJqKWNriBLK57U8I3poTheZquPYig99CmbYxEWmVypG4IgBIIgAEq0XTtaUwEWxIL+aynhNeTwjce7uGvYgXL4b3A13cXYyL8BaAoAmCAisRDdeoGfuu8QTGEwoxaVDkc9n5M9zJmwl8AiiMABqhQPGwvPGRDsVIo/El9BENyb7L3YCLshftWEf7qkAegKAJggIqphYDqXEcwfNMLhk2JUZzonz+4F/h+70zBo4S/ABRLAAxQudhYJ00Dv3EuoUqrXiD8STDMPt0Letd/bqoXnkb4C0DRBMAAAxG1EEsTWjAo64nhdTD8eT6dXTnFPEWvuuEgftL3xXeCXtgK4S8AxRMAAwxM07WpEuJULQQM2qo3Mdz/MTk8UrEapP9zGCHvT2M/NrBDwl8AqiAABhggtRAwemkX+s/rqeF+SGwzujo9EPB+1wt5TfJCHu/m09nSsQegdAJggAFruvY4gmC1EEDfeoJ40guJP/f/O5PE+9GrZ5g8EO5O4o9WdEB5hL8AVEMADDBwES6kSohfnWvgGa57/5d+//A6OJ5EN7El0H+d1F07euTPVTNAvYS/AFRFAAwwEhFKLIUOwB70J4zX+oHx2ucH/rq//O+7CpYfCGrve+x/P3rgr7PKAsZD+AtAdQTAACOjFgIA4FmEvwBU6e9OG8C4zKezi+iU/ODUAwBsRPgLQLVMAAOMWNO1hzENrBYCAOBhwl8AqiYABiAFwScRBNtpHgDgd6nP/Hg+nV05HgDUTAUEAJOYakkbGX10NAAAfgt/j4S/AAyBCWAA/kItBAAwcuvw92bsBwKAYRAAA/CgpmtPJ5PJmVoIAGBEhL8ADI4AGIBHNV37XUwDv3WUAICBE/4CMEgCYAC+qenaowiCXzlaAMAA3Ub4+9nJBWBoBMAAbEwtBAAwQMJfAAZNAAzAk0QtxHIymbxx5ACAygl/ARg8ATAAzxK1ECkI/t4RBAAqdD6fzk6cOACGTgAMwIs0XZsqIU7VQgAAFRH+AjAaAmAAXqzp2oPYJE4tBABQul/m09nCWQJgLATAAGyNWggAoHDv5tPZ0kkCYEz+7mwDsC3z6exqMpkcTiaTDw4qAFCQ1WQyeS38BWCMTAADsBNRC5Eesn5yhAGAjFL4ezSfzm6cBADGSAAMwE41XXsc/cBqIQCAfbuN8PezIw/AWKmAAGCn5tPZhVoIACCDS+EvAJgABmCPmq49jGlgtRAAwC6dz6ezE0cYAATAAGTQdO1JBMH/cPwBgC17Z7M3APiTCggA9i4eytImcR8dfQBgS9Jmb6+FvwDwVyaAAchKLQQAsAVps7eT+XR242ACwF8JgAEogloIAOCZrieTybHN3gDgYQJgAIrRdO13EQK/dVYAgA18nE9npw4UADxOAAxAcZquPYog+JWzAwA8IPX9nur7BYBvEwADUKyma9NEz5laCACg5y4qH/T9AsAGBMAAFE0tBADQo+8XAJ5IAAxAFaIWIi3z/N4ZA4BR0vcLAM8gAAagKk3XpkqIU7UQADAaqe/3ZD6dXTjlAPB0AmAAqtN07UHUQrxx9gBg0G4j/NX3CwDPJAAGoFpqIQBg0M7Tqh99vwDwMgJgAKoXtRC/OpMAMAirCH6XTicAvJwAGIBBiFqI9KD4kzMKANVS+QAAWyYABmBQmq49jn5gtRAAUBeVDwCwAwJgAAan6drv0gOkWggAqILKBwDYIQEwAIOlFgIAiqfyAQB2TAAMwOA1XXsStRD/cLYBoBgf59PZqdMBALv1d8cXgKGLJaVpGvijkw0A2aXKh5+FvwCwHyaAARiVpmsPYxpYLQQA7N9lVD7Y6A0A9kQADMAoqYUAgL1KU79n8+ls4bADwH4JgAEYraZrv4sQ+K3fBQCwM2mjt+P5dPbJIQaA/RMAAzB6TdceRRD8auzHAgC27MN8OjtzUAEgHwEwAISma9NmNGdqIQDgxW6j6/fGoQSAvATAANCjFgIAXszULwAURAAMAA9QCwEAT2bqFwAKJAAGgK9QCwEAGzH1CwCFEgADwDdELUR6qH3vWAHAX5j6BYDCCYABYENN1x5GLcRPjhkAmPoFgBoIgAHgiZquPY4g+HvHDoARuo6p309OPgCUTwAMAM/UdG2aejrVDwzASKxSJdJ8Ols44QBQDwEwALxA9AOnB+G3jiMAA3YZU7+fnWQAqIsAGAC2oOnag8lkstQPDMDA3EXwe+XEAkCdBMAAsEVN1x7FRPArxxWAytnkDQAGQAAMADvQdO1J6km0URwAFbLJGwAMiAAYAHao6drTCIJtFAdA6VLdw+l8OrtwpgBgOATAALBjsVHcafwIggEozSrqixY2eQOA4REAA8CeRBCcHrDfOuYAFOIypn7VPQDAQAmAAWDPmq49iFoIQTAAudxG8HvlDADAsAmAASATQTAAGawi+F06+AAwDgJgAMgsguBUDfHGuQBgR/T8AsBICYABoBBN1x7FRPBPzgkAW3Sevl/0/ALAOAmAAaAwgmAAtuQ66h5uHFAAGC8BMAAUKoLgU9UQADyRDd4AgD8IgAGgcDaLA2BDd1H1YIM3AOAPAmAAqIQgGIBHCH4BgEcJgAGgMoJgAMJqMpks0s98OvvsoAAADxEAA0Clmq79LjqC088/nEeA0RD8AgAbEwADQOV6QfDJZDL53vkEGCzBLwDwZAJgABiQpmtPoh5CEAwwHIJfAODZBMAAMEBN1x7HVPBPzi9AtQS/AMCLCYABYMCarj2MINiGcQD1EPwCAFsjAAaAEWi69iA6gm0YB1Cuu1TjM5/Ols4RALAtAmAAGJHYMO5YTzBAUQS/AMDOCIABYKSarj2KieA3fg8AZHEdwe+Vww8A7IoAGABGLuohTqMiQj0EwO6dR7/vjWMNAOyaABgA+EPTteue4FeOCsBWpY3dlhH8fnJoAYB9EQADAF9ouvYwguBjU8EAL5L6fRcp/J1PZ58dSgBg3wTAAMCjepvGmQoGeJrrmPa9cNwAgJwEwADARkwFA3xTqnm4iI3d1DwAAEUQAAMAT9KbCk59wT85egC/1TycpfBXzQMAUBoBMADwbE3XHvSmgr93JIGROY9u3ysnHgAolQAYANiKpmuPIwh+64gCA2ZTNwCgKgJgAGCrbBwHDJRpXwCgSgJgAGBnoiLiJH5URAC1uY1pX92+AEC1BMAAwF40XXsYQbC+YKBkqeLhIgW/8+nskzMFANROAAwA7F2vLzj9/MMZAApwHpO+F04GADAkAmAAICthMJDRZUz7qngAAAZLAAwAFEMYDOxB6vVdRuir4gEAGDwBMABQJGEwsEVCXwBgtATAAEDxbCAHPIPQFwAYvYkAGACoTYTBRxEIv3ICgR6hLwDAPQJgAKBaTdceRBicJoPfOJMwSte9jdyEvgAA9wiAAYDBiN7gI1URMGiryWRy1Qt9PzvdAACPEwADAIMU08HrQNh0MNTtLgLfq/l0duFcAgBsTgAMAIxCbzr4SHcwVOFyPemr2gEA4PkEwADA6DRd+11vOvhIXQQUwZQvAMAOCIABgNG7t5lc+uM/xn5MYA9W68A3Ql9TvgAAOyAABgC4p+nawwiCD00Iw9asN29bB743Di0AwO4JgAEAvuH/t3cHtwkDQQBFt4AcqCCig9BBUhmHVAYdQAeGCnyggGjRWJo4RAoJOLZ5T7IMBwuEOX2NxmlC2MoI+DnBFwBgBARgAIArxQ7hPCH86jeE8w7fGnt3gi8AwHgIwAAAN2BtBA9o28XeerbDFwBgnARgAIA7iCnhHIVXojATto/Yu4vYu3EzAQCmQQAGABiIKMxEHFLs7aZ7WzcPAGCaBGAAgH+2Ph27ILyMs53CDKWucWhM9gIAzJcADAAwQuvTcRlB+C3OS2GYP9jn0Ftfe0gbAMBjEIABACYkheFV72yVBCUmeluhFwCAjgAMADAT69OxxuBFTA0vijg8Vznytml9gz29AAB8IQADADyANDncP2oofvEfGJVtfJldP/SKvAAAXEsABgDgLB5GV1IgLjFNXEwS38Qh9vBW3cPWmjhaqxoAALgHARgAgKukaeLSi8Xd2omS3s91ujjH3JKmdEuKuiV28DYXrgcAgEEIwAAADCZNGWc5In/n0nW/kUPtJd3KhU/en543t/hwAAAYVCnlAys19Pv37H2nAAAAAElFTkSuQmCC;" vertex="1" parent="ViAHHDkNQJJAyb4cHbFf-2">
          <mxGeometry x="420" y="102" width="42.25" height="53.6" as="geometry" />
        </mxCell>
        <mxCell id="N8-MjwElvkZ1eLH-sIl_-13" value="API" style="aspect=fixed;sketch=0;html=1;dashed=0;whitespace=wrap;verticalLabelPosition=bottom;verticalAlign=top;fillColor=#2875E2;strokeColor=#ffffff;points=[[0.005,0.63,0],[0.1,0.2,0],[0.9,0.2,0],[0.5,0,0],[0.995,0.63,0],[0.72,0.99,0],[0.5,1,0],[0.28,0.99,0]];shape=mxgraph.kubernetes.icon2;prIcon=api" vertex="1" parent="ViAHHDkNQJJAyb4cHbFf-2">
          <mxGeometry x="277.5" y="159" width="50" height="48" as="geometry" />
        </mxCell>
        <mxCell id="ViAHHDkNQJJAyb4cHbFf-3" value="&lt;div&gt;AG1/US2/US1/US3/etc.&lt;/div&gt;" style="swimlane;whiteSpace=wrap;html=1;" parent="1" vertex="1">
          <mxGeometry x="29" y="726" width="780" height="332" as="geometry" />
        </mxCell>
        <mxCell id="ViAHHDkNQJJAyb4cHbFf-12" value="Webhook Worker" style="aspect=fixed;sketch=0;html=1;dashed=0;whitespace=wrap;verticalLabelPosition=bottom;verticalAlign=top;fillColor=#2875E2;strokeColor=#ffffff;points=[[0.005,0.63,0],[0.1,0.2,0],[0.9,0.2,0],[0.5,0,0],[0.995,0.63,0],[0.72,0.99,0],[0.5,1,0],[0.28,0.99,0]];shape=mxgraph.kubernetes.icon2;prIcon=pod" parent="ViAHHDkNQJJAyb4cHbFf-3" vertex="1">
          <mxGeometry x="165" y="50" width="50" height="48" as="geometry" />
        </mxCell>
        <mxCell id="ViAHHDkNQJJAyb4cHbFf-14" value="ArgoCD (DEMS)" style="shape=image;verticalLabelPosition=bottom;labelBackgroundColor=default;verticalAlign=top;aspect=fixed;imageAspect=0;image=data:image/svg+xml,PHN2ZyB2aWV3Qm94PSIwIDAgMTI4IDEyOCIgeG1sbnM6eGxpbms9Imh0dHA6Ly93d3cudzMub3JnLzE5OTkveGxpbmsiIHhtbG5zPSJodHRwOi8vd3d3LnczLm9yZy8yMDAwL3N2ZyI+PGRlZnM+PGNsaXBQYXRoIGlkPSJhcmdvY2Qtb3JpZ2luYWwtZSI+PHBhdGggZD0iTTQyIDQxaDQ0djUxSDQyem0wIDAiLz48L2NsaXBQYXRoPjxjbGlwUGF0aCBpZD0iYXJnb2NkLW9yaWdpbmFsLWQiPjxwYXRoIGQ9Ik0wIDBoMTI4djEyOEgweiIvPjwvY2xpcFBhdGg+PGNsaXBQYXRoIGlkPSJhcmdvY2Qtb3JpZ2luYWwtYyI+PHBhdGggZD0iTTAgMGgxMjh2MTI4SDB6Ii8+PC9jbGlwUGF0aD48Y2xpcFBhdGggaWQ9ImFyZ29jZC1vcmlnaW5hbC1mIj48cGF0aCBkPSJNODUuNjk1IDQxLjEzM2wtMi41NSA1OC4yMzhINDQuODg3bC0yLjEyNS01OC4yMzgiLz48L2NsaXBQYXRoPjxjbGlwUGF0aCBpZD0iYXJnb2NkLW9yaWdpbmFsLWIiPjxwYXRoIGQ9Ik0wIDBoMTI4djEyOEgweiIvPjwvY2xpcFBhdGg+PG1hc2sgaWQ9ImFyZ29jZC1vcmlnaW5hbC1sIj48ZyBmaWx0ZXI9InVybCgjYXJnb2NkLW9yaWdpbmFsLWEpIj48cGF0aCBmaWxsLW9wYWNpdHk9Ii4yNTEiIGQ9Ik0wIDBoMTI4djEyOEgweiIvPjwvZz48L21hc2s+PG1hc2sgaWQ9ImFyZ29jZC1vcmlnaW5hbC1oIj48ZyBmaWx0ZXI9InVybCgjYXJnb2NkLW9yaWdpbmFsLWEpIj48cGF0aCBmaWxsLW9wYWNpdHk9Ii4yMiIgZD0iTTAgMGgxMjh2MTI4SDB6Ii8+PC9nPjwvbWFzaz48bWFzayBpZD0iYXJnb2NkLW9yaWdpbmFsLWoiPjxnIGZpbHRlcj0idXJsKCNhcmdvY2Qtb3JpZ2luYWwtYSkiPjxwYXRoIGZpbGwtb3BhY2l0eT0iLjUwMiIgZD0iTTAgMGgxMjh2MTI4SDB6Ii8+PC9nPjwvbWFzaz48ZyBjbGlwLXBhdGg9InVybCgjYXJnb2NkLW9yaWdpbmFsLWIpIiBpZD0iYXJnb2NkLW9yaWdpbmFsLWkiPjxwYXRoIGZpbGw9IiNmYmRmYzMiIGQ9Ik01OC40ODggMzAuNTA4YTIuOTc0IDIuOTc0IDAgMTEtNS45NDgtLjAwMyAyLjk3NCAyLjk3NCAwIDAxNS45NDguMDAzem0wIDAiLz48L2c+PGcgY2xpcC1wYXRoPSJ1cmwoI2FyZ29jZC1vcmlnaW5hbC1jKSIgaWQ9ImFyZ29jZC1vcmlnaW5hbC1nIj48cGF0aCBmaWxsPSIjZTM0ZTNiIiBkPSJNODQuNDIyIDY1LjM2M3MyLjU1LTIyLjUzMS0uODUyLTMxLjAzMUM3Ny4xOTUgMTkuNDUzIDYyLjMxNiAyMC43MyA2Mi4zMTYgMjAuNzNzOC41IDMuMzk5IDguOTI2IDE2LjE1M2MuNDI2IDguOTI2IDAgMjIuMTA1IDAgMjIuMTA1em0wIDAiLz48L2c+PGcgY2xpcC1wYXRoPSJ1cmwoI2FyZ29jZC1vcmlnaW5hbC1kKSIgaWQ9ImFyZ29jZC1vcmlnaW5hbC1rIj48cGF0aCBmaWxsPSIjZTk2NTRiIiBkPSJNODMuMTQ1IDkwLjg2N1Y4Ny40N2MtNS45NSAzLjM5OC0xMi4zMjkgNi44LTE5Ljk3NyA2LjgtOC41MDQgMC0xNC4wMzEtMy44MjQtMTkuNTU1LTYuOGwuNDIyIDMuMzk4czYuMzggNi44MDUgMTkuNTU1IDYuODA1YzEyLjMyOC0uNDI2IDE5LjU1NS02LjgwNSAxOS41NTUtNi44MDV6bTAgMCIvPjwvZz48ZmlsdGVyIGhlaWdodD0iMTAwJSIgd2lkdGg9IjEwMCUiIHk9IjAlIiB4PSIwJSIgZmlsdGVyVW5pdHM9Im9iamVjdEJvdW5kaW5nQm94IiBpZD0iYXJnb2NkLW9yaWdpbmFsLWEiPjxmZUNvbG9yTWF0cml4IHZhbHVlcz0iMCAwIDAgMCAxIDAgMCAwIDAgMSAwIDAgMCAwIDEgMCAwIDAgMSAwIiBpbj0iU291cmNlR3JhcGhpYyIvPjwvZmlsdGVyPjwvZGVmcz48cGF0aCBmaWxsPSIjZTk2NTRiIiBkPSJNNDQuMDM1IDg5LjU5NHMtLjg0NyAyLjU1LTIuMTI1IDMuODI0YTMuODQ0IDMuODQ0IDAgMDEtMi45NzIgMS4yNzcgNDkuOTQ2IDQ5Ljk0NiAwIDAxLTYuMzggMS4yNzRzMi45NzcuNDI2IDYuMzguODUxYzEuMjczIDAgMS4yNzMgMCAyLjEyNC40MjYgMi4xMjYgMCAyLjk3My0xLjI3NyAyLjk3My0xLjI3N3ptMzkuMTEgMHMuODUxIDIuNTUgMi4xMjUgMy44MjRhMy44NTggMy44NTggMCAwMDIuOTc2IDEuMjc3IDQ5LjggNDkuOCAwIDAwNi4zNzUgMS4yNzRzLTIuOTczLjQyNi02LjguODUxYy0xLjI3NCAwLTEuMjc0IDAtMi4xMjYuNDI2LTIuNTUgMC0yLjk3Ni0xLjI3Ny0yLjk3Ni0xLjI3N3ptMCAwIi8+PHBhdGggZmlsbD0iI2I2Y2ZlYSIgZD0iTTEwOS45MjYgNDcuNTA4YzAgMjUuMzU1LTIwLjU1NSA0NS45MS00NS45MSA0NS45MS0yNS4zNTYgMC00NS45MS0yMC41NTUtNDUuOTEtNDUuOTEgMC0yNS4zNTIgMjAuNTU0LTQ1LjkwNiA0NS45MS00NS45MDYgMjUuMzU1IDAgNDUuOTEgMjAuNTU0IDQ1LjkxIDQ1LjkwNnptMCAwIi8+PHBhdGggZmlsbD0iI2U2ZjVmOCIgZD0iTTEwOC4yMjcgNDcuNTA4YzAgMjQuNDE4LTE5Ljc5MyA0NC4yMS00NC4yMTEgNDQuMjEtMjQuNDE0IDAtNDQuMjA3LTE5Ljc5Mi00NC4yMDctNDQuMjFDMTkuODA5IDIzLjA5NCAzOS42MDIgMy4zIDY0LjAxNiAzLjNjMjQuNDE4IDAgNDQuMjEgMTkuNzkzIDQ0LjIxIDQ0LjIwN3ptMCAwIi8+PHBhdGggZmlsbD0iI2QwZThmMCIgZD0iTTEwMC4xNDggNDguMzZjMCAxOS45NTYtMTYuMTc1IDM2LjEzMi0zNi4xMzIgMzYuMTMyLTE5Ljk1NCAwLTM2LjEzMy0xNi4xNzYtMzYuMTMzLTM2LjEzMyAwLTE5Ljk1MyAxNi4xOC0zNi4xMzIgMzYuMTMzLTM2LjEzMiAxOS45NTcgMCAzNi4xMzIgMTYuMTggMzYuMTMyIDM2LjEzMnptMCAwIi8+PHBhdGggZmlsbD0iI2VlNzk0YiIgZD0iTTQyLjc2MiA2NS4zNjNzMi45NzYgNDguMDM1IDIuOTc2IDQ4Ljg4N2MwIC40MjIuNDI2IDEuMjczLTEuNzAzIDIuMTI1LTIuMTI1Ljg0OC04LjkyNiAyLjU1LTguOTI2IDIuNTVoMTAuMjAzYzQuNjc2IDAgNC42NzYtMy44MjcgNC42NzYtNC42NzUgMC0uODUyIDEuMjc0LTE5LjEyOSAxLjI3NC0xOS4xMjlzLjQyNSAyMS42OC40MjUgMjIuNTI3YzAgLjg1Mi0uNDI1IDIuMTI1LTMuMzk4IDIuOTc3LTIuMTI1LjQyNi04LjUwNCAxLjctOC41MDQgMS43aDkuNzc4YzUuOTUzIDAgNS45NTMtMy44MjUgNS45NTMtMy44MjVsMS4yNzMtMTkuMTI5cy40MjYgMTkuMTI5LjQyNiAyMS4yNTRjMCAxLjctMS4yNzQgMi45NzctNS45NTMgMy44MjQtMi45NzMuODUyLTYuODAxIDEuNzAzLTYuODAxIDEuNzAzaDExLjA1NWM1LjUyMy0uNDI1IDYuMzc1LTQuMjU0IDYuMzc1LTQuMjU0bDkuMzUxLTQ3LjYwOXptMCAwIi8+PHBhdGggZmlsbD0iI2VlNzk0YiIgZD0iTTg1LjI3IDY1LjM2M3MtMi45NzMgNDguMDM1LTIuOTczIDQ4Ljg4N2MwIC40MjItLjQyNiAxLjI3MyAxLjcgMi4xMjUgMi4xMjQuODQ4IDguOTI1IDIuNTUgOC45MjUgMi41NUg4Mi43MTljLTQuNjc2IDAtNC42NzYtMy44MjctNC42NzYtNC42NzUgMC0uODUyLTEuMjczLTE5LjEyOS0xLjI3My0xOS4xMjlzLS40MjYgMjEuNjgtLjQyNiAyMi41MjdjMCAuODUyLjQyNiAyLjEyNSAzLjQwMiAyLjk3N2w4LjUgMS43SDc4LjQ3Yy01Ljk1IDAtNS45NS0zLjgyNS01Ljk1LTMuODI1bC0xLjI3Ny0xOS4xMjlzLS40MjYgMTkuMTI5LS40MjYgMjEuMjU0YzAgMS43IDEuMjc4IDIuOTc3IDUuOTU0IDMuODI0IDIuOTc2Ljg1MiA2LjggMS43MDMgNi44IDEuNzAzSDcyLjUyYy01LjUyOC0uNDI1LTYuMzgtNC4yNTQtNi4zOC00LjI1NEw1Ni43OSA3NC4yOXptLjQyNS0yMy4zNzljMCAxMS45MDMtOS43NzcgMjEuMjU0LTIxLjI1NCAyMS4yNTQtMTEuNDc2IDAtMjEuMjU0LTkuNzc3LTIxLjI1NC0yMS4yNTQgMC0xMS40NzYgOS43NzgtMjEuMjU0IDIxLjI1NC0yMS4yNTQgMTEuNDc3IDAgMjEuMjU0IDkuMzUyIDIxLjI1NCAyMS4yNTR6bTAgMCIvPjxnIGNsaXAtcGF0aD0idXJsKCNhcmdvY2Qtb3JpZ2luYWwtZSkiPjxnIGNsaXAtcGF0aD0idXJsKCNhcmdvY2Qtb3JpZ2luYWwtZikiPjxwYXRoIGZpbGw9IiNlZTc5NGIiIGQ9Ik0xMDIuMjczIDUzLjQ2YzAgMjAuODk1LTE2LjkzNyAzNy44MzMtMzcuODMyIDM3LjgzMy0yMC44OTQgMC0zNy44MzItMTYuOTM4LTM3LjgzMi0zNy44MzIgMC0yMC44OTUgMTYuOTM4LTM3LjgzMiAzNy44MzItMzcuODMyIDIwLjg5NSAwIDM3LjgzMiAxNi45MzcgMzcuODMyIDM3LjgzMnptMCAwIi8+PC9nPjwvZz48dXNlIG1hc2s9InVybCgjYXJnb2NkLW9yaWdpbmFsLWgpIiB4bGluazpocmVmPSIjYXJnb2NkLW9yaWdpbmFsLWciLz48dXNlIG1hc2s9InVybCgjYXJnb2NkLW9yaWdpbmFsLWopIiB4bGluazpocmVmPSIjYXJnb2NkLW9yaWdpbmFsLWkiLz48cGF0aCBmaWxsPSIjMDEwMTAxIiBkPSJNNzEuNjY4IDczLjg2M2MwIDcuMjI3LTMuNDAyIDExLjkwNy03LjY1MiAxMS45MDdzLTcuNjUzLTUuNTI4LTcuNjUzLTEyLjc1NGMwIDAgMy40MDMgNi44IDguMDc4IDYuOCA0LjY3NiAwIDcuMjI3LTUuOTUzIDcuMjI3LTUuOTUzem0wIDAiLz48cGF0aCBmaWxsPSIjZmZmIiBkPSJNNzEuNjY4IDczLjg2M2MwIDQuNjgtMy40MDIgNy4yMjctNy42NTIgNy4yMjdzLTcuMjI3LTMuMzk5LTcuMjI3LTcuNjQ5YzAgMCAzLjQwMiA0LjI1IDguMDc4IDQuMjUgNC42NzYgMCA2LjgwMS0zLjgyOCA2LjgwMS0zLjgyOHptMCAwIi8+PHBhdGggZmlsbD0iI2U5NjU0YiIgZD0iTTkyLjA3IDUzLjg4N2MwIDcuMjc3LTUuODk4IDEzLjE3NS0xMy4xNzUgMTMuMTc1LTcuMjc4IDAtMTMuMTgtNS44OTgtMTMuMTgtMTMuMTc1IDAtNy4yNzggNS45MDItMTMuMTggMTMuMTgtMTMuMTggNy4yNzcgMCAxMy4xNzUgNS45MDIgMTMuMTc1IDEzLjE4em0tMjkuNzU0IDBjMCA3LjI3Ny01LjkwMiAxMy4xNzUtMTMuMTggMTMuMTc1LTcuMjc3IDAtMTMuMTc1LTUuODk4LTEzLjE3NS0xMy4xNzUgMC03LjI3OCA1Ljg5OC0xMy4xOCAxMy4xNzYtMTMuMTggNy4yNzcgMCAxMy4xOCA1LjkwMiAxMy4xOCAxMy4xOHptMCAwIi8+PHBhdGggZmlsbD0iI2ZmZiIgZD0iTTg5LjA5OCA1My44ODdjMCA1LjYzMy00LjU3IDEwLjIwMy0xMC4yMDMgMTAuMjAzLTUuNjMzIDAtMTAuMjA0LTQuNTctMTAuMjA0LTEwLjIwMyAwLTUuNjM3IDQuNTctMTAuMjAzIDEwLjIwNC0xMC4yMDMgNS42MzIgMCAxMC4yMDMgNC41NjYgMTAuMjAzIDEwLjIwM3ptLTMwLjYxIDBjMCA1LjYzMy00LjU2NiAxMC4yMDMtMTAuMTk5IDEwLjIwMy01LjYzNyAwLTEwLjIwMy00LjU3LTEwLjIwMy0xMC4yMDNhMTAuMjAxIDEwLjIwMSAwIDAxMTAuMjAzLTEwLjIwM2M1LjYzMyAwIDEwLjIgNC41NjYgMTAuMiAxMC4yMDN6bTAgMCIvPjxwYXRoIGZpbGw9IiMwMTAxMDEiIGQ9Ik01MS4yNjIgNTIuNjFhMi45NzUgMi45NzUgMCAxMS01Ljk1LjAwMyAyLjk3NSAyLjk3NSAwIDAxNS45NS0uMDA0em0zMC42MDkgMGEyLjk3NiAyLjk3NiAwIDExLTUuOTUxLjAwMSAyLjk3NiAyLjk3NiAwIDAxNS45NTEtLjAwMnptMCAwIi8+PHBhdGggZmlsbD0iI2I2Y2ZlYSIgZD0iTTE3LjI1OCA1OC45ODhhMi4wMDUgMi4wMDUgMCAwMS0yLjEyNS0yLjEyNVYzOS44NmEyLjAwOCAyLjAwOCAwIDAxLjU4Mi0xLjU0MyAyLjAwOCAyLjAwOCAwIDAxMS41NDMtLjU4MiAyLjAwNSAyLjAwNSAwIDAxMi4xMjUgMi4xMjV2MTcuMDA0Yy4wMzUuNTctLjE4IDEuMTMzLS41ODYgMS41NGEyLjAwOCAyLjAwOCAwIDAxLTEuNTQuNTg1em05Mi42NjggMGEyLjAwMyAyLjAwMyAwIDAxLTEuNTQtLjU4NiAyLjAwOCAyLjAwOCAwIDAxLS41ODUtMS41MzlWMzkuODZhMi4wMTEgMi4wMTEgMCAwMS41ODYtMS41NDMgMiAyIDAgMDExLjUzOS0uNTgyIDIgMiAwIDAxMS41MzkuNTgyYy40MS40MDcuNjIuOTcuNTg2IDEuNTQzdjE3LjAwNGExLjk5NCAxLjk5NCAwIDAxLS41ODYgMS41NCAyLjAwMyAyLjAwMyAwIDAxLTEuNTQuNTg1em0wIDAiLz48cGF0aCBmaWxsPSIjZmZmIiBkPSJNNTEuNjg4IDEzLjUwNGEyLjEyNSAyLjEyNSAwIDExLTQuMjUgMCAyLjEyNSAyLjEyNSAwIDAxNC4yNSAwek0zNC4yNjIgNzAuODlhMS41NTkgMS41NTkgMCAwMS0xLjI3OC0uNDI1Yy01LjEwMS02LjM3NS03LjY1Mi0xNC40NTMtNy42NTItMjIuNTMxYTM3LjkzMyAzNy45MzMgMCAwMTUuMTAyLTE5LjEzIDQxLjY0MSA0MS42NDEgMCAwMTEzLjYwMS0xMy42IDEuODczIDEuODczIDAgMDEyLjEzLjQyNSAxLjg3NCAxLjg3NCAwIDAxLS40MjcgMi4xMjUgMzQuMzA1IDM0LjMwNSAwIDAwLTE3LjQzIDI5Ljc1NCAzMy40ODcgMzMuNDg3IDAgMDA3LjIyNyAyMC44MzJjLjQyNi40MjYuNDI2IDEuNy0uNDI2IDIuMTI1LS40MjUuNDI2LS40MjUuNDI2LS44NDcuNDI2em0wIDAiLz48dXNlIG1hc2s9InVybCgjYXJnb2NkLW9yaWdpbmFsLWwpIiB4bGluazpocmVmPSIjYXJnb2NkLW9yaWdpbmFsLWsiLz48L3N2Zz4=;" parent="ViAHHDkNQJJAyb4cHbFf-3" vertex="1">
          <mxGeometry x="40" y="190" width="68" height="68" as="geometry" />
        </mxCell>
        <mxCell id="ViAHHDkNQJJAyb4cHbFf-15" value="ArgoCD (RMS)" style="shape=image;verticalLabelPosition=bottom;labelBackgroundColor=default;verticalAlign=top;aspect=fixed;imageAspect=0;image=data:image/svg+xml,PHN2ZyB2aWV3Qm94PSIwIDAgMTI4IDEyOCIgeG1sbnM6eGxpbms9Imh0dHA6Ly93d3cudzMub3JnLzE5OTkveGxpbmsiIHhtbG5zPSJodHRwOi8vd3d3LnczLm9yZy8yMDAwL3N2ZyI+PGRlZnM+PGNsaXBQYXRoIGlkPSJhcmdvY2Qtb3JpZ2luYWwtZSI+PHBhdGggZD0iTTQyIDQxaDQ0djUxSDQyem0wIDAiLz48L2NsaXBQYXRoPjxjbGlwUGF0aCBpZD0iYXJnb2NkLW9yaWdpbmFsLWQiPjxwYXRoIGQ9Ik0wIDBoMTI4djEyOEgweiIvPjwvY2xpcFBhdGg+PGNsaXBQYXRoIGlkPSJhcmdvY2Qtb3JpZ2luYWwtYyI+PHBhdGggZD0iTTAgMGgxMjh2MTI4SDB6Ii8+PC9jbGlwUGF0aD48Y2xpcFBhdGggaWQ9ImFyZ29jZC1vcmlnaW5hbC1mIj48cGF0aCBkPSJNODUuNjk1IDQxLjEzM2wtMi41NSA1OC4yMzhINDQuODg3bC0yLjEyNS01OC4yMzgiLz48L2NsaXBQYXRoPjxjbGlwUGF0aCBpZD0iYXJnb2NkLW9yaWdpbmFsLWIiPjxwYXRoIGQ9Ik0wIDBoMTI4djEyOEgweiIvPjwvY2xpcFBhdGg+PG1hc2sgaWQ9ImFyZ29jZC1vcmlnaW5hbC1sIj48ZyBmaWx0ZXI9InVybCgjYXJnb2NkLW9yaWdpbmFsLWEpIj48cGF0aCBmaWxsLW9wYWNpdHk9Ii4yNTEiIGQ9Ik0wIDBoMTI4djEyOEgweiIvPjwvZz48L21hc2s+PG1hc2sgaWQ9ImFyZ29jZC1vcmlnaW5hbC1oIj48ZyBmaWx0ZXI9InVybCgjYXJnb2NkLW9yaWdpbmFsLWEpIj48cGF0aCBmaWxsLW9wYWNpdHk9Ii4yMiIgZD0iTTAgMGgxMjh2MTI4SDB6Ii8+PC9nPjwvbWFzaz48bWFzayBpZD0iYXJnb2NkLW9yaWdpbmFsLWoiPjxnIGZpbHRlcj0idXJsKCNhcmdvY2Qtb3JpZ2luYWwtYSkiPjxwYXRoIGZpbGwtb3BhY2l0eT0iLjUwMiIgZD0iTTAgMGgxMjh2MTI4SDB6Ii8+PC9nPjwvbWFzaz48ZyBjbGlwLXBhdGg9InVybCgjYXJnb2NkLW9yaWdpbmFsLWIpIiBpZD0iYXJnb2NkLW9yaWdpbmFsLWkiPjxwYXRoIGZpbGw9IiNmYmRmYzMiIGQ9Ik01OC40ODggMzAuNTA4YTIuOTc0IDIuOTc0IDAgMTEtNS45NDgtLjAwMyAyLjk3NCAyLjk3NCAwIDAxNS45NDguMDAzem0wIDAiLz48L2c+PGcgY2xpcC1wYXRoPSJ1cmwoI2FyZ29jZC1vcmlnaW5hbC1jKSIgaWQ9ImFyZ29jZC1vcmlnaW5hbC1nIj48cGF0aCBmaWxsPSIjZTM0ZTNiIiBkPSJNODQuNDIyIDY1LjM2M3MyLjU1LTIyLjUzMS0uODUyLTMxLjAzMUM3Ny4xOTUgMTkuNDUzIDYyLjMxNiAyMC43MyA2Mi4zMTYgMjAuNzNzOC41IDMuMzk5IDguOTI2IDE2LjE1M2MuNDI2IDguOTI2IDAgMjIuMTA1IDAgMjIuMTA1em0wIDAiLz48L2c+PGcgY2xpcC1wYXRoPSJ1cmwoI2FyZ29jZC1vcmlnaW5hbC1kKSIgaWQ9ImFyZ29jZC1vcmlnaW5hbC1rIj48cGF0aCBmaWxsPSIjZTk2NTRiIiBkPSJNODMuMTQ1IDkwLjg2N1Y4Ny40N2MtNS45NSAzLjM5OC0xMi4zMjkgNi44LTE5Ljk3NyA2LjgtOC41MDQgMC0xNC4wMzEtMy44MjQtMTkuNTU1LTYuOGwuNDIyIDMuMzk4czYuMzggNi44MDUgMTkuNTU1IDYuODA1YzEyLjMyOC0uNDI2IDE5LjU1NS02LjgwNSAxOS41NTUtNi44MDV6bTAgMCIvPjwvZz48ZmlsdGVyIGhlaWdodD0iMTAwJSIgd2lkdGg9IjEwMCUiIHk9IjAlIiB4PSIwJSIgZmlsdGVyVW5pdHM9Im9iamVjdEJvdW5kaW5nQm94IiBpZD0iYXJnb2NkLW9yaWdpbmFsLWEiPjxmZUNvbG9yTWF0cml4IHZhbHVlcz0iMCAwIDAgMCAxIDAgMCAwIDAgMSAwIDAgMCAwIDEgMCAwIDAgMSAwIiBpbj0iU291cmNlR3JhcGhpYyIvPjwvZmlsdGVyPjwvZGVmcz48cGF0aCBmaWxsPSIjZTk2NTRiIiBkPSJNNDQuMDM1IDg5LjU5NHMtLjg0NyAyLjU1LTIuMTI1IDMuODI0YTMuODQ0IDMuODQ0IDAgMDEtMi45NzIgMS4yNzcgNDkuOTQ2IDQ5Ljk0NiAwIDAxLTYuMzggMS4yNzRzMi45NzcuNDI2IDYuMzguODUxYzEuMjczIDAgMS4yNzMgMCAyLjEyNC40MjYgMi4xMjYgMCAyLjk3My0xLjI3NyAyLjk3My0xLjI3N3ptMzkuMTEgMHMuODUxIDIuNTUgMi4xMjUgMy44MjRhMy44NTggMy44NTggMCAwMDIuOTc2IDEuMjc3IDQ5LjggNDkuOCAwIDAwNi4zNzUgMS4yNzRzLTIuOTczLjQyNi02LjguODUxYy0xLjI3NCAwLTEuMjc0IDAtMi4xMjYuNDI2LTIuNTUgMC0yLjk3Ni0xLjI3Ny0yLjk3Ni0xLjI3N3ptMCAwIi8+PHBhdGggZmlsbD0iI2I2Y2ZlYSIgZD0iTTEwOS45MjYgNDcuNTA4YzAgMjUuMzU1LTIwLjU1NSA0NS45MS00NS45MSA0NS45MS0yNS4zNTYgMC00NS45MS0yMC41NTUtNDUuOTEtNDUuOTEgMC0yNS4zNTIgMjAuNTU0LTQ1LjkwNiA0NS45MS00NS45MDYgMjUuMzU1IDAgNDUuOTEgMjAuNTU0IDQ1LjkxIDQ1LjkwNnptMCAwIi8+PHBhdGggZmlsbD0iI2U2ZjVmOCIgZD0iTTEwOC4yMjcgNDcuNTA4YzAgMjQuNDE4LTE5Ljc5MyA0NC4yMS00NC4yMTEgNDQuMjEtMjQuNDE0IDAtNDQuMjA3LTE5Ljc5Mi00NC4yMDctNDQuMjFDMTkuODA5IDIzLjA5NCAzOS42MDIgMy4zIDY0LjAxNiAzLjNjMjQuNDE4IDAgNDQuMjEgMTkuNzkzIDQ0LjIxIDQ0LjIwN3ptMCAwIi8+PHBhdGggZmlsbD0iI2QwZThmMCIgZD0iTTEwMC4xNDggNDguMzZjMCAxOS45NTYtMTYuMTc1IDM2LjEzMi0zNi4xMzIgMzYuMTMyLTE5Ljk1NCAwLTM2LjEzMy0xNi4xNzYtMzYuMTMzLTM2LjEzMyAwLTE5Ljk1MyAxNi4xOC0zNi4xMzIgMzYuMTMzLTM2LjEzMiAxOS45NTcgMCAzNi4xMzIgMTYuMTggMzYuMTMyIDM2LjEzMnptMCAwIi8+PHBhdGggZmlsbD0iI2VlNzk0YiIgZD0iTTQyLjc2MiA2NS4zNjNzMi45NzYgNDguMDM1IDIuOTc2IDQ4Ljg4N2MwIC40MjIuNDI2IDEuMjczLTEuNzAzIDIuMTI1LTIuMTI1Ljg0OC04LjkyNiAyLjU1LTguOTI2IDIuNTVoMTAuMjAzYzQuNjc2IDAgNC42NzYtMy44MjcgNC42NzYtNC42NzUgMC0uODUyIDEuMjc0LTE5LjEyOSAxLjI3NC0xOS4xMjlzLjQyNSAyMS42OC40MjUgMjIuNTI3YzAgLjg1Mi0uNDI1IDIuMTI1LTMuMzk4IDIuOTc3LTIuMTI1LjQyNi04LjUwNCAxLjctOC41MDQgMS43aDkuNzc4YzUuOTUzIDAgNS45NTMtMy44MjUgNS45NTMtMy44MjVsMS4yNzMtMTkuMTI5cy40MjYgMTkuMTI5LjQyNiAyMS4yNTRjMCAxLjctMS4yNzQgMi45NzctNS45NTMgMy44MjQtMi45NzMuODUyLTYuODAxIDEuNzAzLTYuODAxIDEuNzAzaDExLjA1NWM1LjUyMy0uNDI1IDYuMzc1LTQuMjU0IDYuMzc1LTQuMjU0bDkuMzUxLTQ3LjYwOXptMCAwIi8+PHBhdGggZmlsbD0iI2VlNzk0YiIgZD0iTTg1LjI3IDY1LjM2M3MtMi45NzMgNDguMDM1LTIuOTczIDQ4Ljg4N2MwIC40MjItLjQyNiAxLjI3MyAxLjcgMi4xMjUgMi4xMjQuODQ4IDguOTI1IDIuNTUgOC45MjUgMi41NUg4Mi43MTljLTQuNjc2IDAtNC42NzYtMy44MjctNC42NzYtNC42NzUgMC0uODUyLTEuMjczLTE5LjEyOS0xLjI3My0xOS4xMjlzLS40MjYgMjEuNjgtLjQyNiAyMi41MjdjMCAuODUyLjQyNiAyLjEyNSAzLjQwMiAyLjk3N2w4LjUgMS43SDc4LjQ3Yy01Ljk1IDAtNS45NS0zLjgyNS01Ljk1LTMuODI1bC0xLjI3Ny0xOS4xMjlzLS40MjYgMTkuMTI5LS40MjYgMjEuMjU0YzAgMS43IDEuMjc4IDIuOTc3IDUuOTU0IDMuODI0IDIuOTc2Ljg1MiA2LjggMS43MDMgNi44IDEuNzAzSDcyLjUyYy01LjUyOC0uNDI1LTYuMzgtNC4yNTQtNi4zOC00LjI1NEw1Ni43OSA3NC4yOXptLjQyNS0yMy4zNzljMCAxMS45MDMtOS43NzcgMjEuMjU0LTIxLjI1NCAyMS4yNTQtMTEuNDc2IDAtMjEuMjU0LTkuNzc3LTIxLjI1NC0yMS4yNTQgMC0xMS40NzYgOS43NzgtMjEuMjU0IDIxLjI1NC0yMS4yNTQgMTEuNDc3IDAgMjEuMjU0IDkuMzUyIDIxLjI1NCAyMS4yNTR6bTAgMCIvPjxnIGNsaXAtcGF0aD0idXJsKCNhcmdvY2Qtb3JpZ2luYWwtZSkiPjxnIGNsaXAtcGF0aD0idXJsKCNhcmdvY2Qtb3JpZ2luYWwtZikiPjxwYXRoIGZpbGw9IiNlZTc5NGIiIGQ9Ik0xMDIuMjczIDUzLjQ2YzAgMjAuODk1LTE2LjkzNyAzNy44MzMtMzcuODMyIDM3LjgzMy0yMC44OTQgMC0zNy44MzItMTYuOTM4LTM3LjgzMi0zNy44MzIgMC0yMC44OTUgMTYuOTM4LTM3LjgzMiAzNy44MzItMzcuODMyIDIwLjg5NSAwIDM3LjgzMiAxNi45MzcgMzcuODMyIDM3LjgzMnptMCAwIi8+PC9nPjwvZz48dXNlIG1hc2s9InVybCgjYXJnb2NkLW9yaWdpbmFsLWgpIiB4bGluazpocmVmPSIjYXJnb2NkLW9yaWdpbmFsLWciLz48dXNlIG1hc2s9InVybCgjYXJnb2NkLW9yaWdpbmFsLWopIiB4bGluazpocmVmPSIjYXJnb2NkLW9yaWdpbmFsLWkiLz48cGF0aCBmaWxsPSIjMDEwMTAxIiBkPSJNNzEuNjY4IDczLjg2M2MwIDcuMjI3LTMuNDAyIDExLjkwNy03LjY1MiAxMS45MDdzLTcuNjUzLTUuNTI4LTcuNjUzLTEyLjc1NGMwIDAgMy40MDMgNi44IDguMDc4IDYuOCA0LjY3NiAwIDcuMjI3LTUuOTUzIDcuMjI3LTUuOTUzem0wIDAiLz48cGF0aCBmaWxsPSIjZmZmIiBkPSJNNzEuNjY4IDczLjg2M2MwIDQuNjgtMy40MDIgNy4yMjctNy42NTIgNy4yMjdzLTcuMjI3LTMuMzk5LTcuMjI3LTcuNjQ5YzAgMCAzLjQwMiA0LjI1IDguMDc4IDQuMjUgNC42NzYgMCA2LjgwMS0zLjgyOCA2LjgwMS0zLjgyOHptMCAwIi8+PHBhdGggZmlsbD0iI2U5NjU0YiIgZD0iTTkyLjA3IDUzLjg4N2MwIDcuMjc3LTUuODk4IDEzLjE3NS0xMy4xNzUgMTMuMTc1LTcuMjc4IDAtMTMuMTgtNS44OTgtMTMuMTgtMTMuMTc1IDAtNy4yNzggNS45MDItMTMuMTggMTMuMTgtMTMuMTggNy4yNzcgMCAxMy4xNzUgNS45MDIgMTMuMTc1IDEzLjE4em0tMjkuNzU0IDBjMCA3LjI3Ny01LjkwMiAxMy4xNzUtMTMuMTggMTMuMTc1LTcuMjc3IDAtMTMuMTc1LTUuODk4LTEzLjE3NS0xMy4xNzUgMC03LjI3OCA1Ljg5OC0xMy4xOCAxMy4xNzYtMTMuMTggNy4yNzcgMCAxMy4xOCA1LjkwMiAxMy4xOCAxMy4xOHptMCAwIi8+PHBhdGggZmlsbD0iI2ZmZiIgZD0iTTg5LjA5OCA1My44ODdjMCA1LjYzMy00LjU3IDEwLjIwMy0xMC4yMDMgMTAuMjAzLTUuNjMzIDAtMTAuMjA0LTQuNTctMTAuMjA0LTEwLjIwMyAwLTUuNjM3IDQuNTctMTAuMjAzIDEwLjIwNC0xMC4yMDMgNS42MzIgMCAxMC4yMDMgNC41NjYgMTAuMjAzIDEwLjIwM3ptLTMwLjYxIDBjMCA1LjYzMy00LjU2NiAxMC4yMDMtMTAuMTk5IDEwLjIwMy01LjYzNyAwLTEwLjIwMy00LjU3LTEwLjIwMy0xMC4yMDNhMTAuMjAxIDEwLjIwMSAwIDAxMTAuMjAzLTEwLjIwM2M1LjYzMyAwIDEwLjIgNC41NjYgMTAuMiAxMC4yMDN6bTAgMCIvPjxwYXRoIGZpbGw9IiMwMTAxMDEiIGQ9Ik01MS4yNjIgNTIuNjFhMi45NzUgMi45NzUgMCAxMS01Ljk1LjAwMyAyLjk3NSAyLjk3NSAwIDAxNS45NS0uMDA0em0zMC42MDkgMGEyLjk3NiAyLjk3NiAwIDExLTUuOTUxLjAwMSAyLjk3NiAyLjk3NiAwIDAxNS45NTEtLjAwMnptMCAwIi8+PHBhdGggZmlsbD0iI2I2Y2ZlYSIgZD0iTTE3LjI1OCA1OC45ODhhMi4wMDUgMi4wMDUgMCAwMS0yLjEyNS0yLjEyNVYzOS44NmEyLjAwOCAyLjAwOCAwIDAxLjU4Mi0xLjU0MyAyLjAwOCAyLjAwOCAwIDAxMS41NDMtLjU4MiAyLjAwNSAyLjAwNSAwIDAxMi4xMjUgMi4xMjV2MTcuMDA0Yy4wMzUuNTctLjE4IDEuMTMzLS41ODYgMS41NGEyLjAwOCAyLjAwOCAwIDAxLTEuNTQuNTg1em05Mi42NjggMGEyLjAwMyAyLjAwMyAwIDAxLTEuNTQtLjU4NiAyLjAwOCAyLjAwOCAwIDAxLS41ODUtMS41MzlWMzkuODZhMi4wMTEgMi4wMTEgMCAwMS41ODYtMS41NDMgMiAyIDAgMDExLjUzOS0uNTgyIDIgMiAwIDAxMS41MzkuNTgyYy40MS40MDcuNjIuOTcuNTg2IDEuNTQzdjE3LjAwNGExLjk5NCAxLjk5NCAwIDAxLS41ODYgMS41NCAyLjAwMyAyLjAwMyAwIDAxLTEuNTQuNTg1em0wIDAiLz48cGF0aCBmaWxsPSIjZmZmIiBkPSJNNTEuNjg4IDEzLjUwNGEyLjEyNSAyLjEyNSAwIDExLTQuMjUgMCAyLjEyNSAyLjEyNSAwIDAxNC4yNSAwek0zNC4yNjIgNzAuODlhMS41NTkgMS41NTkgMCAwMS0xLjI3OC0uNDI1Yy01LjEwMS02LjM3NS03LjY1Mi0xNC40NTMtNy42NTItMjIuNTMxYTM3LjkzMyAzNy45MzMgMCAwMTUuMTAyLTE5LjEzIDQxLjY0MSA0MS42NDEgMCAwMTEzLjYwMS0xMy42IDEuODczIDEuODczIDAgMDEyLjEzLjQyNSAxLjg3NCAxLjg3NCAwIDAxLS40MjcgMi4xMjUgMzQuMzA1IDM0LjMwNSAwIDAwLTE3LjQzIDI5Ljc1NCAzMy40ODcgMzMuNDg3IDAgMDA3LjIyNyAyMC44MzJjLjQyNi40MjYuNDI2IDEuNy0uNDI2IDIuMTI1LS40MjUuNDI2LS40MjUuNDI2LS44NDcuNDI2em0wIDAiLz48dXNlIG1hc2s9InVybCgjYXJnb2NkLW9yaWdpbmFsLWwpIiB4bGluazpocmVmPSIjYXJnb2NkLW9yaWdpbmFsLWsiLz48L3N2Zz4=;" parent="ViAHHDkNQJJAyb4cHbFf-3" vertex="1">
          <mxGeometry x="156" y="190" width="68" height="68" as="geometry" />
        </mxCell>
        <mxCell id="ViAHHDkNQJJAyb4cHbFf-17" value="" style="endArrow=classic;html=1;rounded=0;exitX=0.5;exitY=1;exitDx=0;exitDy=0;exitPerimeter=0;entryX=0.5;entryY=0;entryDx=0;entryDy=0;" parent="ViAHHDkNQJJAyb4cHbFf-3" source="ViAHHDkNQJJAyb4cHbFf-12" target="ViAHHDkNQJJAyb4cHbFf-15" edge="1">
          <mxGeometry width="50" height="50" relative="1" as="geometry">
            <mxPoint x="370" y="-120" as="sourcePoint" />
            <mxPoint x="420" y="-170" as="targetPoint" />
          </mxGeometry>
        </mxCell>
        <mxCell id="ViAHHDkNQJJAyb4cHbFf-18" value="Trigger" style="edgeLabel;html=1;align=center;verticalAlign=middle;resizable=0;points=[];" parent="ViAHHDkNQJJAyb4cHbFf-17" vertex="1" connectable="0">
          <mxGeometry x="0.0336" y="3" relative="1" as="geometry">
            <mxPoint as="offset" />
          </mxGeometry>
        </mxCell>
        <mxCell id="ViAHHDkNQJJAyb4cHbFf-21" value="" style="endArrow=classic;html=1;rounded=0;exitX=0.5;exitY=1;exitDx=0;exitDy=0;exitPerimeter=0;entryX=0.5;entryY=0;entryDx=0;entryDy=0;" parent="ViAHHDkNQJJAyb4cHbFf-3" source="ViAHHDkNQJJAyb4cHbFf-12" target="ViAHHDkNQJJAyb4cHbFf-26" edge="1">
          <mxGeometry width="50" height="50" relative="1" as="geometry">
            <mxPoint x="200" y="108" as="sourcePoint" />
            <mxPoint x="294" y="190" as="targetPoint" />
          </mxGeometry>
        </mxCell>
        <mxCell id="ViAHHDkNQJJAyb4cHbFf-83" value="Trigger" style="edgeLabel;html=1;align=center;verticalAlign=middle;resizable=0;points=[];" parent="ViAHHDkNQJJAyb4cHbFf-21" vertex="1" connectable="0">
          <mxGeometry x="0.0376" y="-2" relative="1" as="geometry">
            <mxPoint as="offset" />
          </mxGeometry>
        </mxCell>
        <mxCell id="ViAHHDkNQJJAyb4cHbFf-23" value="" style="endArrow=classic;html=1;rounded=0;exitX=0.5;exitY=1;exitDx=0;exitDy=0;exitPerimeter=0;entryX=0.5;entryY=0;entryDx=0;entryDy=0;" parent="ViAHHDkNQJJAyb4cHbFf-3" source="ViAHHDkNQJJAyb4cHbFf-12" target="ViAHHDkNQJJAyb4cHbFf-14" edge="1">
          <mxGeometry width="50" height="50" relative="1" as="geometry">
            <mxPoint x="200" y="108" as="sourcePoint" />
            <mxPoint x="304" y="200" as="targetPoint" />
            <Array as="points">
              <mxPoint x="129" y="147" />
            </Array>
          </mxGeometry>
        </mxCell>
        <mxCell id="ViAHHDkNQJJAyb4cHbFf-82" value="Trigger" style="edgeLabel;html=1;align=center;verticalAlign=middle;resizable=0;points=[];" parent="ViAHHDkNQJJAyb4cHbFf-23" vertex="1" connectable="0">
          <mxGeometry x="-0.031" y="1" relative="1" as="geometry">
            <mxPoint as="offset" />
          </mxGeometry>
        </mxCell>
        <mxCell id="ViAHHDkNQJJAyb4cHbFf-26" value="Jenkins" style="shape=image;verticalLabelPosition=bottom;labelBackgroundColor=default;verticalAlign=top;aspect=fixed;imageAspect=0;image=data:image/svg+xml,PHN2ZyB4bWw6c3BhY2U9InByZXNlcnZlIiBoZWlnaHQ9IjMxMiIgd2lkdGg9IjIyNiIgdmVyc2lvbj0iMS4xIiBpZD0ic3ZnMiIgeG1sbnM9Imh0dHA6Ly93d3cudzMub3JnLzIwMDAvc3ZnIiB2aWV3Qm94PSIwIDAgMjI2IDMxMiI+PG1ldGFkYXRhIGlkPSJtZXRhZGF0YTgiPmltYWdlL3N2Zyt4bWw8L21ldGFkYXRhPjxkZWZzIGlkPSJkZWZzNiI+PGNsaXBQYXRoIGlkPSJjbGlwUGF0aDE4IiBjbGlwUGF0aFVuaXRzPSJ1c2VyU3BhY2VPblVzZSI+PHBhdGggaWQ9InBhdGgyMCIgZD0iTSAwLDI0OTQuODQgMCwwIGwgMTgwNC4zNCwwIDAsMjQ5NC44NCAtMTgwNC4zNCwwIHoiLz48L2NsaXBQYXRoPjwvZGVmcz48ZyB0cmFuc2Zvcm09Im1hdHJpeCgxLjI1LDAsMCwtMS4yNSwwLDMxMikiIGlkPSJnMTAiPjxnIGlkPSJnMzM5MyI+PHBhdGggaWQ9InBhdGgyMiIgc3R5bGU9ImZpbGw6I2QzMzgzMztmaWxsLW9wYWNpdHk6MTtmaWxsLXJ1bGU6ZXZlbm9kZDtzdHJva2U6bm9uZSIgZD0ibSAxNzcuNzE4LDEyOS4yNjQgYyAwLC00OS40Mjg4IC0zOS4xNzUsLTg5LjQ5OTIgLTg3LjUsLTg5LjQ5OTIgLTQ4LjMyNDIsMCAtODcuNDk5MjUsNDAuMDcwNCAtODcuNDk5MjUsODkuNDk5MiAwLDQ5LjQzIDM5LjE3NTA1LDg5LjUwMSA4Ny40OTkyNSw4OS41MDEgNDguMzI1LDAgODcuNSwtNDAuMDcxIDg3LjUsLTg5LjUwMSIvPjxwYXRoIGlkPSJwYXRoMjQiIHN0eWxlPSJmaWxsOiNlZjNkM2E7ZmlsbC1vcGFjaXR5OjE7ZmlsbC1ydWxlOm5vbnplcm87c3Ryb2tlOm5vbmUiIGQ9Im0gNi4yODQzOCwxMDcuMDk4IGMgMCwwIC02LjMzNDM4LDkzLjMzMyA3OS42NjYwMiw5NiBsIC01Ljk5OTYsMTAgLTQ2LjY2NjQsLTE1LjY2NyAtMTMuMzMzNiwtMTUuMzMzIC0xMS42NjY0MiwtMjIuMzM0IC02LjY2NzE5LC0yNiAyLC0xNy4zMzMiLz48cGF0aCBpZD0icGF0aDI2IiBzdHlsZT0iZmlsbDojMjMxZjIwO2ZpbGwtb3BhY2l0eToxO2ZpbGwtcnVsZTpub256ZXJvO3N0cm9rZTpub25lIiBkPSJNIDMwLjI4ODMsMTkwLjMxOSBDIDE0LjkzNjMsMTc0LjYxMSA1LjQzNjMzLDE1Mi45MjMgNS40MzYzMywxMjguOTMgbCAwLDAgYyAwLC0yMy45ODggOS40OTk5NywtNDUuNjc4OCAyNC44NTE5NywtNjEuMzgzOSBsIDAsMCBDIDQ1LjY0NzcsNTEuODQxIDY2LjgxNTIsNDIuMTUgOTAuMjE2OCw0Mi4xNSBsIDAsMCBjIDIzLjQwMjIsMCA0NC41NzEyLDkuNjkxIDU5LjkyOTIsMjUuMzk2MSBsIDAsMCBjIDE1LjM1MSwxNS43MDUxIDI0Ljg1MywzNy4zOTU5IDI0Ljg1Myw2MS4zODM5IGwgMCwwIGMgMCwyMy45OTMgLTkuNTAyLDQ1LjY4MSAtMjQuODUzLDYxLjM4OSBsIDAsMCBjIC0xNS4zNTgsMTUuNzAyIC0zNi41MjcsMjUuMzkzIC01OS45MjkyLDI1LjM5NSBsIDAsMCBDIDY2LjgxNTIsMjE1LjcxMiA0NS42NDc3LDIwNi4wMjEgMzAuMjg4MywxOTAuMzE5IGwgMCwwIHogTSAyNi40MDIzLDYzLjc0NjkgQyAxMC4wODY3LDgwLjQzMjggMCwxMDMuNDkzIDAsMTI4LjkzIGwgMCwwIGMgMCwyNS40NDEgMTAuMDg2Nyw0OC40OTkgMjYuNDAyMyw2NS4xODYgbCAwLDAgYyAxNi4zMTE4LDE2LjY5IDM4Ljg5MTUsMjcuMDM1IDYzLjgxNDUsMjcuMDMyIGwgMCwwIGMgMjQuOTIzMiwwLjAwMyA0Ny41MDUyLC0xMC4zNDIgNjMuODE0MiwtMjcuMDMyIGwgMCwwIGMgMTYuMzE3LC0xNi42ODcgMjYuNDA1LC0zOS43NDcgMjYuNDAzLC02NS4xODYgbCAwLDAgYyAwLjAwMiwtMjUuNDM3IC0xMC4wODYsLTQ4LjQ5NzIgLTI2LjQwMywtNjUuMTgzMSBsIDAsMCBDIDEzNy43MjIsNDcuMDU3OCAxMTUuMTQsMzYuNzE0MSA5MC4yMTY4LDM2LjcxNDEgbCAwLDAgYyAtMjQuOTIzLDAgLTQ3LjUwMjcsMTAuMzQzNyAtNjMuODE0NSwyNy4wMzI4IGwgMCwwIi8+PHBhdGggaWQ9InBhdGgyOCIgc3R5bGU9ImZpbGw6I2YwZDZiNztmaWxsLW9wYWNpdHk6MTtmaWxsLXJ1bGU6ZXZlbm9kZDtzdHJva2U6bm9uZSIgZD0ibSAxMjcuMDUxLDEyOC43NjggLTEzLjMzNCwtMiAtMTguMDAwMiwtMiAtMTEuNjY3MiwtMC4zMzMgLTExLjMzMjgsMC4zMzMgLTguNjY3MiwyLjY2NyAtNy42NjY4LDguMzMzIC02LDE3IC0xLjMzMzIsMy42NjcgLTgsMi42NjYgLTQuNjY2OCw3LjY2NyAtMy4zMzMyLDExIDMuNjY3Miw5LjY2NyA4LjY2NiwzIDcsLTMuMzM0IDMuMzM0LC03LjMzMyA0LDAuNjY3IDEuMzMyOCwxLjY2NiAtMS4zMzI4LDcuNjY3IC0wLjMzNCw5LjY2NyAyLDEzLjMzMyAtMC4wNzgxLDcuNjE2IDYuMDc4MSw5LjcxNyAxMC42NjY4LDcuNjY3IDE4LjY2NzIsOCAyMC42NjYyLC0zIDE4LC0xMyA4LjMzNCwtMTMuMzMzIDUuMzMzLC05LjY2NyAxLjMzMywtMjQgLTQsLTIwLjY2NyAtNy4zMzMsLTE4LjMzMyAtNywtOS42NjciLz48cGF0aCBpZD0icGF0aDMwIiBzdHlsZT0iZmlsbDojMzM1MDYxO2ZpbGwtb3BhY2l0eToxO2ZpbGwtcnVsZTpldmVub2RkO3N0cm9rZTpub25lIiBkPSJtIDExNS43MTcsNzEuMTAyIC00Ny42Njc0LC0yIDAsLTggNCwtMjggLTIsLTIuMzM0IC0zMy4zMzI4LDExLjMzNCAtMi4zMzQsNCAtMy4zMzMyLDM3LjY2NiAtNy42NjU2LDIyLjY2NyAtMS42NjcyLDUuMzMzIDI2LjY2NiwxOC4zMzMgOC4zMzQsMy4zMzQgNy4zMzI4LC05IDYuMzMzMiwtNS42NjcgNy4zMzQsLTIuMzMzIDMuMzMyOCwtMSA0LC0xNy4zMzMgMywtMy42NjY4IDcuNjY3MiwyLjY2NjggLTUuMzM0LC0xMC4zMzQgMjkuMDAwMiwtMTMuNjY2IC0zLjY2NiwtMiIvPjxwYXRoIGlkPSJwYXRoMzIiIHN0eWxlPSJmaWxsOiM2ZDZiNmQ7ZmlsbC1vcGFjaXR5OjE7ZmlsbC1ydWxlOmV2ZW5vZGQ7c3Ryb2tlOm5vbmUiIGQ9Im0gMzYuNzE2OCwxODcuNDM1IDguNjY2LDMgNywtMy4zMzQgMy4zMzQsLTcuMzMzIDQsMC42NjcgMSw0IC0yLDcuNjY2IDIsMTguMzM0IC0xLjY2NzIsMTAgNiw3IDEzLDEwLjMzMyAtMy42NjY4LDUgLTE4LjMzMzIsLTkgLTcuNjY2OCwtNiAtNC4zMzMyLC05LjMzMyAtNi42NjY4LC05IC0yLC0xMC42NjcgMS4zMzQsLTExLjMzMyIvPjxwYXRoIGlkPSJwYXRoMzQiIHN0eWxlPSJmaWxsOiNkY2Q5ZDg7ZmlsbC1vcGFjaXR5OjE7ZmlsbC1ydWxlOmV2ZW5vZGQ7c3Ryb2tlOm5vbmUiIGQ9Im0gNTAuMzgyOCwyMTguNzY4IGMgMCwwIDUsMTIuMzMzIDI1LDE4LjMzMyAyMCw2IDEsNC4zMzQgMSw0LjMzNCBsIC0yMS42NjYsLTguMzM0IC04LjMzNCwtOC4zMzMgLTMuNjY2LC02LjY2NyA3LjY2NiwwLjY2NyIvPjxwYXRoIGlkPSJwYXRoMzYiIHN0eWxlPSJmaWxsOiNkY2Q5ZDg7ZmlsbC1vcGFjaXR5OjE7ZmlsbC1ydWxlOmV2ZW5vZGQ7c3Ryb2tlOm5vbmUiIGQ9Im0gNDAuMzgyOCwxODkuNzY4IGMgMCwwIC03LDIzLjMzNCAxOS42NjY4LDI2LjY2NyBsIC0xLDQgLTE4LjMzMjgsLTQuMzM0IC01LjMzNCwtMTcuMzMzIDEuMzM0LC0xMS4zMzMgMy42NjYsMi4zMzMiLz48cGF0aCBpZD0icGF0aDM4IiBzdHlsZT0iZmlsbDojZjdlNGNkO2ZpbGwtb3BhY2l0eToxO2ZpbGwtcnVsZTpldmVub2RkO3N0cm9rZTpub25lIiBkPSJtIDUxLjA0OTYsMTU4Ljc2OCA0LjM2NDUsNC4yMjkgYyAwLDAgMS45Njk5LC0wLjIyOSAyLjMwMjcsLTIuNTYyIDAuMzMyOCwtMi4zMzQgMS4zMzI4LC0yMy4zMzQgMTUuNjY2LC0zNC42NjggMS4zMDc0LC0xLjAzNCAtMTAuNjY2LDEuNjY4IC0xMC42NjYsMS42NjggbCAtMTAuNjY3MiwxNi42NjYiLz48cGF0aCBpZD0icGF0aDQwIiBzdHlsZT0iZmlsbDojZjdlNGNkO2ZpbGwtb3BhY2l0eToxO2ZpbGwtcnVsZTpldmVub2RkO3N0cm9rZTpub25lIiBkPSJtIDExMi4zODUsMTY1LjEwMSBjIDAsMCAwLjc3NywxMC4xMDQgMy40OTgsOS4zMjcgMi43MjEsLTAuNzc3IDIuNzIxLC0zLjQ5OCAyLjcyMSwtMy40OTggMCwwIC02LjYwOCwtNC4yNzUgLTYuMjE5LC01LjgyOSIvPjxwYXRoIGlkPSJwYXRoNDIiIHN0eWxlPSJmaWxsOiNmN2U0Y2Q7ZmlsbC1vcGFjaXR5OjE7ZmlsbC1ydWxlOm5vbnplcm87c3Ryb2tlOm5vbmUiIGQ9Im0gMTQwLjA1LDIwMi4xMDEgYyAwLDAgLTUuNDk0LC0xLjE2IC02LC02IC0wLjUwNiwtNC44NDEgNiwtMSA3LC0wLjY2NyIvPjxwYXRoIGlkPSJwYXRoNDQiIHN0eWxlPSJmaWxsOiNmN2U0Y2Q7ZmlsbC1vcGFjaXR5OjE7ZmlsbC1ydWxlOm5vbnplcm87c3Ryb2tlOm5vbmUiIGQ9Im0gOTkuNzE2OCwyMDEuNzY3IGMgMCwwIC03LjMzNCwtMSAtNy4zMzQsLTUuNjY2IDAsLTQuNjY3IDguMzM0MiwtNC4zMzQgMTAuNjY3MiwtMi4zMzQiLz48cGF0aCBpZD0icGF0aDQ2IiBzdHlsZT0iZmlsbDojZjdlNGNkO2ZpbGwtb3BhY2l0eToxO2ZpbGwtcnVsZTpldmVub2RkO3N0cm9rZTpub25lIiBkPSJtIDU0LjM4MjgsMTgwLjEwMSBjIDAsMCAtMTIuNjY3Miw3LjY2NyAtMTQsMC4zMzMgLTEuMzMzMiwtNy4zMzMgLTQuMzM0LC0xMi42NjcgMiwtMjAuMzMzIGwgLTQuMzMzMiwxLjMzMyAtNCwxMC4zMzMgLTEuMzMyOCwxMCA3LjY2Niw4LjAwMSA4LjY2NjgsLTAuNjY3IDUsLTQgMC4zMzMyLC01Ii8+PHBhdGggaWQ9InBhdGg0OCIgc3R5bGU9ImZpbGw6I2Y3ZTRjZDtmaWxsLW9wYWNpdHk6MTtmaWxsLXJ1bGU6ZXZlbm9kZDtzdHJva2U6bm9uZSIgZD0ibSA2MC4zODI4LDIwMS4xMDEgYyAwLDAgNS42NjY4LDI5LjMzMyAzNC4zMzQsMzUgMjMuNjAxMiw0LjY2NSAzNS45OTkyLC0xIDQwLjY2NjIsLTYuMzMzIDAsMCAtMjEsMjQuOTk5IC00MS4wMDAyLDE3LjMzMyAtMjAsLTcuNjY3IC0zNC42NjYsLTIxLjY2NyAtMzQuMzMzMiwtMzAuNjY2IDAuNTY3NiwtMTUuMzI4IDAuMzMzMiwtMTUuMzM0IDAuMzMzMiwtMTUuMzM0Ii8+PHBhdGggaWQ9InBhdGg1MCIgc3R5bGU9ImZpbGw6I2Y3ZTRjZDtmaWxsLW9wYWNpdHk6MTtmaWxsLXJ1bGU6ZXZlbm9kZDtzdHJva2U6bm9uZSIgZD0ibSAxMzcuNzE3LDIyNi40MzUgYyAwLDAgLTkuNjY2LDAuMzMzIC0xMCwtOC4zMzQgMCwwIC0wLjAwMSwtMS4zMzMgMC42NjYsLTIuNjY2IDAsMCA3LjY2OCw4LjY2NyAxMi4zMzQsNCIvPjxwYXRoIGlkPSJwYXRoNTIiIHN0eWxlPSJmaWxsOiNmN2U0Y2Q7ZmlsbC1vcGFjaXR5OjE7ZmlsbC1ydWxlOmV2ZW5vZGQ7c3Ryb2tlOm5vbmUiIGQ9Im0gOTUuMzg4NywyMTQuNTMyIGMgMCwwIC0xLjY2NDEsMTMuMzAzIC0xMy4wMDU5LDUuNTY5IC03LjMzMzIsLTUgLTYuNjY2LC0xMiAtNS4zMzMyLC0xMy4zMzMgMS4zMzMyLC0xLjMzNCAwLjk3MDcsLTQuMDE5IDEuOTg1NiwtMi4xNzYgMS4wMTQ0LDEuODQzIDAuNjgwNCw3Ljg0MyA0LjM0NzYsOS41MDkgMy42NjY4LDEuNjY3IDkuNjc3NywzLjUyOSAxMi4wMDU5LDAuNDMxIi8+PHBhdGggaWQ9InBhdGg1NCIgc3R5bGU9ImZpbGw6IzQ5NzI4YjtmaWxsLW9wYWNpdHk6MTtmaWxsLXJ1bGU6ZXZlbm9kZDtzdHJva2U6bm9uZSIgZD0ibSA2NC4wNDk2LDEyNC40MzUgLTMxLjMzMjgsLTE0IGMgMCwwIDEzLC01MS42NjcgNi4zMzI4LC02Ny42NjcgbCAtNC42NjY4LDEuNjY2IC0wLjMzMzIsMTkuNjY3MiAtOC42NjU2LDM3LjMzMjggLTMuNjY3MiwxMC4zMzQgMzIuNjY2LDIxLjk5OSA5LjY2NjgsLTkuMzMyIi8+PHBhdGggaWQ9InBhdGg1NiIgc3R5bGU9ImZpbGw6IzQ5NzI4YjtmaWxsLW9wYWNpdHk6MTtmaWxsLXJ1bGU6ZXZlbm9kZDtzdHJva2U6bm9uZSIgZD0ibSA2Ny4yNzE1LDk1Ljg1NzggNC40NDUzLC01LjQyMzggMCwtMjAgLTUuMzM0LDAgYyAwLDAgLTAuNjY2LDE0IC0wLjY2NiwxNS42NjcyIDAsMS42NjY4IDAuNjY2LDcuNjY2OCAwLjY2Niw3LjY2NjgiLz48cGF0aCBpZD0icGF0aDU4IiBzdHlsZT0iZmlsbDojNDk3MjhiO2ZpbGwtb3BhY2l0eToxO2ZpbGwtcnVsZTpldmVub2RkO3N0cm9rZTpub25lIiBkPSJtIDY3LjM4MjgsNjcuNDM0IC0xNSwtMC42NjYgNC4zMzQsLTMgMTAuNjY2LC0xLjY2NjgiLz48cGF0aCBpZD0icGF0aDYwIiBzdHlsZT0iZmlsbDojMzM1MDYxO2ZpbGwtb3BhY2l0eToxO2ZpbGwtcnVsZTpldmVub2RkO3N0cm9rZTpub25lIiBkPSJtIDExOC43MTcsNzAuNzY4IDEyLjMzMywwLjMzMzIgMywtMzAuNjY3MiAtMTIuNjY3LC0xLjY2NiAtMi42NjYsMzIiLz48cGF0aCBpZD0icGF0aDYyIiBzdHlsZT0iZmlsbDojMzM1MDYxO2ZpbGwtb3BhY2l0eToxO2ZpbGwtcnVsZTpldmVub2RkO3N0cm9rZTpub25lIiBkPSJtIDEyMi4wNSw3MC43NjggMTguNjY3LDEgYyAwLDAgNy42NjYsMTkuMzMzMiA3LjY2NiwyMC4zMzMyIDAsMSA2LjY2NywyNy45OTk4IDYuNjY3LDI3Ljk5OTggbCAtMTUsMTUuNjY2IC0zLDIuNjY3IC04LC04IDAsLTMxIC03LC0yOC42NjYiLz48cGF0aCBpZD0icGF0aDY0IiBzdHlsZT0iZmlsbDojNDk3MjhiO2ZpbGwtb3BhY2l0eToxO2ZpbGwtcnVsZTpldmVub2RkO3N0cm9rZTpub25lIiBkPSJtIDEzMC4zODMsNzMuMTAxMiAtMTEuNjY2LC0yLjMzMzIgMS42NjYsLTkuMzM0IGMgNC4zMzMsLTIgMTEuNjY3LDMuMzM0IDExLjY2NywzLjMzNCIvPjxwYXRoIGlkPSJwYXRoNjYiIHN0eWxlPSJmaWxsOiM0OTcyOGI7ZmlsbC1vcGFjaXR5OjE7ZmlsbC1ydWxlOmV2ZW5vZGQ7c3Ryb2tlOm5vbmUiIGQ9Im0gMTMwLjcxNywxMzEuNDM0IDIzLjMzMywtMTcuMzMzIDAuNjY3LDggLTE3LjY2NywxNi4zMzMgLTYuMzMzLC03Ii8+PHBhdGggaWQ9InBhdGg2OCIgc3R5bGU9ImZpbGw6I2ZmZmZmZjtmaWxsLW9wYWNpdHk6MTtmaWxsLXJ1bGU6ZXZlbm9kZDtzdHJva2U6bm9uZSIgZD0iTSA3OC45NTA4LDUuMDk4MDUgNzIuMDQ5NiwzMy4xMDIgNjguNjE3Miw1My43NjQ4IDY4LjA0OTYsNjkuMTAyIGwgMzEuMjM0OCwxLjY2MjggMTkuNDMyNiwwLjAwMzIgLTEuNzY3LC0zNS4wMDMyIDMsLTI2Ljk5OTk2IC0wLjMzMywtNSAtMjUuMzMyNiwtMiAtMTUuMzMzNiwzLjMzMzIxIi8+PHBhdGggaWQ9InBhdGg3MCIgc3R5bGU9ImZpbGw6I2RjZDlkODtmaWxsLW9wYWNpdHk6MTtmaWxsLXJ1bGU6ZXZlbm9kZDtzdHJva2U6bm9uZSIgZD0ibSAxMTQuMzgzLDcxLjEwMTIgYyAwLDAgLTEuNjY2LC0zNC42NjcyIDMuMzM0LC01OS4zMzMyIDAsMCAtMTAsLTYuMzM0MDIgLTI0LjY2NzQsLTguMDAwMDMgbCAyOC4wMDA0LDEgMy4zMzMsMiAtNCw1NC42NjYwMyAtMSwxMS42NjgiLz48cGF0aCBpZD0icGF0aDcyIiBzdHlsZT0iZmlsbDojZmZmZmZmO2ZpbGwtb3BhY2l0eToxO2ZpbGwtcnVsZTpldmVub2RkO3N0cm9rZTpub25lIiBkPSJtIDEzNC42MTgsNDMuMDk4IDEzLDMuNjY2OCAyNC42NjYsMS4zMzMyIDMuNjY3LDExLjMzMjkgLTYuNjY3LDE5LjY2NzEgLTcuNjY2LDEgLTEwLjY2NywtMy4zMzMyIC0xMC4yMzQsLTQuOTk2OCAtNS40MzMsMC45OTY4IC00LjIzNCwtMS42NjM2Ii8+PHBhdGggaWQ9InBhdGg3NCIgc3R5bGU9ImZpbGw6I2RjZDlkODtmaWxsLW9wYWNpdHk6MTtmaWxsLXJ1bGU6ZXZlbm9kZDtzdHJva2U6bm9uZSIgZD0ibSAxMzQuMzgzLDQ5Ljc2OCBjIDAsMCA4LjY2NiwzLjk5OTIgMTAsMy42NjYgbCAtMy42NjYsMTguMzM0IDQuMzMzLDEuNjY2IGMgMCwwIDMsLTE3LjMzMjggMywtMTkuMzMyOCAwLDAgMTguNjY2LC0xIDIwLjMzMywtMSAwLDAgNCw3LjY2NjggMywxNS42NjY4IGwgMy42NjcsLTEwLjY2NjggMC4zMzMsLTYgLTUuMzMzLC04IC02LC0xLjMzMzIgLTEwLDAuMzMzMiAtMy4zMzMsNC4zMzI4IC0xMS42NjcsLTEuNjY2IC0zLjY2NywtMS4zMzQiLz48cGF0aCBpZD0icGF0aDc2IiBzdHlsZT0iZmlsbDojZmZmZmZmO2ZpbGwtb3BhY2l0eToxO2ZpbGwtcnVsZTpub256ZXJvO3N0cm9rZTpub25lIiBkPSJtIDEyMS4yODQsNzMuNDMwOSAtNy4zMzMsMTguNjY3MSAtNy42NjcsMTEgYyAwLDAgMS42NjYsNC42NjcgNCw0LjY2NyAyLjMzNCwwIDcuNjY3LDAgNy42NjcsMCBsIDcuMzMzLC0yLjY2NyAtMC42NjYsLTEyLjMzMzIgLTMuMzM0LC0xOS4zMzM5Ii8+PHBhdGggaWQ9InBhdGg3OCIgc3R5bGU9ImZpbGw6I2RjZDlkODtmaWxsLW9wYWNpdHk6MTtmaWxsLXJ1bGU6ZXZlbm9kZDtzdHJva2U6bm9uZSIgZD0ibSAxMjIuNzE3LDc5Ljc2OCBjIDAsMCAtOS4zMzQsMTcuOTk5MiAtOS4zMzQsMjAuNjY2IDAsMCAxLjY2Niw0IDQsMyAyLjMzNCwtMSA3LjMzNCwtMy42NjYgNy4zMzQsLTMuNjY2IGwgMCw2LjMzMyAtMTEuMzM0LDIuMzM0IC03LjY2NiwtMSAxMywtMzAuNjY3IDIuNjY2LC0wLjMzNCIvPjxwYXRoIGlkPSJwYXRoODAiIHN0eWxlPSJmaWxsOiNmZmZmZmY7ZmlsbC1vcGFjaXR5OjE7ZmlsbC1ydWxlOm5vbnplcm87c3Ryb2tlOm5vbmUiIGQ9Im0gODEuOTUxMiwxMjMuNzY0IC05LjIzNDQsMS4wMDQgLTguNjY3MiwyLjY2NyAwLC0zIDQuMjM0OCwtNC42NyAxMy4zMzMyLC02Ii8+PHBhdGggaWQ9InBhdGg4MiIgc3R5bGU9ImZpbGw6I2RjZDlkODtmaWxsLW9wYWNpdHk6MTtmaWxsLXJ1bGU6ZXZlbm9kZDtzdHJva2U6bm9uZSIgZD0ibSA2Ny4wNTA4LDEyMi43NjUgYyAwLDAgMTAuMzM0LC00LjMzNCAxMy42NjcyLC0zLjMzNCBsIDAuMzMxNiwtMy45OTYgLTkuMzMxNiwxLjk5NiAtNS42NjcyLDQgMSwxLjMzNCIvPjxwYXRoIGlkPSJwYXRoODQiIHN0eWxlPSJmaWxsOiNkMzM4MzM7ZmlsbC1vcGFjaXR5OjE7ZmlsbC1ydWxlOmV2ZW5vZGQ7c3Ryb2tlOm5vbmUiIGQ9Im0gMTM0LjU4MiwxMDYuNjMgYyAtNS42NTYsMC4xNjYgLTEwLjc2NiwwLjgzOCAtMTUuMjQsMi4xIDAuMzA0LDEuODM0IC0wLjI2NSwzLjYzNCAwLjE5Miw0Ljk1NSAxLjI0NywwLjg5OCAzLjMzNywwLjg4NCA1LjIyMiwxLjA5NSAtMS42MywwLjgwMSAtMy45MiwxLjExOCAtNS44MDEsMC42NTUgLTAuMDQ0LDEuMjczIC0wLjYxNSwyLjA2MiAtMC45NjEsMy4wNTggMy4xOCwxLjEzNSAxMC42ODcsOC41NzYgMTQuOTEsNi4xMTIgMi4wMTIsLTEuMTcyIDIuODY3LC03Ljg2NiAzLjAyMywtMTEuMTIxIDAuMTMsLTIuNyAtMC4yNDUsLTUuNDI0IC0xLjM0NSwtNi44NTQiLz48cGF0aCBpZD0icGF0aDg2IiBzdHlsZT0iZmlsbDpub25lO3N0cm9rZTojZDMzODMzO3N0cm9rZS13aWR0aDoyO3N0cm9rZS1saW5lY2FwOmJ1dHQ7c3Ryb2tlLWxpbmVqb2luOm1pdGVyO3N0cm9rZS1taXRlcmxpbWl0OjQ7c3Ryb2tlLW9wYWNpdHk6MTtzdHJva2UtZGFzaGFycmF5Om5vbmUiIGQ9Im0gMTM0LjU4MiwxMDYuNjMgYyAtNS42NTYsMC4xNjYgLTEwLjc2NiwwLjgzOCAtMTUuMjQsMi4xIDAuMzA0LDEuODM0IC0wLjI2NSwzLjYzNCAwLjE5Miw0Ljk1NSAxLjI0NywwLjg5OCAzLjMzNywwLjg4NCA1LjIyMiwxLjA5NSAtMS42MywwLjgwMSAtMy45MiwxLjExOCAtNS44MDEsMC42NTUgLTAuMDQ0LDEuMjczIC0wLjYxNSwyLjA2MiAtMC45NjEsMy4wNTggMy4xOCwxLjEzNSAxMC42ODcsOC41NzYgMTQuOTEsNi4xMTIgMi4wMTIsLTEuMTcyIDIuODY3LC03Ljg2NiAzLjAyMywtMTEuMTIxIDAuMTMsLTIuNyAtMC4yNDUsLTUuNDI0IC0xLjM0NSwtNi44NTQgeiIvPjxwYXRoIGlkPSJwYXRoODgiIHN0eWxlPSJmaWxsOiNkMzM4MzM7ZmlsbC1vcGFjaXR5OjE7ZmlsbC1ydWxlOmV2ZW5vZGQ7c3Ryb2tlOm5vbmUiIGQ9Im0gMTA3LjUzNSwxMTUuODc2IGMgLTAuMDE1LC0wLjQyOCAtMC4wMzMsLTAuODU5IC0wLjA1LC0xLjI5MSAtMS43NjYsLTEuMTYgLTQuNjE3LC0xLjE0NiAtNi41NTUsLTIuMTIxIDIuODU3LC0wLjEyNSA1LjEwNiwtMC44MTMgNy4wNTIsLTEuNzgzIC0wLjA0MywtMS4wNzggLTAuMDg0LC0yLjE1NSAtMC4xMjYsLTMuMjMzIC0zLjIzNywtMi4yMTYgLTYuMTk0LC01LjUxNiAtMTAuMDA1MiwtNy41OTQxIC0xLjgwMiwtMC45ODI4IC04LjEyNjIsLTMuNTExNyAtMTAuMDQzNCwtMy4wNjQ4IC0xLjA4NDcsMC4yNTE5IC0xLjE4MjQsMS41OTggLTEuNjE2LDIuODY2OCAtMC45MjM4LDIuNzE3MSAtMy4wNTA4LDcuMDQyMSAtMy4yMzYzLDExLjEzMjEgLTAuMjM2Myw1LjE2NiAtMC43NTc4LDEzLjgyNCA0LjgwOTQsMTIuNzYgNC40OTE0LC0wLjg1NyA5LjcxNTIsLTIuOTI2IDEzLjE5MjUsLTQuODI2IDIuMTI1LC0xLjE2MiAzLjM1NCwtMi41OTggNi41NzgsLTIuODQ2Ii8+PHBhdGggaWQ9InBhdGg5MCIgc3R5bGU9ImZpbGw6bm9uZTtzdHJva2U6I2QzMzgzMztzdHJva2Utd2lkdGg6MjtzdHJva2UtbGluZWNhcDpidXR0O3N0cm9rZS1saW5lam9pbjptaXRlcjtzdHJva2UtbWl0ZXJsaW1pdDo0O3N0cm9rZS1vcGFjaXR5OjE7c3Ryb2tlLWRhc2hhcnJheTpub25lIiBkPSJtIDEwNy41MzUsMTE1Ljg3NiBjIC0wLjAxNSwtMC40MjggLTAuMDMzLC0wLjg1OSAtMC4wNSwtMS4yOTEgLTEuNzY2LC0xLjE2IC00LjYxNywtMS4xNDYgLTYuNTU1LC0yLjEyMSAyLjg1NywtMC4xMjUgNS4xMDYsLTAuODEzIDcuMDUyLC0xLjc4MyAtMC4wNDMsLTEuMDc4IC0wLjA4NCwtMi4xNTUgLTAuMTI2LC0zLjIzMyAtMy4yMzcsLTIuMjE2IC02LjE5NCwtNS41MTYgLTEwLjAwNTIsLTcuNTk0MSAtMS44MDIsLTAuOTgyOCAtOC4xMjYyLC0zLjUxMTcgLTEwLjA0MzQsLTMuMDY0OCAtMS4wODQ3LDAuMjUxOSAtMS4xODI0LDEuNTk4IC0xLjYxNiwyLjg2NjggLTAuOTIzOCwyLjcxNzEgLTMuMDUwOCw3LjA0MjEgLTMuMjM2MywxMS4xMzIxIC0wLjIzNjMsNS4xNjYgLTAuNzU3OCwxMy44MjQgNC44MDk0LDEyLjc2IDQuNDkxNCwtMC44NTcgOS43MTUyLC0yLjkyNiAxMy4xOTI1LC00LjgyNiAyLjEyNSwtMS4xNjIgMy4zNTQsLTIuNTk4IDYuNTc4LC0yLjg0NiB6Ii8+PHBhdGggaWQ9InBhdGg5MiIgc3R5bGU9ImZpbGw6I2QzMzgzMztmaWxsLW9wYWNpdHk6MTtmaWxsLXJ1bGU6ZXZlbm9kZDtzdHJva2U6bm9uZSIgZD0ibSAxMTAuNzUsMTA5LjcxMiBjIC0wLjQ5NCwyLjgxNCAtMS4wNjUsMy42MTcgLTAuODQ0LDYuMDcyIDcuNTA1LDUuMDA0IDguOTE0LC04LjU5NSAwLjg0NCwtNi4wNzIiLz48cGF0aCBpZD0icGF0aDk0IiBzdHlsZT0iZmlsbDpub25lO3N0cm9rZTojZDMzODMzO3N0cm9rZS13aWR0aDoyO3N0cm9rZS1saW5lY2FwOmJ1dHQ7c3Ryb2tlLWxpbmVqb2luOm1pdGVyO3N0cm9rZS1taXRlcmxpbWl0OjQ7c3Ryb2tlLW9wYWNpdHk6MTtzdHJva2UtZGFzaGFycmF5Om5vbmUiIGQ9Im0gMTEwLjc1LDEwOS43MTIgYyAtMC40OTQsMi44MTQgLTEuMDY1LDMuNjE3IC0wLjg0NCw2LjA3MiA3LjUwNSw1LjAwNCA4LjkxNCwtOC41OTUgMC44NDQsLTYuMDcyIHoiLz48cGF0aCBpZD0icGF0aDk2IiBzdHlsZT0iZmlsbDojZWYzZDNhO2ZpbGwtb3BhY2l0eToxO2ZpbGwtcnVsZTpldmVub2RkO3N0cm9rZTpub25lIiBkPSJtIDEyMS42MTcsMTA3LjQzMSBjIDAsMCAtMi4zMzQsMy4zMzQgLTAuNjY3LDQuMzM0IDEuNjY3LDEgMy4zMzQsLTAuMDAxIDQuMzM0LDEuNjY2IDEsMS42NjcgMCwyLjY2NyAwLjMzMyw0LjY2NyAwLjMzMywyIDIuMDAxLDIuMzM0IDMuNjY3LDIuNjY3IDEuNjY2LDAuMzMzIDYuMzM0LDEgNywtMC42NjcgbCAtMiw2IC00LDEuMzMzIC0xMi42NjcsLTcuMzMzIC0wLjY2NywtMy42NjcgMCwtNy4zMzMiLz48cGF0aCBpZD0icGF0aDk4IiBzdHlsZT0iZmlsbDojZWYzZDNhO2ZpbGwtb3BhY2l0eToxO2ZpbGwtcnVsZTpldmVub2RkO3N0cm9rZTpub25lIiBkPSJtIDg2LjYxNzIsOTYuNDMwOSBjIC0wLjQwMDQsNS4yMDIxIC0wLjgyNDIsMTAuMzk3MSAtMS4yOTU3LDE1LjU5NDEgLTAuNzA1NSw3Ljc2IDEuODY0LDYuNDA2IDguNTkwNiw2LjQwNiAxLjAyNzQsMCA2LjMyNTksLTEuMjI1IDYuNzA0OSwtMiAxLjgxOCwtMy43MTMgLTMuMDQsLTIuODg4IDIuMDk0LC01LjY4OCA0LjMzNCwtMi4zNjMgMTEuOTksMS40MzUgMTAuMjM5LDYuNjg4IC0wLjk4LDEuMTY4IC01LjEwNiwwLjM2NCAtNi41ODUsMS4xMzEgLTIuNjA0LDEuMzUgLTUuMjA4LDIuNyAtNy44MTIzLDQuMDUgLTMuMzEzMiwxLjcxOSAtMTAuOTcwNyw0LjIyNSAtMTQuNTAzMSwxLjgyMyAtOC45NTA0LC02LjA4NyAwLjU2NDksLTIxLjI5NiAzLjc1NzgsLTI3LjY0NTkiLz48cGF0aCBpZD0icGF0aDEwMCIgc3R5bGU9ImZpbGw6IzIzMWYyMDtmaWxsLW9wYWNpdHk6MTtmaWxsLXJ1bGU6ZXZlbm9kZDtzdHJva2U6bm9uZSIgZD0ibSA5NS4zODg3LDIxNC41MzIgYyAtOS4wODUyLDIuMTE2IC0xMy41OTk2LC0zLjgwMiAtMTYuMzUzNSwtOS45NCAtMi40NTksMC41OTYgLTEuNDgwNSwzLjk0IC0wLjg1OTQsNS42NDQgMS42MjYyLDQuNDcyIDguMTc5NywxMC40MjUgMTMuNTM0NCw5LjYxOCAyLjMwNDMsLTAuMzQ3IDUuNDIyNiwtMi40NTQgMy42Nzg1LC01LjMyMiIvPjxwYXRoIGlkPSJwYXRoMTAyIiBzdHlsZT0iZmlsbDojMjMxZjIwO2ZpbGwtb3BhY2l0eToxO2ZpbGwtcnVsZTpldmVub2RkO3N0cm9rZTpub25lIiBkPSJtIDEzOS42NTUsMjA0LjE4NiBjIDAuMTQzLC0wLjAwNiAwLjI4OCwtMC4wMTEgMC40MzEsLTAuMDE3IDIuMDUzLC00LjI2NSAzLjgzLC04Ljc4MyA2LjQyLC0xMi41NDggLTEuNzM1LC00LjA0MSAtMTMuMTM4LC03LjYxNyAtMTIuOTYyLC0wLjM2MSAyLjQ2NiwxLjA3OCA2LjcyMywwLjIyIDguOTA5LDEuNTk3IC0xLjI2NCwzLjQ2OSAtMy4wODgsNi40MjIgLTIuNzk4LDExLjMyOSIvPjxwYXRoIGlkPSJwYXRoMTA0IiBzdHlsZT0iZmlsbDojMjMxZjIwO2ZpbGwtb3BhY2l0eToxO2ZpbGwtcnVsZTpldmVub2RkO3N0cm9rZTpub25lIiBkPSJtIDEwMC4wNCwyMDQuMDc1IGMgMS45NDgsLTMuNTcxIDIuNTgyLC03LjMyMyA1LjM1MSwtMTAuMDIyIDEuMjQ3LC0xLjIxNSAzLjY3MiwtMi42OTYgMi40NywtNi4wNzUgLTAuMjgxLC0wLjc5NyAtMi4zMzQsLTIuNTc0IC0zLjUxOSwtMi45MjMgLTQuMzI5LC0xLjI3OCAtMTQuNDE2MiwtMC4yNjQgLTExLjAwMDIsNS4xMzMgMy41ODAxLC0wLjE2NyA4LjM5MjIsLTIuMzI1IDExLjA2ODIsMC4yNzQgLTIuMDU1LDMuMjg1IC01LjcxODYsOS43ODQgLTQuMzcsMTMuNjEzIi8+PHBhdGggaWQ9InBhdGgxMDYiIHN0eWxlPSJmaWxsOiMyMzFmMjA7ZmlsbC1vcGFjaXR5OjE7ZmlsbC1ydWxlOmV2ZW5vZGQ7c3Ryb2tlOm5vbmUiIGQ9Im0gMTM4LjAzLDE2Ny43ODEgYyAtNi41MTgsLTQuMTg3IC0xMy43ODYsLTguNzQgLTI0LjQ2NiwtNy42ODQgLTIuMjgyLDEuOTg0IC0zLjE1Miw2LjM5OSAtMC45MzUsOS4zMTUgMS4xNTQsLTEuOTg0IDAuNDI5LC01LjYzMyAzLjY0NSwtNi4xODIgNi4wNiwtMS4wMzcgMTMuMTEzLDMuNzA3IDE3LjQ3Miw1LjM2NSAyLjcwMyw0LjU1NyAtMC4yMzMsNi4yMzMgLTIuNjY4LDkuMTY2IC00Ljk4NSw2LjAwOSAtMTEuNjcyLDEzLjQ1NyAtMTEuNDI5LDIyLjQ1MyAyLjAxNSwxLjQ2MSAyLjE4OSwtMi4yMyAyLjQ3OCwtMi45MDIgMi42MDMsLTYuMDkyIDkuMTU0LC0xMy44ODMgMTMuOTM1LC0xOS4wOTcgMS4xNzQsLTEuMjg0IDMuMTA3LC0yLjUxNiAzLjMyMiwtMy4zNjUgMC42MiwtMi40NjkgLTEuNjEzLC01LjQyNyAtMS4zNTQsLTcuMDY5Ii8+PHBhdGggaWQ9InBhdGgxMDgiIHN0eWxlPSJmaWxsOiMyMzFmMjA7ZmlsbC1vcGFjaXR5OjE7ZmlsbC1ydWxlOmV2ZW5vZGQ7c3Ryb2tlOm5vbmUiIGQ9Im0gNTIuMTAxNiwxNzIuMTg5IGMgLTIuMDQzLDEuMTY2IC0yLjUyOTMsNi4zMDIgLTQuOTI3OCw2LjQ0OCAtMy40Mjc3LDAuMjA4IC0yLjgwMjcsLTYuNjYzIC0yLjc4OSwtMTAuNjgxIC0yLjM1OTQsMi4xNDIgLTIuNzc0Myw4LjczNyAtMS4wNDEsMTIuMTI0IC0xLjk3NTQsMC45NyAtMi44NTc1LC0xLjA3IC0zLjk1MzIsLTEuNzg5IDEuNDA4MiwxMC4yMyAxNC45NjQ5LDQuNzQ1IDEyLjcxMSwtNi4xMDIiLz48cGF0aCBpZD0icGF0aDExMCIgc3R5bGU9ImZpbGw6IzIzMWYyMDtmaWxsLW9wYWNpdHk6MTtmaWxsLXJ1bGU6ZXZlbm9kZDtzdHJva2U6bm9uZSIgZD0ibSAxNDIuMTgsMTYzLjUyMSBjIC0zLjAzNCwtNS43NzUgLTcuMzI2LC0xMi4xMzUgLTE2LjIyOSwtMTIuMzIgLTAuMTgxLDEuODY1IC0wLjMyLDQuNzAzIDAuMDEsNS44MjYgNi44MDYsMC42NTQgMTEuMDA4LDQuMTE4IDE2LjIxOSw2LjQ5NCIvPjxwYXRoIGlkPSJwYXRoMTEyIiBzdHlsZT0iZmlsbDojMjMxZjIwO2ZpbGwtb3BhY2l0eToxO2ZpbGwtcnVsZTpldmVub2RkO3N0cm9rZTpub25lIiBkPSJtIDk5LjUyNjYsMTU5Ljc3NyBjIDUuNjc4NCwtMi45ODYgMTYuMTE0NCwtMy4zMDcgMjMuODMyNCwtMy4wODEgMC40MTQsLTEuNjkxIDAuNDA0LC0zLjc4IDAuNDIsLTUuODQyIC05LjkyMSwtMC40OTUgLTIxLjY1MSwxLjk2IC0yNC4yNTI0LDguOTIzIi8+PHBhdGggaWQ9InBhdGgxMTQiIHN0eWxlPSJmaWxsOiMyMzFmMjA7ZmlsbC1vcGFjaXR5OjE7ZmlsbC1ydWxlOmV2ZW5vZGQ7c3Ryb2tlOm5vbmUiIGQ9Im0gOTguNDQ3MywxNTQuMjA5IGMgMy45MjY3LC05Ljg1OSAxNy40MjI3LC04LjcyNCAyOC44MDM3LC04LjQ1MiAtMC41MDEsLTEuMjggLTEuNTg3LC0yLjc5MiAtMi45MzcsLTMuMzM5IC0zLjY0NywtMS40ODQgLTEzLjcwNiwtMi42MSAtMTguNzY5LDAuMDc5IC0zLjIxMSwxLjcwNyAtNS4yNzQsNS41NjQgLTcuMDMzMyw3LjgyNSAtMC44NDk2LDEuMDkyIC01LjA4MDEsMy44ODEgLTAuMDY0NCwzLjg4NyIvPjxwYXRoIGlkPSJwYXRoMTE2IiBzdHlsZT0iZmlsbDojODFiMGM0O2ZpbGwtb3BhY2l0eToxO2ZpbGwtcnVsZTpldmVub2RkO3N0cm9rZTpub25lIiBkPSJtIDEzNy41NTYsOTkuODI2MiBjIC00LjYwOCwtNy44OTIyIC05LjAxNywtMTUuOTk4MSAtMTQuNDg0LC0yMi45NTk0IDIuMjkyLDYuNzM5MSAzLjI3MywxOC4wMTg0IDMuNjE5LDI2LjYxNzIgNC43OTUsMi4yNDQgOC45MDEsLTAuNTA1IDEwLjg2NSwtMy42NTc4Ii8+PHBhdGggaWQ9InBhdGgxMTgiIHN0eWxlPSJmaWxsOiMyMzFmMjA7ZmlsbC1vcGFjaXR5OjE7ZmlsbC1ydWxlOmV2ZW5vZGQ7c3Ryb2tlOm5vbmUiIGQ9Im0gMTYyLjM1Miw3MS40NjA5IGMgLTUuMTU5LC0xLjAzMjggLTguNzg0LC02LjA0NjggLTEzLjgxNywtNS43MjUgMi43NjYsMy44OTkzIDcuNjEzLDUuNTQzIDEzLjgxNyw1LjcyNSIvPjxwYXRoIGlkPSJwYXRoMTIwIiBzdHlsZT0iZmlsbDojMjMxZjIwO2ZpbGwtb3BhY2l0eToxO2ZpbGwtcnVsZTpldmVub2RkO3N0cm9rZTpub25lIiBkPSJtIDE2NC42MjgsNjMuMzg3MSBjIC00LjIwNSwtMC40NDQxIC05LjE0NCwtMS4xMjUgLTEzLjQwOSwtMC43NzQyIDIuMDE5LDMuMDg0IDkuNzk4LDIuMDE5OSAxMy40MDksMC43NzQyIi8+PHBhdGggaWQ9InBhdGgxMjIiIHN0eWxlPSJmaWxsOiMyMzFmMjA7ZmlsbC1vcGFjaXR5OjE7ZmlsbC1ydWxlOmV2ZW5vZGQ7c3Ryb2tlOm5vbmUiIGQ9Im0gMTY2LjA4NSw1Ni40MjYyIGMgLTQuNzI2LC0wLjEwMjQgLTEwLjYsLTAuMDA4MiAtMTUuMDkyLDAuMzY4NyAyLjY1NywyLjg1MzkgMTIuMDI3LDEuMDU5IDE1LjA5MiwtMC4zNjg3Ii8+PHBhdGggaWQ9InBhdGgxMjQiIHN0eWxlPSJmaWxsOiNkY2Q5ZDg7ZmlsbC1vcGFjaXR5OjE7ZmlsbC1ydWxlOmV2ZW5vZGQ7c3Ryb2tlOm5vbmUiIGQ9Im0gMTI4LjY2NCwzNy4zNzcgYyAwLjY3OCwtNS45MzUyIDMuMDMxLC0xMS45NDg5IDIuNzM2LC0xOC40NDg5IC0yLjYxMywtMC44ODEyIC00LjExNCwtMS42NTE5IC03LjYxNSwtMS42NDcyIC0wLjI0Nyw1LjUyNDIgLTAuOTg2LDEzLjk2OTEgLTAuNzY1LDE5LjIzNTEgMS43MjIsLTAuMTE0IDQuMjYxLDEuMjMwMSA1LjY0NCwwLjg2MSIvPjxwYXRoIGlkPSJwYXRoMTI2IiBzdHlsZT0iZmlsbDojZjBkNmI3O2ZpbGwtb3BhY2l0eToxO2ZpbGwtcnVsZTpldmVub2RkO3N0cm9rZTpub25lIiBkPSJtIDEyMS4wNDUsMTI0Ljg0OSBjIC0yLjM3MywtMS41NDkgLTQuMzk0LC0zLjQ4MyAtNi42NzMsLTUuMTM3IC01LjA1NCwtMC4yNSAtNy44MTIsMC4zNSAtMTEuNTI1LDMuMjUyIDAuMDYxLDAuMjMzIDAuNDM0LDAuMTI5IDAuNDQ4LDAuNDE1IDUuNDEsLTIuNDExIDEyLjI4NywwLjk4MiAxNy43NSwxLjQ3Ii8+PHBhdGggaWQ9InBhdGgxMjgiIHN0eWxlPSJmaWxsOiM4MWIwYzQ7ZmlsbC1vcGFjaXR5OjE7ZmlsbC1ydWxlOmV2ZW5vZGQ7c3Ryb2tlOm5vbmUiIGQ9Im0gOTIuNjQ0NSw4Ny45NzExIGMgMS40ODY0LDYuNDQxIDcuMzEwNiw5Ljc3NjkgMTIuNTk5NSwxMy4zMjM5IDUuNDU5LC02LjkyODIgOC43NzksLTE1LjgzOCAxMi40MzUsLTI0LjQzNiAtOC42MzgsMi42MDM5IC0xNy40NjQsNi44Mjg5IC0yNS4wMzQ1LDExLjExMjEiLz48cGF0aCBpZD0icGF0aDEzMCIgc3R5bGU9ImZpbGw6IzIzMWYyMDtmaWxsLW9wYWNpdHk6MTtmaWxsLXJ1bGU6ZXZlbm9kZDtzdHJva2U6bm9uZSIgZD0ibSAxMjMuMDIsMzYuNTE2IGMgLTAuMjIxLC01LjI2NiAwLjUxOCwtMTMuNzEwOSAwLjc2NSwtMTkuMjM1MSAzLjUwMSwtMC4wMDQ3IDUuMDAyLDAuNzY2IDcuNjE1LDEuNjQ3MiAwLjI5NSw2LjUgLTIuMDU4LDEyLjUxMzcgLTIuNzM2LDE4LjQ0ODkgLTEuMzgzLDAuMzY5MSAtMy45MjIsLTAuOTc1IC01LjY0NCwtMC44NjEgeiBNIDY4LjUwNTksNjYuNDY0OCBDIDcwLjgxNDUsNDUuMjQxOCA3NC4xNTgyLDI3LjQwMTIgODAuMjkxLDguNjA3ODEgOTMuOTAyMyw0LjQ3NSAxMTAuMzExLDQuMTE0ODQgMTIyLjM0Miw3Ljg0NDE0IDEyMC4xMzMsMTguNDUxMiAxMjEuMDk4LDMxLjM2NDggMTE5LjgwNyw0Mi42ODQgYyAtMC45NzMsOC41MDc4IC0wLjQ3NywxNy4wNjggLTEuODExLDI1Ljc0OCAtMTQuNTc4LDMuMDMyOCAtMzUuMTgzNSwwLjcwOSAtNDkuNDkwMSwtMS45NjcyIHogbSA1Mi45MzcxLDEuODM0IGMgLTAuMTIzLC05LjExNDggMC40MDgsLTE4LjEwNTggMS4xMDQsLTI3LjIzMiAzLjUsMC41MjU0IDUuODc1LDAuODc2MiA5LjEyNywxLjU4OTEgLTEuMDU2LDguNzg1OSAtMC45MjYsMTguNjcyMiAtMy4wNzcsMjYuNDQ0MSAtMi40ODYsLTAuMDIzOCAtNC42NzUsMC4wMjg5IC03LjE1NCwtMC44MDEyIHogbSAxNy43NTUsMS40NjkyIGMgLTEuNjYxLDAuMzgwOCAtMy41OTUsMC4wMTQ4IC01LjE4MiwtMC4wMTYgMC43NDYsLTcuNDMwMSAyLjU1NiwtMTUuNjI5IDMuMTkzLC0yMy40MjgyIDIuNDk3LC0wLjA3NzcgMy44MzEsMS4xIDUuODg1LDEuNDk2MSAwLjExLDYuODQ2MSAtMC41OTgsMTYuMjc4MSAtMy44OTYsMjEuOTQ4MSB6IG0gMjYuODg0LC0yNC41NjI5IGMgNS4yMDUsMS4yNjQgOC40NzgsNy42MzkgNy4wMjIsMTQuMTg1OSAtMC45NzcsNC40IC0yLjcxNywxMi42ODUyIC00LjU3OSwxNS41IC0xLjM3NiwyLjA4MiAtNS4xMDcsNC44MDc4IC04LjA4NiwyLjkgLTQuODQ2LC0zLjEwMzEgLTEzLjM4MywtNC4wMDM5IC0xNi45MTcsLTcuNzYwMSAxLjc3MiwtNS45IDIuMzIyLC0xNC4wMDM5IDMuMDUzLC0yMS40Nzk3IDYuMDU0LC0wLjM3NzQgMTMuNTAzLDEuNjY2IDE4LjUzOCwtMC41MDI0IC0zLjUxNSwtMS4xMzg2IC04LjA3NiwtMS4xNDc2IC0xMS4xMTMsLTIuODA3IDIuNDgyLC0xLjE5ODggOC4yOTMsLTAuOTU2NiAxMi4wODIsLTAuMDM2NyB6IE0gMTE3LjY3OSw3Ni44NTkgYyAtMy42NTYsOC41OTggLTYuOTc2LDE3LjUwNzggLTEyLjQzNSwyNC40MzYgQyA5OS45NTUxLDk3Ljc0OCA5NC4xMzA5LDk0LjQxMjEgOTIuNjQ0NSw4Ny45NzExIDEwMC4yMTUsODMuNjg3OSAxMDkuMDQxLDc5LjQ2MjkgMTE3LjY3OSw3Ni44NTkgeiBtIDkuMDEyLDI2LjYyNSBjIC0wLjM0NiwtOC41OTg4IC0xLjMyNywtMTkuODc4MSAtMy42MTksLTI2LjYxNzIgNS40NjcsNi45NjEzIDkuODc2LDE1LjA2NzIgMTQuNDg0LDIyLjk1OTQgLTEuOTY0LDMuMTUyOCAtNi4wNyw1LjkwMTggLTEwLjg2NSwzLjY1NzggeiBtIC0xMC4yMTYsMy42MyBjIC0yLjA3MSwwLjIyMyAtMy44MjksLTIuMzgxIC02LjUyMiwtMS4yNTUgLTAuNjE3LC0wLjY4MiAtMS4xNzgsLTEuNDIxIC0xLjgwNywtMi4wODcgNS45NDgsLTcuMTY4MSA4LjY1MSwtMTcuMzM4IDEzLjI0NSwtMjUuNzYxOCAyLjQ2NSw4LjA5MTggMi4xODEsMTYuOTU3IDIuNzI0LDI1Ljc4ODggLTMuMzg3LC0wLjIxNSAtNS4yNjYsMy4wNjMgLTcuNjQsMy4zMTUgeiBtIC02LjU2OSw4LjY3IGMgLTAuMjIxLC0yLjQ1NSAwLjM1LC0zLjI1OCAwLjg0NCwtNi4wNzIgOC4wNywtMi41MjMgNi42NjEsMTEuMDc2IC0wLjg0NCw2LjA3MiB6IG0gLTguOTQ5LDIuOTM4IGMgLTMuNDc3MywxLjkgLTguNzAxMSwzLjk2OSAtMTMuMTkyNSw0LjgyNiAtNS41NjcyLDEuMDY1IC01LjA0NTcsLTcuNTk0IC00LjgwOTQsLTEyLjc2IDAuMTg1NSwtNC4wOSAyLjMxMjUsLTguNDE1IDMuMjM2MywtMTEuMTMyMSAwLjQzMzYsLTEuMjY4OCAwLjUzMTMsLTIuNjE0OSAxLjYxNiwtMi44NjY4IDEuOTE3MiwtMC40NDY5IDguMjQxNCwyLjA4MiAxMC4wNDM0LDMuMDY0OCAzLjgxMTIsMi4wNzgxIDYuNzY4Miw1LjM3ODEgMTAuMDA1Miw3LjU5NDEgMC4wNDIsMS4wNzggMC4wODMsMi4xNTUgMC4xMjYsMy4yMzMgLTEuOTQ2LDAuOTcgLTQuMTk1LDEuNjU4IC03LjA1MiwxLjc4MyAxLjkzOCwwLjk3NSA0Ljc4OSwwLjk2MSA2LjU1NSwyLjEyMSAwLjAxNywwLjQzMiAwLjAzNSwwLjg2MyAwLjA1LDEuMjkxIC0zLjIyNCwwLjI0OCAtNC40NTMsMS42ODQgLTYuNTc4LDIuODQ2IHogbSAtMzMuMjEzNiw2LjAzMyBjIC0yLjg4NiwtMi45MyA4LjA5NDUsLTYuOTI0IDExLjU5MDYsLTcuMTM5IC0wLjAxOTUsMS44NTQgMS4wNTY2LDMuNjAyIDAuODM5OCw0LjkzMiAtNC4xNTIzLDAuNzI5IC05LjYwOTMsMC4yNDggLTEyLjQzMDQsMi4yMDcgeiBtIDM1LjU1MTYsLTEuMzc2IGMgLTAuMDE0LC0wLjI4NiAtMC4zODcsLTAuMTgyIC0wLjQ0OCwtMC40MTUgMy43MTMsLTIuOTAyIDYuNDcxLC0zLjUwMiAxMS41MjUsLTMuMjUyIDIuMjc5LDEuNjU0IDQuMywzLjU4OCA2LjY3Myw1LjEzNyAtNS40NjMsLTAuNDg4IC0xMi4zNCwtMy44ODEgLTE3Ljc1LC0xLjQ3IHogbSAzMi42MzIsLTkuODk1IGMgLTAuMTU2LDMuMjU1IC0xLjAxMSw5Ljk0OSAtMy4wMjMsMTEuMTIxIC00LjIyMywyLjQ2NSAtMTEuNzMsLTQuOTc3IC0xNC45MSwtNi4xMTIgMC4zNDYsLTAuOTk2IDAuOTE3LC0xLjc4NSAwLjk2MSwtMy4wNTggMS44ODEsMC40NjMgNC4xNzEsMC4xNDYgNS44MDEsLTAuNjU1IC0xLjg4NSwtMC4yMTEgLTMuOTc1LC0wLjE5NyAtNS4yMjIsLTEuMDk1IC0wLjQ1NywtMS4zMjEgMC4xMTIsLTMuMTIxIC0wLjE5MiwtNC45NTUgNC40NzQsLTEuMjYyIDkuNTg0LC0xLjkzNCAxNS4yNCwtMi4xIDEuMSwxLjQzIDEuNDc1LDQuMTU0IDEuMzQ1LDYuODU0IHogbSAtNzMuMDQyMiw4LjQzNyBjIC0wLjkwNjMsMC42NDYgLTcuMDM3MSw4LjYyMyAtNy44NzcsOC4yOTIgQyA0My45MTQxLDEyNS44MzggMzMuNTQxLDExOC4yNzMgMjQuMjcxNSwxMTEuMTE4IDMzLjEwOTQsOTIuMTUzOSAzNi42NzcsNjguOTE5OSAzNy4zMDc0LDQ2LjUyNjIgNDcuNDMxNiw0MS43OTEgNTYuMzI0MiwzNC45NjQ4IDcwLjA2MjUsMzQuMjUyIDY4LjQ3MjcsNDUuNSA2Ny4wMjE1LDU1LjUzNTIgNjYuMTE5MSw2Ni4xMjUgYyAtMy40NTE5LDEuNDU1MSAtOC40MDQzLC0wLjA2NiAtMTEuNjM0NywwLjQ1MTIgLTAuMDI3NCwzLjg5MjkgNC45MzM2LDEuNzA0NyA1LjM0NjgsNC4zMjI2IDAuMzExNCwxLjk4MDEgLTIuNzI5NiwyLjEzMDEgLTEuNzM5NCw1LjI0ODEgMi41MjU0LC0wLjkxOCAzLjg1MTYsLTIuOTQ1NyA2LjU0NDksLTMuNzA3MSAyLjQ2MSw1LjM4NCAtMC4wMzQ0LDE0LjkxMDIgMC4zMjAzLDE5LjQxMDIgMC4wNjcyLDAuODQ0OSAwLjQyMTksNC42ODA5IDIuMzE0NSw0LjAwNzggMS42NzUsLTAuNTk1NyAtMC4wOTU3LC0xMC4yMDE5IDAuMDg3OSwtMTQuNDYwOSAwLjE2NzIsLTMuOTIzOSAtMC40NzM5LC03LjcyMDcgMS4xMTUyLC0xMC4xODQgMTMuMjc1NCwxLjgwNyAyNi43NjU2LDIuOTc1IDQxLjEyOTQsMy4zNjkxIC0zLjE2LDEuMzU1OSAtNi45MTQsMi42MzkxIC0xMS4wMjk4LDQuOTU5IC0yLjIzMTIsMS4yNTc4IC05LjI2NDQsMy44NzUgLTkuOTA4Miw1Ljk5NDIgLTEuMDI3MywzLjM3NjkgMi42OTUzLDUuMTc1NyAzLjMzMiw4LjA3MDcgLTYuNzAxMSwtMy42NTQ3IC04LjAwODUsMy41MDMxIC05LjU5MzcsOC41NzQxIC0xLjQzNjMsNC41OTMgLTIuMjUzOSw4LjAyNCAtMi42MDYzLDEwLjY3MyAtNS43NzI2LDIuNzUyIC0xMS45NDQ1LDUuNTM5IC0xNi45MTMyLDkuMDY4IHogbSA2Ny4xNzkyLDcuMzI3IGMgOS4yNDMsNC40ODIgMTAuOTA5LC0xNi43NTEgNy4yODYsLTIzLjU5MSAwLjU2LC0yLjA0IDIuNDg2LC0yLjgyMSAzLjI3MiwtNC42NTUgLTUuMTU4LC05LjIzOTkgLTEwLjg4NywtMTcuODY0OSAtMTYuMTUsLTI2Ljk5NjEgMy45MTUsMi40MzcxIDkuNTA3LDAuNDM1OSAxNC4xMTQsMi4yNjAxIDEuNjg0LDAuNjY2IDIuOTAzLDQuNTIxMSA0LjE3OCw3LjYwNTEgMy41MDcsOC40ODQ4IDcuMTg5LDE5LjE4MTkgOC44MjcsMjcuMjc4OSAwLjM3LDEuODQ1IDEuMzc4LDUuODY1IDEuMTUyLDcuNTA3IC0wLjQwMywyLjk0IC00LjM5Miw1LjEyIC02LjQyMSw2LjkzOCAtMy43MzgsMy4zNTggLTYuMDkyLDYuMzEzIC05Ljk5MSw5LjQ1MyAtMS41ODEsLTIuMzM0IC00Ljk3NCwtMy45MDIgLTYuMjY3LC01LjggeiBtIC04OC4zMTc5LDgxLjk2OCBjIC00LjQwNDMsLTQuODQ2IC0zLjQ4MjQsLTEzLjkyNiAtMi45NDkyLC0yMC4zODYgNy45NjA5LDUuMDA4IDE4LjUyNzMsLTAuMzk2IDE4LjQyNzcsLTguOTE0IDMuODAwOCwwLjEwMSAxLjQxOTksNC43NDcgMC43MzI0LDcuNzQgLTIuMjQ2OCw5Ljc3NiAzLjc4NTIsMjAuMzk3IDAuMjczNSwyOS4zMzcgLTYuODE4NCwtMC41MTcgLTEyLjQyLC0zLjMwMiAtMTYuNDg0NCwtNy43NzcgeiBtIDMxLjUxMzcsMjguMTI2IGMgLTkuOTcwNywtMi44MjYgLTIyLjc0OTMsLTEwLjA3MSAtMjYuODQ2NSwtMTkuMDI4IDMuMTcyNiwwLjQ2MSA1LjM3NSwyLjA2MSA4LjUwNDcsMi4yNTkgMS4xODI4LDAuMDc3IDIuNzMyNCwtMC40OTYgNC4wOTE4LC0wLjE1OCAyLjcwOSwwLjY3MiA0Ljk5NTMsNi43NDYgNy4wMzksOS4wMDYgMS45OTIyLDIuMjA3IDQuMzg2NywzLjE1IDYuMDI1NCw1LjE2MiAxLjA1MjgsMC41MDggMi42MDk0LDAuNDczIDIuNjY5MiwyLjA1NCAtMC40NTYzLDAuNDg4IC0wLjkzNjgsMC44NiAtMS40ODM2LDAuNzA1IHogbSA1MS45MDMyLC0yLjY1OCBjIC0xMC4zNDksNS44MzkgLTI3Ljg2NjEsMTAuMjMxIC0zOC44NzQ3LDQuNzQzIC04Ljg4MjgsLTQuNDI5IC0yMC44ODk5LC0xMS43NTcgLTI0Ljk4MzYsLTIxLjA0MyAzLjgyNDIsLTguOTYxIC0xLjEzMjgsLTE3LjE3MiAtMS40NDkyLC0yNi4yNyAtMC4xNjgsLTQuODQxIDIuMjc5MywtOS4wNjcgMi40NjY4LC0xNC4zMzcgLTEuMzA4NiwtMi4xNTkgLTUuMzA2NywtMi40MjUgLTguMDc0MywtMi4yNzcgLTAuOTMxNiw0LjY2MiAtMi41NjI1LDkuOTAyIC03LjM2MzIsMTAuNDI4IC02Ljc5MywwLjc0MyAtMTEuNzU5OCwtNC44NzkgLTEyLjA2ODQsLTEwLjc1NCAtMC4zNjUyLC02LjkwOSA1LjMwNjYsLTE4LjM2IDEzLjM0NTcsLTE3LjU2NSAzLjEwNTUsMC4zMDcgMy44Njg0LDMuNDIgNy4yNTIsMy4zODggMS44MzM5LC0zLjY1OSAtMi44Mjg5LC00LjgwOCAtMy4zMDg2LC03LjQyNSAtMC4xMjUsLTAuNjc2IDAuMzg2NywtMy4zMTggMC42ODQzLC00LjU1NyAxLjQ2MDIsLTYuMDMzIDQuNzE1MywtMTMuODQxIDcuOTE5MiwtMTguNDM0IDQuMDY2NCwtNS44MjYgMTIuMDU1NSwtNi43MDQgMjAuNjUwNCwtNy4yNzUgMS41MzUxLDMuMzA3IDcuMTkwMiwzLjAzNSAxMC44NzUsMi4xNyAtNC40MTYsMS43NDkgLTguNTIxNSw1Ljk4OSAtMTEuOTIzOSw5Ljc0MiAtMy45MDgyLDQuMzA2IC03Ljg2NzEsOC45MjUgLTguMDY3MSwxNC41NTMgNy4zODU1LC0xMC4yNDYgMTMuNDg3MSwtMTkuMTk0IDI2LjkxNjgsLTIzLjcwMSAxMC4xNjE4LC0zLjQwOCAyMi4wMjk4LDEuNTYyIDI5LjgzNzgsNy4wNDUgMy4yNCwyLjI3OSA1LjE3NCw1Ljg5NSA3LjQ3Nyw5LjIwNSA4LjYxNywxMi4zOTUgMTIuNjM4LDMwLjA4NyAxMS43NTQsNDcuMjM1IC0wLjM2NCw3LjA3MiAtMC4zNDgsMTQuMTIgLTIuNzIxLDE4Ljg3OCAtMi40OCw0Ljk3NSAtMTAuODY4LDkuNDI2IC0xNS43NzgsNC45MjYgLTAuOTEsNC44MzggNC4wODMsNy44MyA5Ljk0OCw2LjA4OSAtNC4xODIsNS4zOTcgLTguNTcxLDExLjg4MiAtMTQuNTE1LDE1LjIzNiB6IE0gMTQ0LjQ0NCw3Ny4xMTY4IGMgOC4wODcsNC4wMjAzIDIzLjE5NywxMC44MjExIDI4LjI2NywtMC4wMTQ4IDEuODcxLC0zLjk5NDIgNC4wNjYsLTEwLjc0NjEgNS4wMzUsLTE0Ljg2OTIgMS4zNjksLTUuODE2OCAtMS40ODQsLTE4LjA0MyAtNy40NjMsLTE5Ljk5NDkgLTUuMjgxLC0xLjcyMzggLTExLjQ0MywtMS42MTg4IC0xNy44MDQsLTAuMzQxIC0wLjc0OSwwLjYyMyAtMS41ODMsMS43MDkgLTIuMTY2LDIuODQxIC00LjU0MiwwLjE3NjIgLTguNzk1LC0wLjI0MzggLTEyLjM4MywtMi4xMTA5IDAuMzQsLTMuMzU5IC0xLjkzMiwtMy44OTgxIC00LjA2MiwtNC41ODk5IC0xLjU3OSwtNi4yNjA5IDMuMTU5LC0xNC40MzcxIDIuMDI1LC0yMC4xNDYxIC0wLjgwOSwtNC4wNjcyIC01LjgxMywtNC42OTYxIC05LjQ5MSwtNS40NTcgLTAuMTIsLTIuMjYwMiAwLjE2MSwtNC4xNDY4OSAwLjQxMiwtNi4wNTkgLTAuODQxLC0zLjA5ODgzIC00LjYxMywtNC44NjI4OSAtOC4xODcsLTUuMjk0OTIgLTExLjc1OSwtMS40MTQwNjQgLTI5LjYxMzMsLTIuMDQ5MjIxIC00MC45MjM5LDIuMDE3OTcgLTMuMTU2Miw3Ljc0MTc1IC01LjY0MjYsMTcuMTU3ODUgLTguMjcxNSwyNS45OTgwNSAtMTEuMDMxMiwtMS4xNzgxIC0xOS45NTMxLDQuNzU5OCAtMjguMzY0LDguNjUgLTIuOTEyMSwxLjM1IC02Ljk0MDYsMi4wOTM3IC04LjAyODUsNC40MTE3IC0xLjA1NDcsMi4yNDQyIC0wLjYyMzEsNi41NDUzIC0wLjg4NDgsMTAuNjA4MiAtMC42NjYsMTAuMzc3IC0xLjIzNjMsMjAuMzg2IC0zLjk3NjYsMzEuMDExIC0xLjIzMDQsNC43Njc5IC0zLjM3NSw4Ljk3NSAtNC44NzExLDEzLjU2OTEgLTEuMzgyOCw0LjI1NzkgLTMuNzk4OCw5LjUxOTkgLTQuNDI4OSwxMy43NjU5IC0wLjkzNDMsNi4yOTMgNC45OTE0LDYuNjQzIDguNzgwNSw5LjM3IDUuODU3NCw0LjIxNyAxMC40NTUxLDYuNTQ5IDE2Ljc5ODgsMTAuMzU1IDEuODc4OSwxLjEyNyA3LjU0NSwzLjk4IDguMTg5NSw1LjI5NCAxLjI4MTIsMi42MDUgLTIuMTk5Miw2LjI3OCAtMy4xMjk3LDguMzIgLTEuNDcxOSwzLjIyOSAtMi4yMzk1LDUuOTcyIC0yLjQ1MDQsOS4xNTggLTUuMzIxNSwwLjg0MSAtOS4zNTU1LDQuMDA4IC0xMS43OTIyLDcuNTc5IC00LjAzMDgsNS45MSAtNi44MjYyLDE2Ljg0NCAtMy4zMzg3LDI1LjE2MSAwLjI3MzUsMC42NTUgMS42Mzc1LDEuOTQzIDEuODM4NywyLjk0OSAwLjM5NjksMS45ODEgLTAuNzQ2OSw0LjYxNSAtMC44MTgsNi43MjIgLTAuMzY2NCwxMC44MSAxLjgyOSwyMC4xMjQgOS4xMDYzLDIzLjM4NCAyLjk1NDMsMTEuNzY5IDEzLjUyODEsMTUuNjgyIDIzLjQ5MDIsMjEuNTMxIDMuNzIzOSwyLjE4NiA3LjgyODksMy41ODMgMTIuMDY4NCw1LjE0MyAxNS4yMDgyLDUuNTk3IDM4LjU0MTksNC41NDMgNTEuMTYzOSwtNS4wMDMgNS4zNTIsLTQuMDQ4IDEzLjkwNywtMTIuNTk1IDE2Ljk2NywtMTguNzgzIDguMDgyLC0xNi4zMzcgNy41MDgsLTQzLjY0IDEuODU1LC02My41MTMgLTAuNzYsLTIuNjY4IC0xLjg2MiwtNi41OSAtMy40MDEsLTkuNzk1IC0xLjA3MywtMi4yMzggLTQuNDA4LC02LjcxNiAtNC4wMDMsLTguNjkyIDAuNDE3LC0yLjA0MyA3LjYwNCwtNy41IDkuMTQ1LC04Ljk4NiAyLjc3NSwtMi42NzcgOC4wNDcsLTYuMjMgOC40NzQsLTkuNjA4IDAuNDU5LC0zLjU5NSAtMS41ODQsLTguNTEzIC0yLjYxOSwtMTEuOTgyIC0zLjQ2LC0xMS41NzY5IC02LjgzNiwtMjIuMjc4MSAtMTAuNzU5LC0zMi41OTkyIi8+PHBhdGggaWQ9InBhdGgxMzIiIHN0eWxlPSJmaWxsOiNmN2U0Y2Q7ZmlsbC1vcGFjaXR5OjE7ZmlsbC1ydWxlOmV2ZW5vZGQ7c3Ryb2tlOm5vbmUiIGQ9Im0gOTAuNDkxLDE1Ny4yNTUgYyAwLjQzODcsMC41ODQgMi44NTA4LDEuNDcxIDYuMjI1OCwtMC4xNTQgMCwwIC00LC0wLjY2NyAtMy42NjcyLC03LjMzNiBsIC0xLjY2NjgsMC4zMzQgYyAwLDAgLTEuNzIyNiw2LjA0NyAtMC44OTE4LDcuMTU2Ii8+PHBhdGggaWQ9InBhdGgxMzQiIHN0eWxlPSJmaWxsOiMxZDE5MTk7ZmlsbC1vcGFjaXR5OjE7ZmlsbC1ydWxlOmV2ZW5vZGQ7c3Ryb2tlOm5vbmUiIGQ9Im0gMTE5LjcxNyw5OS45MzQgYyAwLC0xLjAxMjEgLTAuODIxLC0xLjgzMjggLTEuODM0LC0xLjgzMjggLTEuMDEyLDAgLTEuODMzLDAuODIwNyAtMS44MzMsMS44MzI4IDAsMS4wMTIgMC44MjEsMS44MzQgMS44MzMsMS44MzQgMS4wMTMsMCAxLjgzNCwtMC44MjIgMS44MzQsLTEuODM0Ii8+PHBhdGggaWQ9InBhdGgxMzYiIHN0eWxlPSJmaWxsOiMxZDE5MTk7ZmlsbC1vcGFjaXR5OjE7ZmlsbC1ydWxlOmV2ZW5vZGQ7c3Ryb2tlOm5vbmUiIGQ9Im0gMTIxLjU1LDkxLjQzNCBjIDAsLTEuMDEyMSAtMC44MjEsLTEuODMyOCAtMS44MzQsLTEuODMyOCAtMS4wMTIsMCAtMS44MzMsMC44MjA3IC0xLjgzMywxLjgzMjggMCwxLjAxMjEgMC44MjEsMS44MzQgMS44MzMsMS44MzQgMS4wMTMsMCAxLjgzNCwtMC44MjE5IDEuODM0LC0xLjgzNCIvPjwvZz48L2c+PC9zdmc+;" parent="ViAHHDkNQJJAyb4cHbFf-3" vertex="1">
          <mxGeometry x="280" y="190" width="50.71" height="70" as="geometry" />
        </mxCell>
        <mxCell id="ViAHHDkNQJJAyb4cHbFf-68" value="&lt;div&gt;Manifest Bundler worker&lt;/div&gt;" style="aspect=fixed;sketch=0;html=1;dashed=0;whitespace=wrap;verticalLabelPosition=bottom;verticalAlign=top;fillColor=#2875E2;strokeColor=#ffffff;points=[[0.005,0.63,0],[0.1,0.2,0],[0.9,0.2,0],[0.5,0,0],[0.995,0.63,0],[0.72,0.99,0],[0.5,1,0],[0.28,0.99,0]];shape=mxgraph.kubernetes.icon2;prIcon=pod" parent="ViAHHDkNQJJAyb4cHbFf-3" vertex="1">
          <mxGeometry x="508" y="46.00000000000003" width="50" height="48" as="geometry" />
        </mxCell>
        <mxCell id="ViAHHDkNQJJAyb4cHbFf-69" value="Per-deployment OCI Registry" style="image;aspect=fixed;html=1;points=[];align=center;fontSize=12;image=img/lib/azure2/containers/Container_Registries.svg;" parent="ViAHHDkNQJJAyb4cHbFf-3" vertex="1">
          <mxGeometry x="499" y="193.00000000000003" width="68" height="61" as="geometry" />
        </mxCell>
        <mxCell id="ViAHHDkNQJJAyb4cHbFf-71" style="edgeStyle=orthogonalEdgeStyle;rounded=0;orthogonalLoop=1;jettySize=auto;html=1;entryX=0.49;entryY=-0.003;entryDx=0;entryDy=0;entryPerimeter=0;" parent="ViAHHDkNQJJAyb4cHbFf-3" source="ViAHHDkNQJJAyb4cHbFf-68" target="ViAHHDkNQJJAyb4cHbFf-69" edge="1">
          <mxGeometry relative="1" as="geometry" />
        </mxCell>
        <mxCell id="ViAHHDkNQJJAyb4cHbFf-72" value="&lt;div&gt;Push&lt;/div&gt;" style="edgeLabel;html=1;align=center;verticalAlign=middle;resizable=0;points=[];" parent="ViAHHDkNQJJAyb4cHbFf-71" vertex="1" connectable="0">
          <mxGeometry x="-0.0653" y="2" relative="1" as="geometry">
            <mxPoint as="offset" />
          </mxGeometry>
        </mxCell>
        <mxCell id="ViAHHDkNQJJAyb4cHbFf-75" value="&lt;div&gt;CloudOps ZeroTouch Worker&lt;/div&gt;" style="aspect=fixed;sketch=0;html=1;dashed=0;whitespace=wrap;verticalLabelPosition=bottom;verticalAlign=top;fillColor=#2875E2;strokeColor=#ffffff;points=[[0.005,0.63,0],[0.1,0.2,0],[0.9,0.2,0],[0.5,0,0],[0.995,0.63,0],[0.72,0.99,0],[0.5,1,0],[0.28,0.99,0]];shape=mxgraph.kubernetes.icon2;prIcon=pod" parent="ViAHHDkNQJJAyb4cHbFf-3" vertex="1">
          <mxGeometry x="653" y="44" width="50" height="48" as="geometry" />
        </mxCell>
        <mxCell id="ViAHHDkNQJJAyb4cHbFf-76" value="Cloud Compute" style="image;aspect=fixed;html=1;points=[];align=center;fontSize=12;image=img/lib/azure2/compute/VM_Scale_Sets.svg;" parent="ViAHHDkNQJJAyb4cHbFf-3" vertex="1">
          <mxGeometry x="644" y="186" width="68" height="68" as="geometry" />
        </mxCell>
        <mxCell id="ViAHHDkNQJJAyb4cHbFf-77" style="edgeStyle=orthogonalEdgeStyle;rounded=0;orthogonalLoop=1;jettySize=auto;html=1;entryX=0.488;entryY=0.029;entryDx=0;entryDy=0;entryPerimeter=0;" parent="ViAHHDkNQJJAyb4cHbFf-3" source="ViAHHDkNQJJAyb4cHbFf-75" target="ViAHHDkNQJJAyb4cHbFf-76" edge="1">
          <mxGeometry relative="1" as="geometry" />
        </mxCell>
        <mxCell id="ViAHHDkNQJJAyb4cHbFf-78" value="Do things" style="edgeLabel;html=1;align=center;verticalAlign=middle;resizable=0;points=[];" parent="ViAHHDkNQJJAyb4cHbFf-77" vertex="1" connectable="0">
          <mxGeometry x="-0.1258" y="1" relative="1" as="geometry">
            <mxPoint as="offset" />
          </mxGeometry>
        </mxCell>
        <mxCell id="ViAHHDkNQJJAyb4cHbFf-85" value="&lt;div&gt;Terraform Worker&lt;/div&gt;&lt;div&gt;(replaces Jenkins)&lt;/div&gt;" style="aspect=fixed;sketch=0;html=1;dashed=0;whitespace=wrap;verticalLabelPosition=bottom;verticalAlign=top;fillColor=#2875E2;strokeColor=#ffffff;points=[[0.005,0.63,0],[0.1,0.2,0],[0.9,0.2,0],[0.5,0,0],[0.995,0.63,0],[0.72,0.99,0],[0.5,1,0],[0.28,0.99,0]];shape=mxgraph.kubernetes.icon2;prIcon=pod" parent="ViAHHDkNQJJAyb4cHbFf-3" vertex="1">
          <mxGeometry x="382" y="45" width="50" height="48" as="geometry" />
        </mxCell>
        <mxCell id="ViAHHDkNQJJAyb4cHbFf-86" value="Cloud API" style="image;aspect=fixed;html=1;points=[];align=center;fontSize=12;image=img/lib/azure2/app_services/App_Service_Plans.svg;" parent="ViAHHDkNQJJAyb4cHbFf-3" vertex="1">
          <mxGeometry x="378" y="192" width="64" height="64" as="geometry" />
        </mxCell>
        <mxCell id="ViAHHDkNQJJAyb4cHbFf-87" style="edgeStyle=orthogonalEdgeStyle;rounded=0;orthogonalLoop=1;jettySize=auto;html=1;entryX=0.461;entryY=-0.052;entryDx=0;entryDy=0;entryPerimeter=0;" parent="ViAHHDkNQJJAyb4cHbFf-3" source="ViAHHDkNQJJAyb4cHbFf-85" target="ViAHHDkNQJJAyb4cHbFf-86" edge="1">
          <mxGeometry relative="1" as="geometry" />
        </mxCell>
        <mxCell id="ViAHHDkNQJJAyb4cHbFf-89" value="&lt;div&gt;Apply&lt;/div&gt;" style="edgeLabel;html=1;align=center;verticalAlign=middle;resizable=0;points=[];" parent="ViAHHDkNQJJAyb4cHbFf-87" vertex="1" connectable="0">
          <mxGeometry x="0.1046" y="-3" relative="1" as="geometry">
            <mxPoint as="offset" />
          </mxGeometry>
        </mxCell>
        <mxCell id="ViAHHDkNQJJAyb4cHbFf-56" style="rounded=0;orthogonalLoop=1;jettySize=auto;html=1;entryX=0;entryY=1;entryDx=0;entryDy=0;" parent="1" source="ViAHHDkNQJJAyb4cHbFf-12" target="ViAHHDkNQJJAyb4cHbFf-30" edge="1">
          <mxGeometry relative="1" as="geometry" />
        </mxCell>
        <mxCell id="ViAHHDkNQJJAyb4cHbFf-96" value="&lt;div&gt;HTTP long polling&lt;/div&gt;&lt;div&gt;&amp;nbsp;(with mTLS)&lt;/div&gt;" style="edgeLabel;html=1;align=center;verticalAlign=middle;resizable=0;points=[];" parent="ViAHHDkNQJJAyb4cHbFf-56" vertex="1" connectable="0">
          <mxGeometry x="0.0438" y="-1" relative="1" as="geometry">
            <mxPoint as="offset" />
          </mxGeometry>
        </mxCell>
        <mxCell id="ViAHHDkNQJJAyb4cHbFf-73" style="rounded=0;orthogonalLoop=1;jettySize=auto;html=1;entryX=0.5;entryY=1;entryDx=0;entryDy=0;" parent="1" source="ViAHHDkNQJJAyb4cHbFf-68" target="ViAHHDkNQJJAyb4cHbFf-30" edge="1">
          <mxGeometry relative="1" as="geometry" />
        </mxCell>
        <mxCell id="ViAHHDkNQJJAyb4cHbFf-74" value="&lt;div&gt;&lt;br&gt;&lt;/div&gt;" style="edgeLabel;html=1;align=center;verticalAlign=middle;resizable=0;points=[];" parent="ViAHHDkNQJJAyb4cHbFf-73" vertex="1" connectable="0">
          <mxGeometry x="0.1435" y="-3" relative="1" as="geometry">
            <mxPoint as="offset" />
          </mxGeometry>
        </mxCell>
        <mxCell id="ViAHHDkNQJJAyb4cHbFf-79" style="rounded=0;orthogonalLoop=1;jettySize=auto;html=1;entryX=1;entryY=1;entryDx=0;entryDy=0;" parent="1" source="ViAHHDkNQJJAyb4cHbFf-75" target="ViAHHDkNQJJAyb4cHbFf-30" edge="1">
          <mxGeometry relative="1" as="geometry" />
        </mxCell>
        <mxCell id="ViAHHDkNQJJAyb4cHbFf-88" style="rounded=0;orthogonalLoop=1;jettySize=auto;html=1;entryX=0.25;entryY=1;entryDx=0;entryDy=0;exitX=0.5;exitY=0;exitDx=0;exitDy=0;exitPerimeter=0;" parent="1" source="ViAHHDkNQJJAyb4cHbFf-85" target="ViAHHDkNQJJAyb4cHbFf-30" edge="1">
          <mxGeometry relative="1" as="geometry" />
        </mxCell>
        <mxCell id="ViAHHDkNQJJAyb4cHbFf-91" value="&lt;div&gt;Global OCI registries&lt;/div&gt;" style="image;aspect=fixed;html=1;points=[];align=center;fontSize=12;image=img/lib/azure2/containers/Container_Registries.svg;" parent="1" vertex="1">
          <mxGeometry x="718" y="431.92" width="68" height="61" as="geometry" />
        </mxCell>
        <mxCell id="ViAHHDkNQJJAyb4cHbFf-93" style="rounded=0;orthogonalLoop=1;jettySize=auto;html=1;entryX=0.029;entryY=0.533;entryDx=0;entryDy=0;entryPerimeter=0;exitX=0.995;exitY=0.5;exitDx=0;exitDy=0;exitPerimeter=0;" parent="1" source="ViAHHDkNQJJAyb4cHbFf-90" target="ViAHHDkNQJJAyb4cHbFf-91" edge="1">
          <mxGeometry relative="1" as="geometry" />
        </mxCell>
        <mxCell id="ViAHHDkNQJJAyb4cHbFf-94" value="&lt;div&gt;Push&lt;/div&gt;" style="edgeLabel;html=1;align=center;verticalAlign=middle;resizable=0;points=[];" parent="ViAHHDkNQJJAyb4cHbFf-93" vertex="1" connectable="0">
          <mxGeometry x="-0.2382" relative="1" as="geometry">
            <mxPoint as="offset" />
          </mxGeometry>
        </mxCell>
        <mxCell id="N8-MjwElvkZ1eLH-sIl_-18" value="" style="endArrow=none;dashed=1;html=1;rounded=0;" edge="1" parent="1">
          <mxGeometry width="50" height="50" relative="1" as="geometry">
            <mxPoint x="16" y="637" as="sourcePoint" />
            <mxPoint x="810" y="637" as="targetPoint" />
          </mxGeometry>
        </mxCell>
        <mxCell id="N8-MjwElvkZ1eLH-sIl_-19" value="&lt;div&gt;Boundaries of sovereignty&lt;/div&gt;&lt;div&gt;(pull based, outbound only, human approved changes)&lt;/div&gt;" style="edgeLabel;html=1;align=center;verticalAlign=middle;resizable=0;points=[];" vertex="1" connectable="0" parent="N8-MjwElvkZ1eLH-sIl_-18">
          <mxGeometry x="-0.864" relative="1" as="geometry">
            <mxPoint x="601" as="offset" />
          </mxGeometry>
        </mxCell>
      </root>
    </mxGraphModel>
  </diagram>
</mxfile>
